#N canvas 863 218 344 312 10;
#X obj 32 199 delwrite~ \$0-short 100;
#X text 40 218 0 - 100 mSec allpass;
#X obj 37 29 inlet~;
#X obj 32 159 +~;
#X obj 59 114 *~;
#X obj 91 30 inlet;
#X text 37 10 sound;
#X text 95 9 time;
#X text 138 9 gain;
#X obj 138 115 *~;
#X obj 122 144 +~;
#X obj 192 201 outlet~;
#X text 143 258 djsajkdjsahdsk;
#X obj 64 79 delread~ \$0-short;
#X obj 229 23 block~ 1;
#X obj 142 55 * -1;
#X obj 134 31 inlet;
#X connect 2 0 3 0;
#X connect 3 0 0 0;
#X connect 3 0 9 0;
#X connect 4 0 3 1;
#X connect 5 0 13 0;
#X connect 9 0 10 1;
#X connect 10 0 11 0;
#X connect 13 0 10 0;
#X connect 13 0 4 0;
#X connect 15 0 9 1;
#X connect 16 0 4 1;
#X connect 16 0 15 0;
