#N canvas 170 180 450 300 10;
#X obj 27 69 outlet~;
#X obj 27 -95 inlet~;
#X obj 94 -95 inlet;
#X obj 27 3 int~;
#X obj 27 -28 +~ 0.5;
#X obj 27 -62 *~ \$1;
#X obj 27 41 /~ \$1;
#X connect 1 0 5 0;
#X connect 2 0 5 1;
#X connect 2 0 6 1;
#X connect 3 0 6 0;
#X connect 4 0 3 0;
#X connect 5 0 4 0;
#X connect 6 0 0 0;
