#N canvas 512 301 329 363 10;
#X obj 109 112 inlet deg;
#X obj 109 231 outlet rad;
#X obj 172 177 / 45;
#X obj 172 111 loadbang;
#X obj 109 202 * 0.0174533;
#X text 93 282 rad=deg*pi/180;
#X obj 172 154 atan;
#X msg 172 133 1;
#X text 225 36 part of zexy;
#X text 63 66 convert DEGree to RADiant;
#X connect 0 0 4 0;
#X connect 2 0 4 1;
#X connect 3 0 7 0;
#X connect 4 0 1 0;
#X connect 6 0 2 0;
#X connect 7 0 6 0;
