#N canvas 3 56 1161 739 10;
#N canvas 195 489 450 300 reverb 0;
#X obj 73 47 inlet~;
#X obj 191 39 inlet~;
#X obj 73 215 outlet~;
#X obj 266 212 outlet~;
#X obj 72 79 moorerstereo~;
#X obj 282 0 r loca.reverb;
#X obj 276 39 * 100;
#X connect 0 0 4 0;
#X connect 1 0 4 1;
#X connect 4 0 2 0;
#X connect 4 1 3 0;
#X connect 5 0 6 0;
#X connect 6 0 4 2;
#X restore 504 39 pd reverb;
#N canvas 204 262 450 300 bitcrush 0;
#X obj 73 47 inlet~;
#X obj 191 39 inlet~;
#X obj 73 215 outlet~;
#X obj 190 217 outlet~;
#X obj 281 49 r loca.bitcrush;
#X obj 180 172 *~;
#X obj 243 171 *~;
#X obj 308 131 line~;
#X obj 306 164 *~ -1;
#X obj 309 186 +~ 1;
#X msg 298 90 \$1 20;
#X obj 68 177 *~;
#X obj 131 176 *~;
#X obj 93 135 bitcrusher~ 4;
#X obj 205 130 bitcrusher~ 4;
#X connect 0 0 11 0;
#X connect 0 0 13 0;
#X connect 1 0 5 0;
#X connect 1 0 14 0;
#X connect 4 0 10 0;
#X connect 5 0 3 0;
#X connect 6 0 3 0;
#X connect 7 0 8 0;
#X connect 7 0 6 1;
#X connect 7 0 12 1;
#X connect 8 0 9 0;
#X connect 9 0 5 1;
#X connect 9 0 11 1;
#X connect 10 0 7 0;
#X connect 11 0 2 0;
#X connect 12 0 2 0;
#X connect 13 0 12 0;
#X connect 14 0 6 0;
#X restore 504 77 pd bitcrush;
#X obj 26 72 loca.effect 37 550847 126 926870 reverb 1000;
#X obj 26 113 loca.effect 37 551752 126 925992 bitcrush 500;
#X connect 0 0 1 0;
#X connect 0 1 1 1;
#X connect 2 0 3 0;
