#N canvas 1131 654 632 316 10;
#X obj 70 40 inlet;
#X obj 296 39 inlet;
#X obj 70 191 outlet;
#X obj 296 193 outlet;
#X obj 296 125 * 8;
#X obj 296 152 - 4;
#X obj 312 87 * 2;
#X obj 70 114 * 8;
#X obj 70 141 - 4;
#X obj 85 89 * 2;
#X obj 135 38 r loca.gem.width;
#X obj 357 39 r loca.gem.height;
#X connect 0 0 7 0;
#X connect 1 0 4 0;
#X connect 4 0 5 0;
#X connect 5 0 3 0;
#X connect 6 0 4 1;
#X connect 7 0 8 0;
#X connect 8 0 2 0;
#X connect 9 0 7 1;
#X connect 10 0 9 0;
#X connect 10 0 8 1;
#X connect 11 0 6 0;
#X connect 11 0 5 1;
