#N canvas 902 229 851 707 10;
#X obj 115 87 deg2rad;
#X obj 115 149 sin;
#X obj 170 146 sin;
#X obj 225 145 cos;
#X obj 280 145 cos;
#X obj 115 118 / 2;
#X obj 170 88 deg2rad;
#X obj 170 121 / 2;
#X obj 225 87 deg2rad;
#X obj 280 88 deg2rad;
#X obj 115 294 atan2;
#X obj 115 267 sqrt;
#X obj 149 266 sqrt;
#X obj 115 319 * 2;
#X obj -19 572 outlet;
#X obj 115 348 *;
#X obj 153 320 r erdradius;
#X obj 115 13 unpack f f;
#X obj -19 -56 inlet;
#X obj -19 -33 t l l;
#X obj 115 64 - \$1;
#X obj 170 67 - \$2;
#X obj 170 37 t f f;
#X obj 115 37 t f f;
#X obj 115 394 change;
#X obj 5 480 readsf~;
#X obj 5 514 *~;
#X obj 115 425 t f f;
#X obj 165 454 pipe 10;
#X obj 165 479 switch~;
#X msg 115 453 \$1 10;
#X obj 115 481 line~;
#X text 119 -8 Entfernung zwischen den 2 Punkten;
#X obj 5 537 throw~;
#X obj 5 388 loadbang;
#X obj 5 425 symbol \$3;
#X msg 67 396 bang;
#X obj 239 444 outlet;
#X text 52 541 sendet zu catch;
#X text 121 501 Pauseneinheit;
#X msg 5 450 open \$1.wav \, 1;
#X obj 115 372 < \$4;
#X obj 115 173 pow 2;
#X obj 170 174 pow 2;
#X obj 115 200 expr $f1 + ($f2 * $f3 * $f4);
#X obj 149 245 -;
#X msg 149 223 1 \$1;
#X obj 447 94 gemhead;
#X obj 447 247 circle 0.3;
#X obj 447 123 alpha;
#X obj 447 151 colorRGB 1 1 1 0.5;
#X obj 447 218 translateXYZ;
#X connect 0 0 5 0;
#X connect 1 0 42 0;
#X connect 2 0 43 0;
#X connect 3 0 44 2;
#X connect 4 0 44 3;
#X connect 5 0 1 0;
#X connect 6 0 7 0;
#X connect 7 0 2 0;
#X connect 8 0 3 0;
#X connect 9 0 4 0;
#X connect 10 0 13 0;
#X connect 11 0 10 0;
#X connect 12 0 10 1;
#X connect 13 0 15 0;
#X connect 15 0 41 0;
#X connect 16 0 15 1;
#X connect 17 0 23 0;
#X connect 17 1 22 0;
#X connect 18 0 19 0;
#X connect 19 0 14 0;
#X connect 19 1 17 0;
#X connect 20 0 0 0;
#X connect 21 0 6 0;
#X connect 22 0 21 0;
#X connect 22 1 9 0;
#X connect 23 0 20 0;
#X connect 23 1 8 0;
#X connect 24 0 27 0;
#X connect 24 0 37 0;
#X connect 25 0 26 0;
#X connect 25 1 36 0;
#X connect 26 0 33 0;
#X connect 27 0 30 0;
#X connect 27 1 28 0;
#X connect 28 0 29 0;
#X connect 30 0 31 0;
#X connect 31 0 26 1;
#X connect 34 0 35 0;
#X connect 35 0 40 0;
#X connect 36 0 35 0;
#X connect 40 0 25 0;
#X connect 41 0 24 0;
#X connect 42 0 44 0;
#X connect 43 0 44 1;
#X connect 44 0 11 0;
#X connect 44 0 46 0;
#X connect 45 0 12 0;
#X connect 46 0 45 0;
#X connect 47 0 49 0;
#X connect 49 0 50 0;
#X connect 50 0 51 0;
#X connect 51 0 48 0;
