#N canvas 339 156 488 684 10;
#X obj 41 249 loca.point 50.9763 11.3334 sound1 40;
#X text 91 180 \$1= Latitude \$2= Longitude \$3= soundfile \$4= radius
in meter;
#X text 47 218 Inlet: coordinates list: lat lon;
#X text 40 278 Outlet: coordinates list: lat lon;
