#N canvas 915 951 767 605 10;
#X text 69 19 Equirectangular approximation formula;
#X obj 95 74 inlet;
#X obj 95 554 outlet;
#X obj 95 101 unpack f f;
#X text 415 73 var x = (long2-long1) * Math.cos((lat1+lat2)/2) \; var
y = (lat2-lat1) \; var d = Math.sqrt(x*x + y*y) * R \;;
#X obj 143 163 f \$1;
#X obj 207 160 f \$2;
#X obj 95 199 deg2rad;
#X obj 259 199 deg2rad;
#X obj 144 199 deg2rad;
#X obj 207 200 deg2rad;
#X obj 207 313 -;
#X obj 95 345 *;
#X obj 95 305 cos;
#X obj 95 125 t f b;
#X obj 95 257 +;
#X obj 95 281 / 2;
#X obj 144 226 t f f;
#X obj 95 225 t f f;
#X obj 140 344 -;
#X obj 140 281 pack f f;
#X msg 140 312 \$2 \$1;
#X obj 207 133 t b f;
#X obj 95 451 sqrt;
#X obj 95 423 +;
#X obj 194 74 inlet;
#X obj 267 74 inlet;
#X obj 95 484 * 6.3728e+06;
#X obj 95 368 t f f;
#X obj 95 392 *;
#X obj 140 369 t f f;
#X obj 140 392 *;
#X text 166 537 distance in m;
#X connect 1 0 3 0;
#X connect 3 0 14 0;
#X connect 3 1 22 0;
#X connect 5 0 9 0;
#X connect 6 0 10 0;
#X connect 7 0 18 0;
#X connect 8 0 11 1;
#X connect 9 0 17 0;
#X connect 10 0 11 0;
#X connect 11 0 12 1;
#X connect 12 0 28 0;
#X connect 13 0 12 0;
#X connect 14 0 7 0;
#X connect 14 1 5 0;
#X connect 15 0 16 0;
#X connect 16 0 13 0;
#X connect 17 0 15 1;
#X connect 17 1 20 1;
#X connect 18 0 15 0;
#X connect 18 1 20 0;
#X connect 19 0 30 0;
#X connect 20 0 21 0;
#X connect 21 0 19 0;
#X connect 22 0 6 0;
#X connect 22 1 8 0;
#X connect 23 0 27 0;
#X connect 24 0 23 0;
#X connect 25 0 5 1;
#X connect 26 0 6 1;
#X connect 27 0 2 0;
#X connect 28 0 29 0;
#X connect 28 1 29 1;
#X connect 29 0 24 0;
#X connect 30 0 31 0;
#X connect 30 1 31 1;
#X connect 31 0 24 1;
