#N canvas 2177 367 718 805 10;
#X obj 24 775 outlet;
#X obj 24 21 inlet;
#X obj 93 444 change;
#X obj 286 496 outlet;
#X obj 390 61 gemhead;
#X obj 390 322 alpha;
#X obj 554 323 loca.norm2gem;
#X obj 554 344 unpack f f;
#X obj 390 390 translateXYZ 0 0 0.001;
#X obj 390 182 t a b;
#X obj 390 25 inlet;
#X obj 390 533 circle 0.3;
#X obj 93 422 < \$6;
#X obj 93 148 list prepend;
#X obj 93 172 route 0 1;
#X obj 123 300 loca.precision-distance \$1 \$2 \$3 \$4;
#X obj 554 278 loca.latlon-merge;
#X obj 554 229 list \$1 \$2 \$3 \$4;
#X obj 447 442 \$6;
#X obj 162 97 v loca.precision-mode;
#X obj 24 51 t l l b;
#X obj 162 122 change;
#X obj 474 484 v loca.scale;
#X obj 447 464 t f b;
#X obj 390 423 t a b;
#X obj 447 506 / 300;
#X obj 93 340 loca.haversine \$1 \$2 \$3 \$4;
#X obj 554 302 loca.latlon2norm;
#X obj 568 485 loadbang;
#X msg 568 505 draw line \, width 3;
#X obj 390 343 colorRGB 0.5 0.5 0 0.3;
#X obj 95 474 sel 1 0;
#X obj 241 775 s toGUI;
#X msg 241 753 list /displayLabel16 triggered file: \$1;
#X obj 244 668 symbol \$5;
#X obj 275 725 print;
#X obj 62 95 spigot 1;
#X msg 276 700 circle triggered file: \$1;
#X msg 59 639 open \$1.wav \, 1;
#N canvas 1271 403 450 300 once 0;
#X obj 50 44 inlet;
#X obj 54 133 spigot 1;
#X obj 53 164 t b b;
#X msg 133 125 0;
#X obj 52 207 outlet;
#X obj 187 56 inlet;
#X msg 187 78 1;
#X connect 0 0 1 0;
#X connect 1 0 2 0;
#X connect 2 0 4 0;
#X connect 2 1 3 0;
#X connect 3 0 1 1;
#X connect 5 0 6 0;
#X connect 6 0 1 1;
#X restore 82 562 pd once;
#X obj 59 669 readsf~ 2;
#X obj 59 726 throw~ R;
#X obj 118 725 throw~ L;
#X obj 58 699 *~;
#X obj 175 664 line~;
#X obj 118 700 *~;
#X obj 76 587 t a b;
#X msg 175 636 0 \, 1 10;
#X obj 59 614 symbol \$5;
#X text 94 6 trigger when touching area of ring;
#X connect 1 0 20 0;
#X connect 2 0 3 0;
#X connect 2 0 31 0;
#X connect 4 0 9 0;
#X connect 5 0 30 0;
#X connect 6 0 7 0;
#X connect 7 0 8 1;
#X connect 7 1 8 2;
#X connect 8 0 24 0;
#X connect 9 0 5 0;
#X connect 9 1 17 0;
#X connect 10 0 4 0;
#X connect 10 0 36 1;
#X connect 12 0 2 0;
#X connect 13 0 14 0;
#X connect 14 0 26 0;
#X connect 14 1 15 0;
#X connect 15 0 12 0;
#X connect 16 0 27 0;
#X connect 17 0 16 0;
#X connect 18 0 23 0;
#X connect 19 0 21 0;
#X connect 20 0 0 0;
#X connect 20 1 36 0;
#X connect 20 2 19 0;
#X connect 21 0 13 1;
#X connect 22 0 25 1;
#X connect 23 0 25 0;
#X connect 23 1 22 0;
#X connect 24 0 11 0;
#X connect 24 1 18 0;
#X connect 25 0 11 1;
#X connect 26 0 12 0;
#X connect 27 0 6 0;
#X connect 28 0 29 0;
#X connect 29 0 11 0;
#X connect 30 0 8 0;
#X connect 31 0 34 0;
#X connect 31 0 39 0;
#X connect 33 0 32 0;
#X connect 34 0 33 0;
#X connect 34 0 37 0;
#X connect 36 0 13 0;
#X connect 37 0 35 0;
#X connect 38 0 40 0;
#X connect 39 0 46 0;
#X connect 40 0 43 0;
#X connect 40 1 45 0;
#X connect 40 2 39 1;
#X connect 43 0 41 0;
#X connect 44 0 43 1;
#X connect 44 0 45 1;
#X connect 45 0 42 0;
#X connect 46 0 48 0;
#X connect 46 1 47 0;
#X connect 47 0 44 0;
#X connect 48 0 38 0;
