#N canvas 667 433 586 396 10;
#X text 207 268 converts lat long to x y coordinates in 0 to 1 range
;
#X obj 349 57 loca.gemwin;
#X obj 60 233 pack f f;
#X obj 60 297 unpack f f;
#X floatatom 117 325 5 0 0 0 Y - -, f 5;
#X floatatom 60 324 5 0 0 0 X - -, f 5;
#X obj 51 261 cnv 15 120 28 empty empty empty 20 12 0 14 -258113 -66577
0;
#X obj 60 266 loca.latlon2norm;
#X msg 60 25 0;
#X obj 60 61 text get loca.map;
#X obj 60 86 unpack f f f f;
#X obj 141 147 -;
#X obj 114 126 t f f;
#X obj 114 203 +;
#X obj 87 147 -;
#X obj 60 126 t f f;
#X obj 87 175 / 2;
#X obj 60 202 +;
#X obj 141 175 / 3.33;
#X text 115 26 lat long;
#X connect 2 0 7 0;
#X connect 3 0 5 0;
#X connect 3 1 4 0;
#X connect 7 0 3 0;
#X connect 8 0 9 0;
#X connect 9 0 10 0;
#X connect 10 0 15 0;
#X connect 10 1 14 1;
#X connect 10 2 12 0;
#X connect 10 3 11 1;
#X connect 11 0 18 0;
#X connect 12 0 13 0;
#X connect 12 1 11 0;
#X connect 13 0 2 1;
#X connect 14 0 16 0;
#X connect 15 0 17 0;
#X connect 15 1 14 0;
#X connect 16 0 17 1;
#X connect 17 0 2 0;
#X connect 18 0 13 1;
