#N canvas 426 368 621 349 10;
#X obj 296 63 gemmouse;
#X obj 318 88 sel 1;
#X obj 101 114 cnv 15 128 45 empty empty empty 20 12 0 14 -262144 -66577
0;
#X obj 111 78 unpack f f;
#X floatatom 111 131 6 0 0 0 - - -, f 6;
#X floatatom 168 131 6 0 0 0 - - -, f 6;
#X msg 160 180 set \$1;
#X obj 160 160 f;
#X msg 111 180 set \$1;
#X obj 114 159 f;
#X obj 111 227 outlet;
#X obj 160 227 outlet;
#X obj 111 50 inlet;
#X connect 0 2 1 0;
#X connect 1 0 7 0;
#X connect 1 0 9 0;
#X connect 3 0 4 0;
#X connect 3 1 5 0;
#X connect 4 0 9 1;
#X connect 5 0 7 1;
#X connect 6 0 11 0;
#X connect 7 0 6 0;
#X connect 8 0 10 0;
#X connect 9 0 8 0;
#X connect 12 0 3 0;
#X coords 0 -1 1 1 130 60 1 100 100;
