#N canvas 2149 339 1495 808 10;
#X obj 48 33 inlet;
#X obj 48 59 t l l;
#X obj 48 682 outlet;
#X obj 330 123 symbol \$1;
#X obj 330 150 sel n s w e;
#X obj 330 91 loadbang;
#X obj 127 182 unpack f f;
#X obj 127 249 > \$2;
#X obj 169 249 < \$2;
#X obj 127 211 t f f;
#X obj 199 215 t f f;
#X obj 131 301 pack f f f f;
#X msg 136 336 \$1;
#X msg 330 187 1;
#X msg 360 186 2;
#X msg 400 185 3;
#X msg 432 184 4;
#X msg 328 223 set \, adddollar \$1;
#X obj 628 57 inlet;
#X obj 97 93 spigot 1;
#X obj 628 110 gemhead;
#X obj 628 193 alpha;
#X obj 629 555 curve 2;
#X obj 628 269 colorRGB 1 0 1 0.3;
#X obj 774 420 loca.norm2gem;
#X obj 637 442 loadbang;
#X msg 636 466 width 3 \, draw line;
#X obj 904 417 loca.norm2gem;
#X msg 904 471 \$1 \$2 0.001;
#X obj 774 376 loca.latlon2norm;
#X obj 775 195 text get loca.map;
#X obj 775 221 unpack f f f f f f f f;
#X obj 628 144 t a b;
#X obj 903 345 loca.latlon-merge;
#X msg 775 153 1;
#X obj 904 379 loca.latlon2norm;
#X obj 216 251 < \$2;
#X obj 257 251 > \$2;
#X obj 774 344 loca.latlon-merge;
#X obj 904 285 pack f f f f f;
#X obj 775 287 pack f f f f f;
#X obj 979 218 f \$2;
#X obj 979 166 loadbang;
#X msg 997 192 bang;
#X msg 775 312 \$1 \$5 \$3 \$4;
#X msg 904 314 \$1 \$5 \$3 \$4;
#X msg 774 475 \$1 \$2 0.001;
#X msg 1033 254 set \, adddollar 1 \, adddollar 5 \, adddollar 3 \,
adddollar 4;
#X msg 1032 279 set \, adddollar 1 \, adddollar 2 \, adddollar 3 \,
adddollar 5;
#X obj 222 418 change;
#X obj 112 553 *~;
#X obj 222 449 t f f;
#X obj 222 505 line~;
#X obj 112 412 loadbang;
#X msg 184 422 bang;
#X obj 377 481 outlet;
#X msg 112 474 open \$1.wav \, 1;
#X obj 112 504 readsf~ 2;
#X obj 112 576 throw~ R;
#X obj 175 577 throw~ L;
#X obj 176 555 *~;
#X obj 247 622 switch~;
#X msg 222 477 \$1 300;
#X obj 335 499 > 0;
#X obj 355 672 s toGUI;
#X msg 355 642 list /displayLabel16 triggered file: \$1;
#X obj 401 617 print;
#X obj 352 545 sel 1;
#X obj 112 449 symbol \$3;
#X obj 351 570 symbol \$3;
#X msg 402 595 horizon triggered file: \$1;
#X connect 0 0 1 0;
#X connect 1 0 2 0;
#X connect 1 1 19 0;
#X connect 3 0 4 0;
#X connect 4 0 13 0;
#X connect 4 1 14 0;
#X connect 4 2 15 0;
#X connect 4 3 16 0;
#X connect 5 0 3 0;
#X connect 6 0 9 0;
#X connect 6 1 10 0;
#X connect 7 0 11 0;
#X connect 8 0 11 1;
#X connect 9 0 7 0;
#X connect 9 1 8 0;
#X connect 10 0 36 0;
#X connect 10 1 37 0;
#X connect 11 0 12 0;
#X connect 12 0 49 0;
#X connect 13 0 17 0;
#X connect 13 0 47 0;
#X connect 14 0 17 0;
#X connect 14 0 47 0;
#X connect 15 0 17 0;
#X connect 15 0 48 0;
#X connect 16 0 17 0;
#X connect 16 0 48 0;
#X connect 17 0 12 0;
#X connect 18 0 20 0;
#X connect 18 0 19 1;
#X connect 19 0 6 0;
#X connect 20 0 32 0;
#X connect 21 0 23 0;
#X connect 23 0 22 0;
#X connect 24 0 46 0;
#X connect 25 0 26 0;
#X connect 26 0 22 0;
#X connect 27 0 28 0;
#X connect 28 0 22 2;
#X connect 29 0 24 0;
#X connect 30 0 31 0;
#X connect 31 0 40 0;
#X connect 31 1 40 1;
#X connect 31 2 39 0;
#X connect 31 3 39 1;
#X connect 31 4 40 2;
#X connect 31 5 40 3;
#X connect 31 6 39 2;
#X connect 31 7 39 3;
#X connect 32 0 21 0;
#X connect 32 1 34 0;
#X connect 33 0 35 0;
#X connect 34 0 30 0;
#X connect 35 0 27 0;
#X connect 36 0 11 2;
#X connect 37 0 11 3;
#X connect 38 0 29 0;
#X connect 39 0 45 0;
#X connect 40 0 44 0;
#X connect 41 0 39 4;
#X connect 41 0 40 4;
#X connect 42 0 41 0;
#X connect 43 0 41 0;
#X connect 44 0 38 0;
#X connect 45 0 33 0;
#X connect 46 0 22 1;
#X connect 47 0 45 0;
#X connect 47 0 44 0;
#X connect 48 0 45 0;
#X connect 48 0 44 0;
#X connect 49 0 51 0;
#X connect 49 0 55 0;
#X connect 50 0 58 0;
#X connect 51 0 62 0;
#X connect 51 1 63 0;
#X connect 52 0 50 1;
#X connect 52 0 60 1;
#X connect 53 0 68 0;
#X connect 54 0 68 0;
#X connect 56 0 57 0;
#X connect 57 0 50 0;
#X connect 57 1 60 0;
#X connect 57 2 54 0;
#X connect 60 0 59 0;
#X connect 62 0 52 0;
#X connect 63 0 61 0;
#X connect 63 0 67 0;
#X connect 65 0 64 0;
#X connect 67 0 69 0;
#X connect 68 0 56 0;
#X connect 69 0 65 0;
#X connect 69 0 70 0;
#X connect 70 0 66 0;
