#N canvas 783 233 1024 654 10;
#X obj 24 29 inlet;
#X obj 24 546 outlet;
#X obj 51 186 unpack f f;
#X obj 133 339 >;
#X obj 53 221 t f f;
#X obj 179 340 <;
#X obj 223 335 >;
#X obj 112 219 t f f;
#X obj 272 336 <;
#X obj 140 400 +;
#X obj 236 404 +;
#X obj 140 431 +;
#X obj 140 456 > 3;
#X obj 24 488 spigot;
#X obj 24 157 t l l;
#X obj 499 37 list prepend;
#X obj 499 61 route 0 1;
#X obj 705 -12 v loca.precision-mode;
#X obj 705 13 change;
#X obj 495 6 list \$1 \$2 \$3 \$4 \$5 \$6 \$7 \$8;
#X obj 575 108 unpack f f f f f f f f;
#X obj 492 -45 loadbang;
#X obj 493 -21 t b b;
#X obj 307 90 unpack f f f f f f f f;
#X obj 307 153 loca.latlon-merge;
#X obj 439 153 loca.latlon-merge;
#X obj 307 131 pack f f f f;
#X obj 439 131 pack f f f f;
#X obj 439 173 unpack f f;
#X obj 307 174 unpack f f;
#X obj 270 290 loca.range;
#X obj 186 289 loca.range;
#X connect 0 0 14 0;
#X connect 2 0 4 0;
#X connect 2 1 7 0;
#X connect 3 0 9 0;
#X connect 4 0 3 0;
#X connect 4 1 5 0;
#X connect 5 0 9 1;
#X connect 6 0 10 0;
#X connect 7 0 6 0;
#X connect 7 1 8 0;
#X connect 8 0 10 1;
#X connect 9 0 11 0;
#X connect 10 0 11 1;
#X connect 11 0 12 0;
#X connect 12 0 13 1;
#X connect 13 0 1 0;
#X connect 14 0 13 0;
#X connect 14 1 2 0;
#X connect 15 0 16 0;
#X connect 16 0 23 0;
#X connect 16 1 20 0;
#X connect 17 0 18 0;
#X connect 18 0 15 1;
#X connect 19 0 15 0;
#X connect 20 1 31 0;
#X connect 20 3 30 0;
#X connect 20 5 31 1;
#X connect 20 7 30 1;
#X connect 21 0 22 0;
#X connect 22 0 19 0;
#X connect 22 1 17 0;
#X connect 23 0 26 0;
#X connect 23 1 26 1;
#X connect 23 2 26 2;
#X connect 23 3 26 3;
#X connect 23 4 27 0;
#X connect 23 5 27 1;
#X connect 23 6 27 2;
#X connect 23 7 27 3;
#X connect 24 0 29 0;
#X connect 25 0 28 0;
#X connect 26 0 24 0;
#X connect 27 0 25 0;
#X connect 28 0 31 1;
#X connect 28 1 30 1;
#X connect 29 0 31 0;
#X connect 29 1 30 0;
#X connect 30 0 6 1;
#X connect 30 1 8 1;
#X connect 31 0 3 1;
#X connect 31 1 5 1;
