#N canvas 991 215 600 532 10;
#X obj 56 64 inlet;
#X obj 56 338 outlet;
#X obj 276 89 colorRGB 1 0 0;
#X obj 276 66 gemhead 30;
#X obj 276 334 circle 0.05;
#X obj 276 309 translateXYZ 0 0 0.001;
#X obj 319 115 gemmouse;
#X floatatom 493 228 5 0 0 0 - - -, f 5;
#X floatatom 504 208 5 0 0 0 - - -, f 5;
#X floatatom 517 188 5 0 0 0 - - -, f 5;
#X floatatom 527 171 5 0 0 0 - - -, f 5;
#X floatatom 537 151 5 0 0 0 - - -, f 5;
#X obj 319 177 pack f f;
#X obj 319 286 unpack f f;
#X obj 318 197 loca.pix2norm;
#X obj 93 291 loca.norm2latlon;
#X obj 319 264 loca.norm2gem;
#X obj 318 217 t l l;
#X connect 0 0 1 0;
#X connect 2 0 5 0;
#X connect 3 0 2 0;
#X connect 5 0 4 0;
#X connect 6 0 7 0;
#X connect 6 0 12 0;
#X connect 6 1 8 0;
#X connect 6 1 12 1;
#X connect 6 2 9 0;
#X connect 6 3 10 0;
#X connect 6 4 11 0;
#X connect 12 0 14 0;
#X connect 13 0 5 1;
#X connect 13 1 5 2;
#X connect 14 0 17 0;
#X connect 15 0 1 0;
#X connect 16 0 13 0;
#X connect 17 0 15 0;
#X connect 17 1 16 0;
