#N canvas 886 385 907 621 10;
#X obj 103 59 inlet;
#X msg 360 60 0;
#X obj 360 112 text get loca.map;
#X obj 360 145 unpack f f f f;
#X obj 103 105 unpack f f;
#X obj 103 433 outlet;
#X obj 103 376 pack f f;
#X obj 360 28 loadbang;
#X obj 175 163 r loca.gem.pix.height;
#X obj 118 140 r loca.gem.pix.width;
#X obj 103 184 /;
#X obj 160 189 /;
#X obj 372 213 -;
#X obj 426 214 -;
#X obj 345 180 t f f;
#X obj 399 182 t f f;
#X obj 103 320 +;
#X obj 160 321 +;
#X obj 103 268 *;
#X obj 160 270 *;
#X connect 0 0 4 0;
#X connect 1 0 2 0;
#X connect 2 0 3 0;
#X connect 3 0 14 0;
#X connect 3 1 12 1;
#X connect 3 2 15 0;
#X connect 3 3 13 1;
#X connect 4 0 10 0;
#X connect 4 1 11 0;
#X connect 6 0 5 0;
#X connect 7 0 1 0;
#X connect 8 0 11 1;
#X connect 9 0 10 1;
#X connect 10 0 18 0;
#X connect 11 0 19 0;
#X connect 12 0 19 1;
#X connect 13 0 18 1;
#X connect 14 0 17 1;
#X connect 14 1 12 0;
#X connect 15 0 16 1;
#X connect 15 1 13 0;
#X connect 16 0 6 0;
#X connect 17 0 6 1;
#X connect 18 0 16 0;
#X connect 19 0 17 0;
