#N canvas 1010 431 907 621 10;
#X obj 103 59 inlet;
#X msg 272 82 0;
#X obj 272 134 text get loca.map;
#X obj 272 167 unpack f f f f;
#X obj 103 105 unpack f f;
#X obj 103 433 outlet;
#X obj 103 376 pack f f;
#X obj 298 243 -;
#X obj 353 243 -;
#X obj 272 209 t f f;
#X obj 326 211 t f f;
#X obj 103 320 +;
#X obj 103 268 *;
#X obj 160 270 *;
#X obj 272 50 r loca.getloc;
#X msg 103 401 \$2 \$1;
#X floatatom 337 322 15 0 0 0 - - -, f 15;
#X floatatom 368 298 15 0 0 0 - - -, f 15;
#X obj 329 270 abs;
#X floatatom 199 404 15 0 0 0 - - -, f 15;
#X floatatom 230 380 15 0 0 0 - - -, f 15;
#X obj 160 321 +;
#X obj 273 291 * -1;
#X connect 0 0 4 0;
#X connect 1 0 2 0;
#X connect 2 0 3 0;
#X connect 3 0 9 0;
#X connect 3 1 7 1;
#X connect 3 2 10 0;
#X connect 3 3 8 1;
#X connect 4 0 12 0;
#X connect 4 1 13 0;
#X connect 6 0 15 0;
#X connect 7 0 16 0;
#X connect 7 0 22 0;
#X connect 8 0 17 0;
#X connect 8 0 18 0;
#X connect 9 0 21 1;
#X connect 9 1 7 0;
#X connect 10 0 11 1;
#X connect 10 1 8 0;
#X connect 11 0 6 0;
#X connect 11 0 19 0;
#X connect 12 0 11 0;
#X connect 13 0 21 0;
#X connect 14 0 1 0;
#X connect 15 0 5 0;
#X connect 18 0 12 1;
#X connect 21 0 6 1;
#X connect 21 0 20 0;
#X connect 22 0 13 1;
