#N canvas 2046 653 856 642 10;
#X obj 120 556 gemwin;
#X msg 212 499 0 \, destroy;
#X floatatom 120 119 5 0 0 0 x: - -, f 5;
#X obj 120 246 pack f f;
#X obj 165 211 t f b;
#X msg 120 73 800;
#X msg 120 311 dimen \$1 \$2;
#X obj 116 139 hsl 55 20 0 127 0 0 empty empty empty -2 -8 0 10 -262144
-262144 -262144 3100 0;
#X obj 113 139 cnv 15 60 20 empty \$0-createdestroy destroy 5 11 0
11 -261681 -33289 0;
#X obj 208 256 f 0;
#X obj 234 256 == 0;
#X obj 304 497 s \$0-createdestroy;
#X msg 307 472 label create \, color 6 12;
#X msg 278 422 label destroy \, color 4 12;
#X obj 208 277 sel 0 1;
#X obj 314 399 s loca.gem.pix.width;
#X obj 341 377 s loca.gem.pix.height;
#X obj 314 378 f;
#X obj 341 357 f;
#X obj 227 348 t b b;
#X obj 157 116 cnv 15 35 20 empty \$0-yreslabel y:716 2 11 0 10 -262144
-1 0;
#X obj 647 363 pix_texture;
#X obj 647 279 gemhead 10;
#X obj 647 604 rectangle 4 4;
#X obj 647 386 pix_info;
#X obj 684 430 /;
#X msg 722 514 4;
#X obj 647 338 pix_image Yeungnam.png;
#X obj 684 481 t f b;
#X obj 684 536 *;
#X obj 691 571 s loca.gem.width;
#X obj 741 548 s loca.gem.height;
#X obj 700 456 s \$0-aspect-ratio;
#X obj 220 6 r \$0-aspect-ratio;
#X obj 232 146 /;
#X obj 278 289 s \$0-yreslabel;
#X obj 348 221 int;
#X obj 348 201 + 0.5;
#X msg 278 267 label y:\$1;
#X obj 579 275 openpanel;
#X msg 579 300 open \$1;
#X obj 114 167 bng 15 250 50 0 empty empty load_map 17 7 0 10 -262144
-1 -1;
#X obj 220 31 t b f;
#X obj 307 448 loadbang;
#N canvas 2642 459 450 300 once 0;
#X obj 104 39 inlet;
#X obj 104 61 spigot 1;
#X obj 104 83 t b b;
#X obj 104 105 outlet;
#X msg 162 60 0;
#X connect 0 0 1 0;
#X connect 1 0 2 0;
#X connect 2 0 3 0;
#X connect 2 1 4 0;
#X connect 4 0 1 1;
#X restore 120 52 pd once;
#X obj 29 432 loadbang;
#X msg 29 457 dimen 800 600;
#X obj 15 55 loadbang;
#X msg 15 81 set 800;
#X obj 208 211 t b b;
#X obj 235 233 s \$0-size_set;
#X obj 150 74 r \$0-size_set;
#X obj 208 299 t b b b b;
#X msg 169 468 create \, 1;
#X obj 348 241 t f f;
#X connect 1 0 0 0;
#X connect 2 0 3 0;
#X connect 2 0 34 0;
#X connect 2 0 17 1;
#X connect 3 0 6 0;
#X connect 4 0 3 1;
#X connect 4 1 3 0;
#X connect 5 0 2 0;
#X connect 6 0 0 0;
#X connect 7 0 49 0;
#X connect 9 0 10 0;
#X connect 9 0 14 0;
#X connect 10 0 9 1;
#X connect 12 0 11 0;
#X connect 13 0 11 0;
#X connect 14 0 52 0;
#X connect 14 1 19 0;
#X connect 17 0 15 0;
#X connect 18 0 16 0;
#X connect 19 0 1 0;
#X connect 19 1 12 0;
#X connect 21 0 24 0;
#X connect 22 0 27 0;
#X connect 24 0 23 0;
#X connect 24 1 25 0;
#X connect 24 2 25 1;
#X connect 25 0 28 0;
#X connect 25 0 32 0;
#X connect 26 0 23 2;
#X connect 26 0 29 1;
#X connect 26 0 31 0;
#X connect 27 0 21 0;
#X connect 28 0 29 0;
#X connect 28 1 26 0;
#X connect 29 0 23 1;
#X connect 29 0 30 0;
#X connect 33 0 42 0;
#X connect 34 0 4 0;
#X connect 34 0 37 0;
#X connect 36 0 54 0;
#X connect 37 0 36 0;
#X connect 38 0 35 0;
#X connect 39 0 40 0;
#X connect 40 0 27 0;
#X connect 41 0 39 0;
#X connect 42 0 44 0;
#X connect 42 1 34 1;
#X connect 43 0 12 0;
#X connect 44 0 5 0;
#X connect 45 0 46 0;
#X connect 46 0 0 0;
#X connect 47 0 48 0;
#X connect 48 0 2 0;
#X connect 49 0 9 0;
#X connect 49 1 50 0;
#X connect 51 0 2 0;
#X connect 52 0 17 0;
#X connect 52 1 18 0;
#X connect 52 2 53 0;
#X connect 52 3 13 0;
#X connect 53 0 0 0;
#X connect 54 0 38 0;
#X connect 54 1 18 1;
#X coords 0 -1 1 1 100 100 1 100 100;
