#N canvas 520 559 614 388 10;
#X obj 57 48 inlet;
#X obj 57 234 outlet;
#X obj 57 209 sqrt;
#X obj 57 181 +;
#X obj 57 126 t f f;
#X obj 57 150 *;
#X obj 114 125 t f f;
#X obj 114 148 *;
#X obj 57 72 unpack f f;
#X obj 57 100 - \$2;
#X obj 114 102 - \$4;
#X connect 0 0 8 0;
#X connect 2 0 1 0;
#X connect 3 0 2 0;
#X connect 4 0 5 0;
#X connect 4 1 5 1;
#X connect 5 0 3 0;
#X connect 6 0 7 0;
#X connect 6 1 7 1;
#X connect 7 0 3 1;
#X connect 8 0 9 0;
#X connect 8 1 10 0;
#X connect 9 0 4 0;
#X connect 10 0 6 0;
