#N canvas 713 518 688 480 10;
#X obj 30 25 inlet;
#X msg 199 74 1;
#X obj 199 100 text get loca.map;
#X obj 30 71 unpack f f;
#X obj 30 455 outlet;
#X obj 30 398 pack f f;
#X obj 226 245 -;
#X obj 280 245 -;
#X obj 199 220 t f f;
#X obj 253 222 t f f;
#X obj 30 368 +;
#X obj 31 280 *;
#X obj 88 293 *;
#X obj 199 16 r loca.getloc;
#X msg 30 423 \$2 \$1;
#X obj 280 270 abs;
#X obj 87 369 +;
#X obj 226 269 * -1;
#X obj 290 14 r loca.precision-mode;
#X msg 277 60 set \$1;
#X obj 290 36 t b f f;
#X obj 345 212 unpack f f f f f f f f;
#X obj 199 189 unpack f f f f;
#X obj 391 271 -;
#X obj 460 271 -;
#X obj 364 246 t f f;
#X obj 433 248 t f f;
#X obj 460 296 abs;
#X obj 391 295 * -1;
#X obj 439 356 s \$0-x-add;
#X obj 260 328 s \$0-x-add;
#X obj 46 326 r \$0-x-add;
#X obj 120 326 r \$0-y-add;
#X obj 190 329 s \$0-y-add;
#X obj 367 359 s \$0-y-add;
#X obj 201 299 s \$0-y-mult;
#X obj 382 326 s \$0-y-mult;
#X obj 107 259 r \$0-y-mult;
#X obj 44 233 r \$0-x-mult;
#X obj 276 298 s \$0-x-mult;
#X obj 460 326 s \$0-x-mult;
#X obj 253 133 list prepend;
#X obj 253 157 route 0 1;
#X connect 0 0 3 0;
#X connect 1 0 2 0;
#X connect 2 0 41 0;
#X connect 3 0 11 0;
#X connect 3 1 12 0;
#X connect 5 0 14 0;
#X connect 6 0 17 0;
#X connect 7 0 15 0;
#X connect 8 0 33 0;
#X connect 8 1 6 0;
#X connect 9 0 30 0;
#X connect 9 1 7 0;
#X connect 10 0 5 0;
#X connect 11 0 10 0;
#X connect 12 0 16 0;
#X connect 13 0 1 0;
#X connect 14 0 4 0;
#X connect 15 0 39 0;
#X connect 16 0 5 1;
#X connect 17 0 35 0;
#X connect 18 0 20 0;
#X connect 19 0 1 0;
#X connect 20 0 1 0;
#X connect 20 1 19 0;
#X connect 20 2 41 1;
#X connect 21 1 25 0;
#X connect 21 3 23 1;
#X connect 21 5 26 0;
#X connect 21 7 24 1;
#X connect 22 0 8 0;
#X connect 22 1 6 1;
#X connect 22 2 9 0;
#X connect 22 3 7 1;
#X connect 23 0 28 0;
#X connect 24 0 27 0;
#X connect 25 0 34 0;
#X connect 25 1 23 0;
#X connect 26 0 29 0;
#X connect 26 1 24 0;
#X connect 27 0 40 0;
#X connect 28 0 36 0;
#X connect 31 0 10 1;
#X connect 32 0 16 1;
#X connect 37 0 12 1;
#X connect 38 0 11 1;
#X connect 41 0 42 0;
#X connect 42 0 22 0;
#X connect 42 1 21 0;
