#N canvas 67 185 907 621 10;
#X obj 102 59 inlet;
#X msg 360 60 0;
#X obj 360 112 text get loca.map;
#X obj 360 145 unpack f f f f;
#X obj 102 105 unpack f f;
#X obj 104 452 outlet;
#X obj 104 391 pack f f;
#X obj 372 213 -;
#X obj 438 217 -;
#X obj 345 183 t f f;
#X obj 411 185 t f f;
#X obj 102 317 /;
#X obj 159 319 /;
#X obj 159 256 -;
#X obj 102 255 -;
#X floatatom 173 158 20 0 0 0 - - -, f 20;
#X msg 104 420 \$2 \$1;
#X floatatom 355 335 20 0 0 0 - - -, f 20;
#X floatatom 222 330 20 0 0 0 - - -, f 20;
#X floatatom 433 300 20 0 0 0 - - -, f 20;
#X floatatom 326 290 20 0 0 0 - - -, f 20;
#X floatatom 189 375 20 0 0 0 - - -, f 20;
#X obj 149 358 abs;
#X obj 360 28 r loca.getloc;
#X connect 0 0 4 0;
#X connect 1 0 2 0;
#X connect 2 0 3 0;
#X connect 3 0 9 0;
#X connect 3 1 7 1;
#X connect 3 2 10 0;
#X connect 3 3 8 1;
#X connect 4 0 14 0;
#X connect 4 1 13 0;
#X connect 4 1 15 0;
#X connect 6 0 16 0;
#X connect 7 0 11 1;
#X connect 7 0 20 0;
#X connect 8 0 12 1;
#X connect 8 0 19 0;
#X connect 9 0 14 1;
#X connect 9 1 7 0;
#X connect 10 0 13 1;
#X connect 10 0 17 0;
#X connect 10 1 8 0;
#X connect 11 0 6 0;
#X connect 12 0 22 0;
#X connect 13 0 12 0;
#X connect 13 0 18 0;
#X connect 14 0 11 0;
#X connect 14 0 21 0;
#X connect 16 0 5 0;
#X connect 22 0 6 1;
#X connect 23 0 1 0;
