#N canvas 2280 350 718 808 10;
#X obj 24 690 outlet;
#X obj 24 21 inlet;
#X obj 48 647 *~;
#X obj 158 599 line~;
#X obj 48 506 loadbang;
#X msg 120 516 bang;
#X obj 290 651 outlet;
#X msg 48 568 open \$1.wav \, 1;
#X obj 366 70 gemhead;
#X obj 366 331 alpha;
#X text 94 6 Distance between given point and current loc;
#X obj 480 331 loca.norm2gem;
#X obj 480 352 unpack f f;
#X obj 366 399 translateXYZ 0 0 0.001;
#X obj 366 352 colorRGB 0 0 1 0.3;
#X obj 366 191 t a b;
#X obj 366 29 inlet;
#X obj 480 310 loca.latlon2norm;
#X obj 366 542 circle 0.3;
#X obj 48 598 readsf~ 2;
#X obj 48 670 throw~ R;
#X obj 111 671 throw~ L;
#X obj 112 649 *~;
#X obj 43 529 symbol \$5;
#X obj 93 125 list prepend;
#X obj 93 149 route 0 1;
#X obj 480 284 loca.latlon-merge;
#X obj 480 258 list \$1 \$2 \$3 \$4;
#X obj 423 451 \$6;
#X obj 162 74 v loca.precision-mode;
#X obj 24 51 t l l b;
#X obj 162 99 change;
#X obj 449 493 v loca.scale;
#X obj 423 473 t f b;
#X obj 366 432 t a b;
#X obj 183 737 switch~;
#X obj 423 515 / 300;
#X obj 158 429 / \$6;
#X obj 118 317 loca.precision-distance \$1 \$2 \$3 \$4;
#X obj 93 374 loca.haversine \$1 \$2 \$3 \$4;
#X obj 158 453 clip 0 1;
#X obj 158 478 * -1;
#X obj 158 500 + 1, f 7;
#X obj 158 522 change;
#X obj 158 543 t f f;
#X obj 211 583 > 0;
#X obj 378 760 s toGUI;
#X msg 378 738 list /displayLabel16 triggered file: \$1;
#X obj 378 672 symbol \$5;
#X obj 378 647 sel 1;
#X obj 410 713 print;
#X obj 291 614 change;
#X msg 158 571 \$1 50;
#X obj 70 88 spigot 1;
#X msg 410 692 point triggered file: \$1;
#X connect 1 0 30 0;
#X connect 2 0 20 0;
#X connect 3 0 2 1;
#X connect 3 0 22 1;
#X connect 4 0 23 0;
#X connect 5 0 23 0;
#X connect 7 0 19 0;
#X connect 8 0 15 0;
#X connect 9 0 14 0;
#X connect 11 0 12 0;
#X connect 12 0 13 1;
#X connect 12 1 13 2;
#X connect 13 0 34 0;
#X connect 14 0 13 0;
#X connect 15 0 9 0;
#X connect 15 1 27 0;
#X connect 16 0 8 0;
#X connect 16 0 53 1;
#X connect 17 0 11 0;
#X connect 19 0 2 0;
#X connect 19 1 22 0;
#X connect 19 2 5 0;
#X connect 22 0 21 0;
#X connect 23 0 7 0;
#X connect 24 0 25 0;
#X connect 25 0 39 0;
#X connect 25 1 38 0;
#X connect 26 0 17 0;
#X connect 27 0 26 0;
#X connect 28 0 33 0;
#X connect 29 0 31 0;
#X connect 30 0 0 0;
#X connect 30 1 53 0;
#X connect 30 2 29 0;
#X connect 31 0 24 1;
#X connect 32 0 36 1;
#X connect 33 0 36 0;
#X connect 33 1 32 0;
#X connect 34 0 18 0;
#X connect 34 1 28 0;
#X connect 36 0 18 1;
#X connect 37 0 40 0;
#X connect 38 0 37 0;
#X connect 39 0 37 0;
#X connect 40 0 41 0;
#X connect 41 0 42 0;
#X connect 42 0 43 0;
#X connect 43 0 44 0;
#X connect 44 0 52 0;
#X connect 44 1 45 0;
#X connect 45 0 35 0;
#X connect 45 0 6 0;
#X connect 45 0 51 0;
#X connect 47 0 46 0;
#X connect 48 0 47 0;
#X connect 48 0 54 0;
#X connect 49 0 48 0;
#X connect 51 0 49 0;
#X connect 52 0 3 0;
#X connect 53 0 24 0;
#X connect 54 0 50 0;
