#N canvas 470 322 871 653 10;
#X obj 120 619 gemwin;
#X msg 424 573 0 \, destroy;
#X obj 120 246 pack f f;
#X msg 120 268 dimen \$1 \$2;
#X obj 307 285 f 0;
#X obj 333 285 == 0;
#X obj 452 618 s \$0-createdestroy;
#X msg 451 536 label create \, color 6 12;
#X msg 242 537 label destroy \, color 4 12;
#X obj 171 485 s loca.gem.pix.width;
#X obj 186 444 s loca.gem.pix.height;
#X obj 171 465 f;
#X obj 186 424 f;
#X obj 424 388 t b b;
#X obj 649 134 pix_texture;
#X obj 649 15 gemhead 10;
#X obj 649 375 rectangle 4 4;
#X obj 649 157 pix_info;
#X obj 686 201 /;
#X msg 724 285 4;
#X obj 649 109 pix_image Yeungnam.png;
#X obj 686 252 t f b;
#X obj 686 307 *;
#X obj 693 347 s loca.gem.width;
#X obj 743 324 s loca.gem.height;
#X obj -9 8 r \$0-aspect-ratio;
#X obj 3 151 /;
#X obj 18 349 s \$0-yreslabel;
#X obj 3 192 int;
#X obj 3 172 + 0.5;
#X msg 18 327 label y:\$1;
#X obj 660 62 openpanel;
#X msg 660 83 open \$1;
#X obj -9 29 t b f;
#X obj 461 510 loadbang;
#X obj 21 484 loadbang;
#X obj 120 9 loadbang;
#X msg 120 31 set 800;
#X msg 217 573 create \, 1;
#X obj 307 306 sel 0;
#X obj 171 386 t b b b b b;
#X obj 234 406 s loca.map.read;
#X obj 724 232 change;
#X obj 724 253 s \$0-aspect-ratio;
#X obj 3 212 t b f f b f;
#X obj 3 553 del 500;
#X msg 3 575 destroy \, create \, 1;
#X obj 307 263 t b;
#X text 173 341 on create:;
#X text 416 342 on destroy:;
#X obj 676 600 text define loca.map;
#X msg 676 451 read Yeungnam.world;
#X obj 649 430 t b b;
#X obj 649 620 s loca.getloc;
#X obj 649 409 r loca.map.read;
#X obj 660 41 r \$0-load-map;
#X obj 685 472 r \$0-load-world;
#X msg 712 544 read \$1;
#X obj 712 522 openpanel;
#X obj 101 114 cnv 15 98 85 empty empty empty 20 12 0 14 -262144 -66577
0;
#X floatatom 120 119 5 0 0 0 x: - -, f 5;
#X obj 116 139 hsl 55 20 0 127 0 0 empty empty empty -2 -8 0 10 -262144
-262144 -262144 1900 0;
#X obj 113 139 cnv 15 60 20 empty \$0-createdestroy destroy 5 11 0
11 -261681 -33289 0;
#X obj 157 116 cnv 15 35 20 empty \$0-yreslabel y:705 2 11 0 10 -262144
-1 0;
#X obj 114 167 bng 15 250 50 0 \$0-load-map empty load_map 17 7 0 10
-262144 -1 -1;
#X obj 114 181 bng 15 250 50 0 \$0-load-world empty load_world 17 7
0 10 -262144 -1 -1;
#X obj 685 495 t b b;
#X obj 685 573 s loca.map.read;
#X msg 21 509 dimen 800 600 \, FSAA 4;
#X connect 1 0 0 0;
#X connect 2 0 3 0;
#X connect 3 0 0 0;
#X connect 4 0 5 0;
#X connect 4 0 39 0;
#X connect 5 0 4 1;
#X connect 7 0 6 0;
#X connect 8 0 6 0;
#X connect 11 0 9 0;
#X connect 12 0 10 0;
#X connect 13 0 1 0;
#X connect 13 1 7 0;
#X connect 14 0 17 0;
#X connect 15 0 20 0;
#X connect 17 0 16 0;
#X connect 17 1 18 0;
#X connect 17 2 18 1;
#X connect 18 0 21 0;
#X connect 18 0 42 0;
#X connect 19 0 16 2;
#X connect 19 0 22 1;
#X connect 19 0 24 0;
#X connect 20 0 14 0;
#X connect 21 0 22 0;
#X connect 21 1 19 0;
#X connect 22 0 16 1;
#X connect 22 0 23 0;
#X connect 25 0 33 0;
#X connect 26 0 29 0;
#X connect 28 0 44 0;
#X connect 29 0 28 0;
#X connect 30 0 27 0;
#X connect 31 0 32 0;
#X connect 32 0 20 0;
#X connect 33 0 60 0;
#X connect 33 1 26 1;
#X connect 34 0 7 0;
#X connect 35 0 68 0;
#X connect 36 0 37 0;
#X connect 37 0 60 0;
#X connect 38 0 0 0;
#X connect 39 0 40 0;
#X connect 39 1 13 0;
#X connect 40 0 11 0;
#X connect 40 1 12 0;
#X connect 40 2 38 0;
#X connect 40 3 8 0;
#X connect 40 4 41 0;
#X connect 42 0 43 0;
#X connect 44 0 45 0;
#X connect 44 1 30 0;
#X connect 44 2 12 0;
#X connect 44 3 2 0;
#X connect 44 4 2 1;
#X connect 45 0 46 0;
#X connect 46 0 0 0;
#X connect 47 0 4 0;
#X connect 51 0 50 0;
#X connect 52 0 53 0;
#X connect 52 1 51 0;
#X connect 54 0 52 0;
#X connect 55 0 31 0;
#X connect 56 0 66 0;
#X connect 57 0 50 0;
#X connect 58 0 57 0;
#X connect 60 0 2 0;
#X connect 60 0 26 0;
#X connect 60 0 11 0;
#X connect 61 0 47 0;
#X connect 66 0 67 0;
#X connect 66 1 58 0;
#X connect 68 0 0 0;
#X coords 0 -1 1 1 100 100 1 100 100;
