#N canvas 520 203 1014 761 10;
#X obj 24 690 outlet;
#X obj 24 21 inlet;
#X obj 24 51 t l l;
#X msg 92 456 bang;
#X obj 277 656 outlet;
#X msg 48 568 open \$1.wav \, 1;
#X obj 463 54 gemhead;
#X obj 463 354 alpha;
#X text 77 677 sends to catch;
#X text 94 6 Distance between given point and current loc;
#X obj 595 394 loca.norm2gem;
#X obj 463 375 colorRGB 0 0 1 0.3;
#X obj 652 94 inlet;
#X obj 652 292 pack f f;
#X obj 690 94 inlet;
#X obj 690 257 t b f;
#X obj 948 33 inlet;
#X obj 595 373 loca.latlon2norm;
#X obj 473 399 loadbang;
#X obj 463 496 curve 2;
#X msg 472 423 width 3 \, draw line;
#X obj 706 394 loca.norm2gem;
#X obj 706 373 loca.latlon2norm;
#X msg 595 424 \$1 \$2 0.001;
#X msg 706 428 \$1 \$2 0.001;
#X obj 841 80 inlet;
#X obj 841 278 pack f f;
#X obj 880 80 inlet;
#X obj 880 243 t b f;
#X obj 463 175 t a b b;
#N canvas 1271 403 450 300 once 0;
#X obj 50 44 inlet;
#X obj 54 133 spigot 1;
#X obj 53 164 t b b;
#X msg 133 125 0;
#X obj 52 207 outlet;
#X obj 187 56 inlet;
#X msg 187 78 1;
#X connect 0 0 1 0;
#X connect 1 0 2 0;
#X connect 2 0 4 0;
#X connect 2 1 3 0;
#X connect 3 0 1 1;
#X connect 5 0 6 0;
#X connect 6 0 1 1;
#X restore 71 491 pd once;
#X obj 126 378 del 500;
#X obj 48 598 readsf~ 2;
#X obj 48 655 throw~ R;
#X obj 107 654 throw~ L;
#X obj 167 183 loca.rectangle \$1 \$2 \$3 \$4 \$5 \$6 \$7 \$8;
#X obj 167 217 loca.diagonal \$1 \$2 \$3 \$4 \$5 \$6 \$7 \$8;
#X obj 536 288 loca.latlon-merge;
#X obj 536 266 list \$1 \$2 \$3 \$4;
#X obj 595 352 list;
#X obj 706 352 list;
#X obj 730 290 loca.latlon-merge;
#X obj 730 268 list \$5 \$6 \$7 \$8;
#X obj 47 628 *~;
#X obj 164 593 line~;
#X obj 107 629 *~;
#X obj 48 543 symbol \$9;
#X obj 65 516 t a b;
#X msg 164 565 0 \, 1 10;
#X connect 1 0 2 0;
#X connect 2 0 0 0;
#X connect 2 1 35 0;
#X connect 3 0 30 0;
#X connect 5 0 32 0;
#X connect 6 0 29 0;
#X connect 7 0 11 0;
#X connect 10 0 23 0;
#X connect 11 0 19 0;
#X connect 12 0 13 0;
#X connect 12 0 35 1;
#X connect 13 0 39 1;
#X connect 14 0 15 0;
#X connect 14 0 35 2;
#X connect 15 0 13 0;
#X connect 15 1 13 1;
#X connect 16 0 6 0;
#X connect 17 0 10 0;
#X connect 18 0 20 0;
#X connect 20 0 19 0;
#X connect 21 0 24 0;
#X connect 22 0 21 0;
#X connect 23 0 19 1;
#X connect 24 0 19 2;
#X connect 25 0 26 0;
#X connect 25 0 35 3;
#X connect 26 0 40 1;
#X connect 27 0 28 0;
#X connect 27 0 35 4;
#X connect 28 0 26 0;
#X connect 28 1 26 1;
#X connect 29 0 7 0;
#X connect 29 1 38 0;
#X connect 29 2 42 0;
#X connect 30 0 47 0;
#X connect 31 0 3 0;
#X connect 32 0 43 0;
#X connect 32 1 45 0;
#X connect 32 2 30 1;
#X connect 35 0 36 0;
#X connect 35 1 36 1;
#X connect 35 2 36 2;
#X connect 35 3 36 3;
#X connect 35 4 36 4;
#X connect 36 0 4 0;
#X connect 36 0 31 0;
#X connect 37 0 39 0;
#X connect 38 0 37 0;
#X connect 39 0 17 0;
#X connect 40 0 22 0;
#X connect 41 0 40 0;
#X connect 42 0 41 0;
#X connect 43 0 33 0;
#X connect 44 0 43 1;
#X connect 44 0 45 1;
#X connect 45 0 34 0;
#X connect 46 0 5 0;
#X connect 47 0 46 0;
#X connect 47 1 48 0;
#X connect 48 0 44 0;
