#N canvas 777 354 1024 654 10;
#X obj 21 29 inlet;
#X obj 159 -4 inlet;
#X obj 199 -5 inlet;
#X obj 248 -1 inlet;
#X obj 289 -1 inlet;
#X obj 74 561 outlet;
#X obj 134 562 outlet;
#X obj 185 563 outlet;
#X obj 242 566 outlet;
#X obj 297 567 outlet;
#N canvas 1033 485 450 299 range 0;
#X obj 88 20 inlet;
#X obj 225 20 inlet;
#X obj 266 96 <;
#X obj 92 266 outlet;
#X obj 237 268 outlet;
#X obj 86 122 pack f f;
#X obj 87 225 unpack f f;
#X obj 261 125 sel 1;
#X obj 150 94 swap;
#X obj 55 193 spigot 1;
#X obj 134 194 spigot 0;
#X obj 89 44 t f f f;
#X obj 225 45 t f f f;
#X obj 154 126 pack f f;
#X msg 254 169 0;
#X msg 111 166 1;
#X msg 153 169 0;
#X msg 289 170 1;
#X connect 0 0 11 0;
#X connect 1 0 12 0;
#X connect 2 0 7 0;
#X connect 5 0 9 0;
#X connect 6 0 3 0;
#X connect 6 1 4 0;
#X connect 7 0 14 0;
#X connect 7 0 15 0;
#X connect 7 1 16 0;
#X connect 7 1 17 0;
#X connect 8 0 13 0;
#X connect 8 1 13 1;
#X connect 9 0 6 0;
#X connect 10 0 6 0;
#X connect 11 0 5 0;
#X connect 11 1 8 0;
#X connect 11 2 2 0;
#X connect 12 0 5 1;
#X connect 12 1 8 1;
#X connect 12 2 2 1;
#X connect 13 0 10 0;
#X connect 14 0 10 1;
#X connect 15 0 9 1;
#X connect 16 0 9 1;
#X connect 17 0 10 1;
#X restore 186 289 pd range;
#N canvas 1029 494 450 299 range 0;
#X obj 88 20 inlet;
#X obj 225 20 inlet;
#X obj 266 96 <;
#X obj 92 266 outlet;
#X obj 237 268 outlet;
#X obj 86 122 pack f f;
#X obj 87 225 unpack f f;
#X obj 261 125 sel 1;
#X obj 150 94 swap;
#X obj 55 193 spigot 1;
#X obj 134 194 spigot 0;
#X obj 89 44 t f f f;
#X obj 225 45 t f f f;
#X obj 154 126 pack f f;
#X msg 254 169 0;
#X msg 111 166 1;
#X msg 153 169 0;
#X msg 289 170 1;
#X connect 0 0 11 0;
#X connect 1 0 12 0;
#X connect 2 0 7 0;
#X connect 5 0 9 0;
#X connect 6 0 3 0;
#X connect 6 1 4 0;
#X connect 7 0 14 0;
#X connect 7 0 15 0;
#X connect 7 1 16 0;
#X connect 7 1 17 0;
#X connect 8 0 13 0;
#X connect 8 1 13 1;
#X connect 9 0 6 0;
#X connect 10 0 6 0;
#X connect 11 0 5 0;
#X connect 11 1 8 0;
#X connect 11 2 2 0;
#X connect 12 0 5 1;
#X connect 12 1 8 1;
#X connect 12 2 2 1;
#X connect 13 0 10 0;
#X connect 14 0 10 1;
#X connect 15 0 9 1;
#X connect 16 0 9 1;
#X connect 17 0 10 1;
#X restore 270 290 pd range;
#X obj 51 186 unpack f f;
#X obj 133 339 >;
#X obj 53 221 t f f;
#X obj 179 340 <;
#X obj 223 335 >;
#X obj 112 219 t f f;
#X obj 272 336 <;
#X obj 140 400 +;
#X obj 236 404 +;
#X obj 180 456 +;
#X obj 168 490 > 3;
#X obj 134 514 spigot;
#X obj 24 157 t l l;
#X obj 499 37 list prepend;
#X obj 499 61 route 0 1;
#X obj 705 -12 v loca.precision-mode;
#X obj 705 13 change;
#X obj 495 6 list \$1 \$2 \$3 \$4 \$5 \$6 \$7 \$8;
#X obj 575 108 unpack f f f f f f f f;
#X obj 492 -45 loadbang;
#X obj 493 -21 t b b;
#X obj 307 90 unpack f f f f f f f f;
#X obj 307 153 loca.latlon-merge;
#X obj 422 150 loca.latlon-merge;
#X obj 307 131 pack f f f f;
#X obj 422 128 pack f f f f;
#X obj 422 170 unpack f f;
#X obj 307 174 unpack f f;
#X connect 0 0 24 0;
#X connect 1 0 10 0;
#X connect 2 0 11 0;
#X connect 3 0 10 1;
#X connect 4 0 11 1;
#X connect 10 0 13 1;
#X connect 10 1 15 1;
#X connect 11 0 16 1;
#X connect 11 1 18 1;
#X connect 12 0 14 0;
#X connect 12 1 17 0;
#X connect 13 0 19 0;
#X connect 14 0 13 0;
#X connect 14 1 15 0;
#X connect 15 0 19 1;
#X connect 16 0 20 0;
#X connect 17 0 16 0;
#X connect 17 1 18 0;
#X connect 18 0 20 1;
#X connect 19 0 21 0;
#X connect 20 0 21 1;
#X connect 21 0 22 0;
#X connect 22 0 23 1;
#X connect 23 0 5 0;
#X connect 24 0 23 0;
#X connect 24 1 12 0;
#X connect 25 0 26 0;
#X connect 26 0 33 0;
#X connect 26 1 30 0;
#X connect 27 0 28 0;
#X connect 28 0 25 1;
#X connect 29 0 25 0;
#X connect 30 1 10 0;
#X connect 30 3 11 0;
#X connect 30 5 10 1;
#X connect 30 7 11 1;
#X connect 31 0 32 0;
#X connect 32 0 29 0;
#X connect 32 1 27 0;
#X connect 33 0 36 0;
#X connect 33 1 36 1;
#X connect 33 2 36 2;
#X connect 33 3 36 3;
#X connect 33 4 37 0;
#X connect 33 5 37 1;
#X connect 33 6 37 2;
#X connect 33 7 37 3;
#X connect 34 0 39 0;
#X connect 35 0 38 0;
#X connect 36 0 34 0;
#X connect 37 0 35 0;
#X connect 38 0 10 1;
#X connect 38 1 11 1;
#X connect 39 0 10 0;
#X connect 39 1 11 0;
