#N canvas 1123 306 649 654 10;
#X obj 21 29 inlet;
#X obj 163 32 inlet;
#X obj 203 31 inlet;
#X obj 252 35 inlet;
#X obj 293 35 inlet;
#X obj 79 467 outlet;
#X obj 139 468 outlet;
#X obj 190 469 outlet;
#X obj 258 467 outlet;
#X obj 309 468 outlet;
#N canvas 1033 485 450 299 range 0;
#X obj 88 20 inlet;
#X obj 225 20 inlet;
#X obj 266 96 <;
#X obj 92 266 outlet;
#X obj 237 268 outlet;
#X obj 86 122 pack f f;
#X obj 87 225 unpack f f;
#X obj 261 125 sel 1;
#X obj 150 94 swap;
#X obj 55 193 spigot 1;
#X obj 134 194 spigot 0;
#X obj 89 44 t f f f;
#X obj 225 45 t f f f;
#X obj 154 126 pack f f;
#X msg 254 169 0;
#X msg 111 166 1;
#X msg 153 169 0;
#X msg 289 170 1;
#X connect 0 0 11 0;
#X connect 1 0 12 0;
#X connect 2 0 7 0;
#X connect 5 0 9 0;
#X connect 6 0 3 0;
#X connect 6 1 4 0;
#X connect 7 0 14 0;
#X connect 7 0 15 0;
#X connect 7 1 16 0;
#X connect 7 1 17 0;
#X connect 8 0 13 0;
#X connect 8 1 13 1;
#X connect 9 0 6 0;
#X connect 10 0 6 0;
#X connect 11 0 5 0;
#X connect 11 1 8 0;
#X connect 11 2 2 0;
#X connect 12 0 5 1;
#X connect 12 1 8 1;
#X connect 12 2 2 1;
#X connect 13 0 10 0;
#X connect 14 0 10 1;
#X connect 15 0 9 1;
#X connect 16 0 9 1;
#X connect 17 0 10 1;
#X restore 164 92 pd range;
#N canvas 1031 488 450 299 range 0;
#X obj 88 20 inlet;
#X obj 225 20 inlet;
#X obj 266 96 <;
#X obj 92 266 outlet;
#X obj 237 268 outlet;
#X obj 86 122 pack f f;
#X obj 87 225 unpack f f;
#X obj 261 125 sel 1;
#X obj 150 94 swap;
#X obj 55 193 spigot 1;
#X obj 134 194 spigot 0;
#X obj 89 44 t f f f;
#X obj 225 45 t f f f;
#X obj 154 126 pack f f;
#X msg 254 169 0;
#X msg 111 166 1;
#X msg 153 169 0;
#X msg 289 170 1;
#X connect 0 0 11 0;
#X connect 1 0 12 0;
#X connect 2 0 7 0;
#X connect 5 0 9 0;
#X connect 6 0 3 0;
#X connect 6 1 4 0;
#X connect 7 0 14 0;
#X connect 7 0 15 0;
#X connect 7 1 16 0;
#X connect 7 1 17 0;
#X connect 8 0 13 0;
#X connect 8 1 13 1;
#X connect 9 0 6 0;
#X connect 10 0 6 0;
#X connect 11 0 5 0;
#X connect 11 1 8 0;
#X connect 11 2 2 0;
#X connect 12 0 5 1;
#X connect 12 1 8 1;
#X connect 12 2 2 1;
#X connect 13 0 10 0;
#X connect 14 0 10 1;
#X connect 15 0 9 1;
#X connect 16 0 9 1;
#X connect 17 0 10 1;
#X restore 248 93 pd range;
#X obj 56 92 unpack f f;
#X obj 138 245 >;
#X obj 58 127 t f f;
#X obj 184 246 <;
#X obj 228 241 >;
#X obj 117 125 t f f;
#X obj 274 242 <;
#X obj 145 306 +;
#X obj 238 307 +;
#X obj 185 362 +;
#X obj 173 396 > 3;
#X obj 139 420 spigot;
#X obj 29 63 t l l;
#X obj 344 0 f \$1;
#X obj 379 1 f \$2;
#X obj 410 2 f \$3;
#X obj 442 3 f \$4;
#X obj 346 -47 loadbang;
#X obj 348 -25 t b b b b;
#X connect 0 0 24 0;
#X connect 1 0 10 0;
#X connect 2 0 11 0;
#X connect 3 0 10 1;
#X connect 4 0 11 1;
#X connect 10 0 13 1;
#X connect 10 1 15 1;
#X connect 11 0 16 1;
#X connect 11 1 18 1;
#X connect 12 0 14 0;
#X connect 12 1 17 0;
#X connect 13 0 19 0;
#X connect 14 0 13 0;
#X connect 14 1 15 0;
#X connect 15 0 19 1;
#X connect 16 0 20 0;
#X connect 17 0 16 0;
#X connect 17 1 18 0;
#X connect 18 0 20 1;
#X connect 19 0 21 0;
#X connect 20 0 21 1;
#X connect 21 0 22 0;
#X connect 22 0 23 1;
#X connect 23 0 5 0;
#X connect 24 0 23 0;
#X connect 24 1 12 0;
#X connect 25 0 10 0;
#X connect 26 0 11 0;
#X connect 27 0 10 1;
#X connect 28 0 11 1;
#X connect 29 0 30 0;
#X connect 30 0 25 0;
#X connect 30 1 26 0;
#X connect 30 2 27 0;
#X connect 30 3 28 0;
