#N canvas 162 299 559 700 10;
#X obj 28 25 inlet;
#X obj 28 637 outlet;
#X text 135 367 http://www.movable-type.co.uk/scripts/latlong.html
;
#X obj 28 427 atan2;
#X obj 28 406 sqrt;
#X obj 62 405 sqrt;
#X obj 28 447 * 2;
#X obj 62 384 -;
#X msg 62 362 1 \$1;
#X obj 28 339 t f f;
#X obj 28 210 sin;
#X obj 83 207 sin;
#X obj 138 206 cos;
#X obj 193 206 cos;
#X obj 28 179 / 2;
#X obj 83 182 / 2;
#X obj 28 74 unpack f f;
#X obj 28 98 t f f;
#X obj 28 301 expr $f1 + ($f2 * $f3 * $f4);
#X obj 28 148 deg2rad;
#X obj 83 149 deg2rad;
#X obj 138 148 deg2rad;
#X obj 193 149 deg2rad;
#X obj 28 232 t f f;
#X obj 28 257 *;
#X obj 83 232 t f f;
#X obj 83 257 *;
#X obj 83 98 t f b;
#X obj 28 542 * 6372.8;
#X obj 28 573 * 1000;
#X obj 117 10 inlet;
#X obj 156 10 inlet;
#X obj 117 39 t f f;
#X text 136 492 With kind help from Cyrille Henry \, Claude Heiland-Allen
and Joel Matthys.;
#X text 132 351 Implementation of the haversine formula;
#X obj 199 40 loca.latlon-merge;
#X obj 199 63 unpack f f;
#X obj 199 18 \$1 \$2 \$3 \$4;
#X obj 27 125 -;
#X obj 83 123 -;
#X obj 199 -5 loadbang;
#X obj 141 83 t f f;
#X obj 193 120 f;
#X connect 0 0 16 0;
#X connect 3 0 6 0;
#X connect 4 0 3 0;
#X connect 5 0 3 1;
#X connect 6 0 28 0;
#X connect 7 0 5 0;
#X connect 8 0 7 0;
#X connect 9 0 4 0;
#X connect 9 1 8 0;
#X connect 10 0 23 0;
#X connect 11 0 25 0;
#X connect 12 0 18 2;
#X connect 13 0 18 3;
#X connect 14 0 10 0;
#X connect 15 0 11 0;
#X connect 16 0 17 0;
#X connect 16 1 27 0;
#X connect 17 0 38 0;
#X connect 17 1 21 0;
#X connect 18 0 9 0;
#X connect 19 0 14 0;
#X connect 20 0 15 0;
#X connect 21 0 12 0;
#X connect 22 0 13 0;
#X connect 23 0 24 0;
#X connect 23 1 24 1;
#X connect 24 0 18 0;
#X connect 25 0 26 0;
#X connect 25 1 26 1;
#X connect 26 0 18 1;
#X connect 27 0 39 0;
#X connect 27 1 42 0;
#X connect 28 0 29 0;
#X connect 29 0 1 0;
#X connect 30 0 32 0;
#X connect 31 0 39 1;
#X connect 32 0 38 1;
#X connect 32 1 42 1;
#X connect 35 0 36 0;
#X connect 36 0 41 0;
#X connect 36 1 39 1;
#X connect 37 0 35 0;
#X connect 38 0 19 0;
#X connect 39 0 20 0;
#X connect 40 0 37 0;
#X connect 41 0 38 1;
#X connect 41 1 42 1;
#X connect 42 0 22 0;
