#N canvas 788 1029 1262 734 10;
#X obj 30 25 inlet;
#X obj 28 673 outlet;
#X obj 924 19 inlet;
#X obj 971 19 inlet;
#X obj 978 647 v loca.earth-rad;
#X obj 556 688 outlet;
#X obj 514 78 unpack f f;
#X msg 978 617 bang;
#X floatatom 978 676 15 0 0 0 - - -, f 15;
#X text 836 249 lat1 lon1 lat2 lon2;
#X obj 826 109 unpack f f;
#X obj 826 176 deg2rad;
#X obj 938 140 f \$1;
#X obj 997 144 f \$2;
#X obj 826 87 t l b b;
#X obj 826 636 outlet;
#X obj 826 289 expr acos(sin($f1)*sin($f3)+cos($f1)*cos($f3)*cos($f4-$f2))
;
#X obj 826 367 * 6.3728e+06;
#X text 352 17 3 implementation attempts for the haversine formula
;
#X obj 896 173 deg2rad;
#X obj 951 172 deg2rad;
#X obj 1006 173 deg2rad;
#X text 118 334 http://www.movable-type.co.uk/scripts/latlong.html
;
#X obj 28 427 atan2;
#X obj 28 406 sqrt;
#X obj 62 405 sqrt;
#X obj 28 447 * 2;
#X obj 62 384 -;
#X msg 62 362 1 \$1;
#X obj 28 339 t f f;
#X obj 28 210 sin;
#X obj 83 207 sin;
#X obj 138 206 cos;
#X obj 193 206 cos;
#X obj 28 179 / 2;
#X obj 83 182 / 2;
#X obj 28 74 unpack f f;
#X obj 28 125 - \$1;
#X obj 83 128 - \$2;
#X obj 28 98 t f f;
#X obj 28 301 expr $f1 + ($f2 * $f3 * $f4);
#X obj 28 542 * 6372.8;
#X obj 28 148 deg2rad;
#X obj 83 149 deg2rad;
#X obj 138 148 deg2rad;
#X obj 193 149 deg2rad;
#X obj 29 232 t f f;
#X obj 28 257 *;
#X obj 79 232 t f f;
#X obj 78 257 *;
#X obj 193 120 f \$1;
#X obj 83 98 t f b;
#X obj 641 213 f \$1;
#X obj 505 524 sqrt;
#X obj 556 647 * 6372.8;
#X obj 569 243 deg2rad;
#X obj 498 244 deg2rad;
#X obj 641 245 deg2rad;
#X text 577 266 ph1;
#X text 510 270 th1;
#X obj 568 214 - \$2;
#X obj 696 219 f \$1;
#X obj 696 251 deg2rad;
#X obj 572 103 t f b b, f 8;
#X text 644 273 th2;
#X text 711 276 ph2;
#X obj 502 375 sin;
#X obj 530 373 sin;
#X obj 504 408 -;
#X text 534 410 dz;
#X obj 609 357 cos;
#X obj 582 358 cos;
#X obj 587 383 *;
#X obj 647 360 cos;
#X obj 586 412 -;
#X text 620 412 dx;
#X obj 729 384 sin;
#X obj 696 385 cos;
#X obj 701 415 *;
#X text 734 419 dy;
#X obj 498 310 t f f f;
#X obj 503 431 t f f;
#X obj 502 456 *;
#X obj 585 434 t f f;
#X obj 584 459 *;
#X obj 703 437 t f f;
#X obj 702 462 *;
#X obj 502 486 +;
#X obj 504 508 +;
#X obj 505 544 / 2;
#X obj 505 571 expr asin($f1);
#X obj 510 599 * 2;
#X obj 577 285 t f f;
#X obj 641 294 t f f;
#X connect 0 0 6 0;
#X connect 0 0 14 0;
#X connect 0 0 36 0;
#X connect 2 0 12 1;
#X connect 3 0 13 1;
#X connect 4 0 8 0;
#X connect 6 0 56 0;
#X connect 6 1 63 0;
#X connect 7 0 4 0;
#X connect 10 0 11 0;
#X connect 10 1 19 0;
#X connect 11 0 16 0;
#X connect 12 0 20 0;
#X connect 13 0 21 0;
#X connect 14 0 10 0;
#X connect 14 1 12 0;
#X connect 14 2 13 0;
#X connect 16 0 17 0;
#X connect 17 0 15 0;
#X connect 19 0 16 1;
#X connect 20 0 16 2;
#X connect 21 0 16 3;
#X connect 23 0 26 0;
#X connect 24 0 23 0;
#X connect 25 0 23 1;
#X connect 26 0 41 0;
#X connect 27 0 25 0;
#X connect 28 0 27 0;
#X connect 29 0 24 0;
#X connect 29 1 28 0;
#X connect 30 0 46 0;
#X connect 31 0 48 0;
#X connect 32 0 40 2;
#X connect 33 0 40 3;
#X connect 34 0 30 0;
#X connect 35 0 31 0;
#X connect 36 0 39 0;
#X connect 36 1 51 0;
#X connect 37 0 42 0;
#X connect 38 0 43 0;
#X connect 39 0 37 0;
#X connect 39 1 44 0;
#X connect 40 0 29 0;
#X connect 41 0 1 0;
#X connect 42 0 34 0;
#X connect 43 0 35 0;
#X connect 44 0 32 0;
#X connect 45 0 33 0;
#X connect 46 0 47 0;
#X connect 46 1 47 1;
#X connect 47 0 40 0;
#X connect 48 0 49 0;
#X connect 48 1 49 1;
#X connect 49 0 40 1;
#X connect 50 0 45 0;
#X connect 51 0 38 0;
#X connect 51 1 50 0;
#X connect 52 0 57 0;
#X connect 53 0 89 0;
#X connect 54 0 5 0;
#X connect 55 0 92 0;
#X connect 56 0 80 0;
#X connect 57 0 93 0;
#X connect 60 0 55 0;
#X connect 61 0 62 0;
#X connect 63 0 60 0;
#X connect 63 1 52 0;
#X connect 63 2 61 0;
#X connect 66 0 68 0;
#X connect 67 0 68 1;
#X connect 68 0 81 0;
#X connect 70 0 72 1;
#X connect 71 0 72 0;
#X connect 72 0 74 0;
#X connect 73 0 74 1;
#X connect 74 0 83 0;
#X connect 76 0 78 1;
#X connect 77 0 78 0;
#X connect 78 0 85 0;
#X connect 80 0 66 0;
#X connect 80 1 71 0;
#X connect 80 2 77 0;
#X connect 81 0 82 0;
#X connect 81 1 82 1;
#X connect 82 0 87 0;
#X connect 83 0 84 0;
#X connect 83 1 84 1;
#X connect 84 0 87 1;
#X connect 85 0 86 0;
#X connect 85 1 86 1;
#X connect 86 0 88 1;
#X connect 87 0 88 0;
#X connect 88 0 53 0;
#X connect 89 0 90 0;
#X connect 90 0 91 0;
#X connect 91 0 54 0;
#X connect 92 0 70 0;
#X connect 92 1 76 0;
#X connect 93 0 67 0;
#X connect 93 1 73 0;
