#N canvas 962 139 939 817 10;
#X obj 37 5 inlet;
#X obj 122 11 inlet;
#X obj 162 10 inlet;
#X obj 212 13 inlet;
#X obj 252 14 inlet;
#X obj 140 694 outlet;
#X obj 27 325 unpack f f;
#X obj 137 369 -;
#X obj 218 369 -;
#X obj 155 418 /;
#X obj 153 393 swap;
#X obj 157 474 *;
#X obj 120 444 -;
#X obj 113 339 t f f;
#X obj 166 515 +;
#X obj 162 345 t f f;
#X obj 108 551 -;
#X obj 141 592 < 0;
#X obj 141 616 change;
#X obj 141 641 sel 0;
#X obj 453 74 list prepend;
#X obj 453 98 route 0 1;
#X obj 659 25 v loca.precision-mode;
#X obj 659 50 change;
#X obj 449 43 list \$1 \$2 \$3 \$4 \$5 \$6 \$7 \$8;
#X obj 476 239 unpack f f f f f f f f;
#X obj 446 -8 loadbang;
#X obj 447 16 t b b;
#X obj 261 127 unpack f f f f f f f f;
#X obj 261 190 loca.latlon-merge;
#X obj 376 187 loca.latlon-merge;
#X obj 261 168 pack f f f f;
#X obj 376 165 pack f f f f;
#X obj 376 207 unpack f f;
#X obj 261 211 unpack f f;
#X connect 0 0 6 0;
#X connect 1 0 13 0;
#X connect 2 0 15 0;
#X connect 3 0 7 1;
#X connect 4 0 8 1;
#X connect 6 0 12 0;
#X connect 6 1 16 0;
#X connect 7 0 10 0;
#X connect 8 0 10 1;
#X connect 9 0 11 1;
#X connect 10 0 9 0;
#X connect 10 1 9 1;
#X connect 11 0 14 0;
#X connect 12 0 11 0;
#X connect 13 0 12 1;
#X connect 13 1 7 0;
#X connect 14 0 16 1;
#X connect 15 0 14 1;
#X connect 15 1 8 0;
#X connect 16 0 17 0;
#X connect 17 0 18 0;
#X connect 18 0 19 0;
#X connect 19 0 5 0;
#X connect 19 1 5 0;
#X connect 20 0 21 0;
#X connect 21 0 28 0;
#X connect 21 1 25 0;
#X connect 22 0 23 0;
#X connect 23 0 20 1;
#X connect 24 0 20 0;
#X connect 25 1 13 0;
#X connect 25 3 15 0;
#X connect 25 5 7 1;
#X connect 25 7 8 1;
#X connect 26 0 27 0;
#X connect 27 0 24 0;
#X connect 27 1 22 0;
#X connect 28 0 31 0;
#X connect 28 1 31 1;
#X connect 28 2 31 2;
#X connect 28 3 31 3;
#X connect 28 4 32 0;
#X connect 28 5 32 1;
#X connect 28 6 32 2;
#X connect 28 7 32 3;
#X connect 29 0 34 0;
#X connect 30 0 33 0;
#X connect 31 0 29 0;
#X connect 32 0 30 0;
#X connect 33 0 7 1;
#X connect 33 1 8 1;
#X connect 34 0 13 0;
#X connect 34 1 15 0;
