#N canvas 1291 485 512 385 10;
#X obj 31 76 inlet;
#X obj 283 30 inlet;
#X obj 323 29 inlet;
#X obj 373 32 inlet;
#X obj 413 33 inlet;
#X obj 46 323 outlet;
#X obj 112 95 f \$1;
#X obj 147 96 f \$2;
#X obj 178 97 f \$3;
#X obj 210 98 f \$4;
#X obj 114 48 loadbang;
#X obj 116 70 t b b b b;
#X obj 24 138 unpack f f;
#X obj 136 181 -;
#X obj 183 184 -;
#X obj 150 220 /;
#X floatatom 212 255 8 0 0 0 - - -, f 8;
#X floatatom 210 223 8 0 0 0 - - -, f 8;
#X floatatom 191 280 8 0 0 0 - - -, f 8;
#X obj 30 252 *;
#X floatatom 37 284 8 0 0 0 - - -, f 8;
#X obj 65 211 *;
#X floatatom 80 257 8 0 0 0 - - -, f 8;
#X connect 0 0 12 0;
#X connect 1 0 6 0;
#X connect 2 0 7 0;
#X connect 3 0 8 0;
#X connect 4 0 9 0;
#X connect 6 0 13 0;
#X connect 7 0 14 0;
#X connect 8 0 13 1;
#X connect 9 0 14 1;
#X connect 10 0 11 0;
#X connect 11 0 6 0;
#X connect 11 1 7 0;
#X connect 11 2 8 0;
#X connect 11 3 9 0;
#X connect 12 0 19 0;
#X connect 12 1 21 0;
#X connect 13 0 15 0;
#X connect 13 0 17 0;
#X connect 14 0 15 1;
#X connect 14 0 16 0;
#X connect 15 0 18 0;
#X connect 15 0 19 1;
#X connect 15 0 21 1;
#X connect 19 0 20 0;
#X connect 21 0 22 0;
