#N canvas 444 180 718 808 10;
#X obj 24 690 outlet;
#X obj 24 21 inlet;
#X obj 158 512 change;
#X obj 48 647 *~;
#X obj 158 543 t f f;
#X obj 158 599 line~;
#X obj 48 506 loadbang;
#X msg 120 516 bang;
#X obj 313 575 outlet;
#X msg 48 568 open \$1.wav \, 1;
#X obj 366 70 gemhead;
#X obj 366 331 alpha;
#X text 94 6 Distance between given point and current loc;
#X obj 480 331 loca.norm2gem;
#X obj 480 352 unpack f f;
#X obj 366 399 translateXYZ 0 0 0.001;
#X obj 366 191 t a b;
#X obj 639 31 inlet;
#X obj 480 310 loca.latlon2norm;
#X obj 366 542 circle 0.3;
#X obj 48 598 readsf~ 2;
#X obj 48 670 throw~ R;
#X obj 111 671 throw~ L;
#X obj 112 649 *~;
#X obj 48 543 symbol \$5;
#X obj 158 490 < \$6;
#X obj 93 125 list prepend;
#X obj 93 149 route 0 1;
#X obj 118 317 loca.precision-distance \$1 \$2 \$3 \$4;
#X obj 480 286 loca.latlon-merge;
#X obj 480 264 list \$1 \$2 \$3 \$4;
#X obj 423 451 \$6;
#X obj 162 74 v loca.precision-mode;
#X obj 24 51 t l l b;
#X obj 162 99 change;
#X obj 449 493 v loca.scale;
#X obj 423 473 t f b;
#X obj 366 432 t a b;
#X obj 183 716 switch~;
#X obj 423 515 / 300;
#X msg 158 571 \$1 300;
#X obj 366 352 colorRGB 1 0 0 0.3;
#X obj 93 374 loca.haversine \$1 \$2 \$3 \$4;
#X obj 271 593 > 0;
#X connect 1 0 33 0;
#X connect 2 0 4 0;
#X connect 3 0 21 0;
#X connect 4 0 40 0;
#X connect 4 1 43 0;
#X connect 5 0 3 1;
#X connect 5 0 23 1;
#X connect 6 0 24 0;
#X connect 7 0 24 0;
#X connect 9 0 20 0;
#X connect 10 0 16 0;
#X connect 11 0 41 0;
#X connect 13 0 14 0;
#X connect 14 0 15 1;
#X connect 14 1 15 2;
#X connect 15 0 37 0;
#X connect 16 0 11 0;
#X connect 16 1 30 0;
#X connect 17 0 10 0;
#X connect 18 0 13 0;
#X connect 20 0 3 0;
#X connect 20 1 23 0;
#X connect 20 2 7 0;
#X connect 23 0 22 0;
#X connect 24 0 9 0;
#X connect 25 0 2 0;
#X connect 25 0 8 0;
#X connect 26 0 27 0;
#X connect 27 0 42 0;
#X connect 27 1 28 0;
#X connect 28 0 25 0;
#X connect 29 0 18 0;
#X connect 30 0 29 0;
#X connect 31 0 36 0;
#X connect 32 0 34 0;
#X connect 33 0 0 0;
#X connect 33 1 26 0;
#X connect 33 2 32 0;
#X connect 34 0 26 1;
#X connect 35 0 39 1;
#X connect 36 0 39 0;
#X connect 36 1 35 0;
#X connect 37 0 19 0;
#X connect 37 1 31 0;
#X connect 39 0 19 1;
#X connect 40 0 5 0;
#X connect 41 0 15 0;
#X connect 42 0 25 0;
#X connect 43 0 38 0;
