#N canvas 652 312 450 300 10;
#X obj 88 20 inlet;
#X obj 225 20 inlet;
#X obj 266 96 <;
#X obj 92 266 outlet;
#X obj 237 268 outlet;
#X obj 86 122 pack f f;
#X obj 87 225 unpack f f;
#X obj 261 125 sel 1;
#X obj 150 94 swap;
#X obj 55 193 spigot 1;
#X obj 134 194 spigot 0;
#X obj 89 44 t f f f;
#X obj 225 45 t f f f;
#X obj 154 126 pack f f;
#X msg 254 169 0;
#X msg 111 166 1;
#X msg 153 169 0;
#X msg 289 170 1;
#X connect 0 0 11 0;
#X connect 1 0 12 0;
#X connect 2 0 7 0;
#X connect 5 0 9 0;
#X connect 6 0 3 0;
#X connect 6 1 4 0;
#X connect 7 0 14 0;
#X connect 7 0 15 0;
#X connect 7 1 16 0;
#X connect 7 1 17 0;
#X connect 8 0 13 0;
#X connect 8 1 13 1;
#X connect 9 0 6 0;
#X connect 10 0 6 0;
#X connect 11 0 5 0;
#X connect 11 1 8 0;
#X connect 11 2 2 0;
#X connect 12 0 5 1;
#X connect 12 1 8 1;
#X connect 12 2 2 1;
#X connect 13 0 10 0;
#X connect 14 0 10 1;
#X connect 15 0 9 1;
#X connect 16 0 9 1;
#X connect 17 0 10 1;
