#N canvas 572 571 701 372 10;
#X text 312 49 normalizes a value to a range from 0 to 1;
#X text 321 121 \$1 minimum value;
#X text 320 140 \$2 maximum value;
#X floatatom 129 170 5 0 0 0 - - -;
#X obj 132 61 hsl 128 15 50.9724 50.976 0 0 empty empty empty -2 -8
0 10 -262144 -1 -1 0 1;
#X obj 132 198 hsl 128 15 0 1 0 0 empty empty empty -2 -8 0 10 -262144
-1 -1 0 1;
#X floatatom 129 87 5 0 0 0 - - -;
#X obj 129 130 loca.normalize 50.9724 50.976;
#X connect 3 0 5 0;
#X connect 4 0 6 0;
#X connect 6 0 7 0;
#X connect 7 0 3 0;
