#N canvas 833 112 941 761 10;
#X obj 24 690 outlet;
#X obj 24 21 inlet;
#X obj 24 51 t l l;
#X obj 48 598 readsf~;
#X obj 48 632 *~;
#X obj 158 543 t f f;
#X msg 158 571 \$1 10;
#X obj 158 599 line~;
#X obj 48 655 throw~;
#X obj 48 506 loadbang;
#X msg 120 516 bang;
#X obj 277 656 outlet;
#X msg 48 568 open \$1.wav \, 1;
#X obj 366 70 gemhead;
#X obj 366 331 alpha;
#X text 95 659 sends to catch;
#X text 94 6 Distance between given point and current loc;
#X obj 498 371 loca.norm2gem;
#X obj 498 329 list \$1 \$2;
#X obj 366 352 colorRGB 0 0 1 0.3;
#X obj 555 110 inlet;
#X obj 555 308 pack f f;
#X obj 593 110 inlet;
#X obj 593 273 t b f;
#X obj 790 21 inlet;
#X obj 498 350 loca.latlon2norm;
#X obj 376 376 loadbang;
#X obj 366 512 curve 2;
#X msg 375 400 width 3 \, draw line;
#X obj 609 371 loca.norm2gem;
#X obj 609 350 loca.latlon2norm;
#X obj 609 329 list \$3 \$4;
#X msg 498 401 \$1 \$2 0.001;
#X msg 609 405 \$1 \$2 0.001;
#X obj 667 108 inlet;
#X obj 667 306 pack f f;
#X obj 706 108 inlet;
#X obj 706 271 t b f;
#X obj 366 191 t a b b;
#X obj 48 543 symbol \$5;
#X obj 167 217 loca.diagonal \$1 \$2 \$3 \$4;
#X obj 114 256 print;
#X obj 167 183 loca.rectangle \$1 \$2 \$3 \$4;
#X connect 1 0 2 0;
#X connect 2 0 0 0;
#X connect 2 1 42 0;
#X connect 3 0 4 0;
#X connect 3 1 10 0;
#X connect 4 0 8 0;
#X connect 5 0 6 0;
#X connect 6 0 7 0;
#X connect 7 0 4 1;
#X connect 9 0 39 0;
#X connect 10 0 39 0;
#X connect 12 0 3 0;
#X connect 13 0 38 0;
#X connect 14 0 19 0;
#X connect 17 0 32 0;
#X connect 18 0 25 0;
#X connect 19 0 27 0;
#X connect 20 0 21 0;
#X connect 20 0 42 1;
#X connect 21 0 18 1;
#X connect 22 0 23 0;
#X connect 22 0 42 2;
#X connect 23 0 21 0;
#X connect 23 1 21 1;
#X connect 24 0 13 0;
#X connect 25 0 17 0;
#X connect 26 0 28 0;
#X connect 28 0 27 0;
#X connect 29 0 33 0;
#X connect 30 0 29 0;
#X connect 31 0 30 0;
#X connect 32 0 27 1;
#X connect 33 0 27 2;
#X connect 34 0 35 0;
#X connect 34 0 42 3;
#X connect 35 0 31 1;
#X connect 36 0 37 0;
#X connect 36 0 42 4;
#X connect 37 0 35 0;
#X connect 37 1 35 1;
#X connect 38 0 14 0;
#X connect 38 1 18 0;
#X connect 38 2 31 0;
#X connect 39 0 12 0;
#X connect 40 0 5 0;
#X connect 42 0 40 0;
#X connect 42 0 41 0;
#X connect 42 1 40 1;
#X connect 42 2 40 2;
#X connect 42 3 40 3;
#X connect 42 4 40 4;
