#N canvas 768 555 450 300 10;
#X obj 67 36 inlet;
#X obj 67 78 unpack f f f f;
#X obj 65 224 pack f f;
#X obj 65 254 outlet;
#X obj 69 166 +;
#X obj 150 162 +;
#X obj 174 128 / 1e+06;
#X obj 92 119 / 1e+06;
#X connect 0 0 1 0;
#X connect 1 0 4 0;
#X connect 1 1 7 0;
#X connect 1 2 5 0;
#X connect 1 3 6 0;
#X connect 2 0 3 0;
#X connect 4 0 2 0;
#X connect 5 0 2 1;
#X connect 6 0 5 1;
#X connect 7 0 4 1;
