#N canvas 1086 175 652 766 10;
#X obj 21 74 inlet;
#X obj 283 30 inlet;
#X obj 323 29 inlet;
#X obj 373 32 inlet;
#X obj 413 33 inlet;
#X obj 137 507 outlet;
#X obj 112 95 f \$1;
#X obj 147 96 f \$2;
#X obj 178 97 f \$3;
#X obj 210 98 f \$4;
#X obj 114 48 loadbang;
#X obj 116 70 t b b b b;
#X obj 24 138 unpack f f;
#X obj 131 147 -;
#X obj 212 147 -;
#X obj 152 231 /;
#X floatatom 30 406 8 0 0 0 - - -, f 8;
#X obj 150 206 swap;
#X obj 154 287 *;
#X obj 117 257 -;
#X obj 107 117 t f f;
#X obj 163 328 +;
#X obj 156 123 t f f;
#X obj 105 364 -;
#X obj 138 405 < 0;
#X obj 138 429 change;
#X obj 138 454 sel 0 1;
#X obj 138 479 del 500;
#X connect 0 0 12 0;
#X connect 1 0 6 0;
#X connect 2 0 7 0;
#X connect 3 0 8 0;
#X connect 4 0 9 0;
#X connect 6 0 20 0;
#X connect 7 0 22 0;
#X connect 8 0 13 1;
#X connect 9 0 14 1;
#X connect 10 0 11 0;
#X connect 11 0 6 0;
#X connect 11 1 7 0;
#X connect 11 2 8 0;
#X connect 11 3 9 0;
#X connect 12 0 16 0;
#X connect 12 0 19 0;
#X connect 12 1 23 0;
#X connect 13 0 17 0;
#X connect 14 0 17 1;
#X connect 15 0 18 1;
#X connect 17 0 15 0;
#X connect 17 1 15 1;
#X connect 18 0 21 0;
#X connect 19 0 18 0;
#X connect 20 0 19 1;
#X connect 20 1 13 0;
#X connect 21 0 23 1;
#X connect 22 0 21 1;
#X connect 22 1 14 0;
#X connect 23 0 24 0;
#X connect 24 0 25 0;
#X connect 25 0 26 0;
#X connect 26 0 27 0;
#X connect 26 1 27 0;
#X connect 27 0 5 0;
