#N canvas 1104 181 718 808 10;
#X obj 24 775 outlet;
#X obj 24 21 inlet;
#X obj 93 444 change;
#X obj 48 732 *~;
#X obj 94 467 t f f;
#X obj 158 684 line~;
#X obj 201 493 outlet;
#X msg 48 653 open \$1.wav \, 1;
#X obj 366 70 gemhead;
#X obj 366 331 alpha;
#X obj 530 332 loca.norm2gem;
#X obj 530 353 unpack f f;
#X obj 366 399 translateXYZ 0 0 0.001;
#X obj 366 191 t a b;
#X obj 366 34 inlet;
#X obj 366 542 circle 0.3;
#X obj 48 683 readsf~ 2;
#X obj 48 755 throw~ R;
#X obj 111 756 throw~ L;
#X obj 112 734 *~;
#X obj 48 628 symbol \$5;
#X obj 93 422 < \$6;
#X obj 93 148 list prepend;
#X obj 93 172 route 0 1;
#X obj 118 317 loca.precision-distance \$1 \$2 \$3 \$4;
#X obj 530 287 loca.latlon-merge;
#X obj 530 238 list \$1 \$2 \$3 \$4;
#X obj 423 451 \$6;
#X obj 162 97 v loca.precision-mode;
#X obj 24 51 t l l b;
#X obj 162 122 change;
#X obj 450 493 v loca.scale;
#X obj 423 473 t f b;
#X obj 366 432 t a b;
#X obj 295 644 switch~, f 8;
#X obj 423 515 / 300;
#X obj 93 374 loca.haversine \$1 \$2 \$3 \$4;
#X obj 530 311 loca.latlon2norm;
#X obj 544 494 loadbang;
#X msg 544 514 draw line \, width 3;
#X obj 366 352 colorRGB 0.5 0.5 0 0.3;
#X obj 92 490 sel 1 0;
#X msg 163 570 1;
#X msg 247 575 0;
#X msg 158 656 \$1 20;
#X obj 242 539 del 20;
#X obj 244 744 s toGUI;
#X msg 244 714 list /displayLabel16 triggered file: \$1;
#X obj 243 686 symbol \$5;
#X obj 306 743 print;
#X obj 62 95 spigot 1;
#X text 94 6 trigger in ring;
#X connect 1 0 29 0;
#X connect 2 0 4 0;
#X connect 2 0 6 0;
#X connect 3 0 17 0;
#X connect 4 0 41 0;
#X connect 4 1 44 0;
#X connect 5 0 3 1;
#X connect 5 0 19 1;
#X connect 7 0 16 0;
#X connect 8 0 13 0;
#X connect 9 0 40 0;
#X connect 10 0 11 0;
#X connect 11 0 12 1;
#X connect 11 1 12 2;
#X connect 12 0 33 0;
#X connect 13 0 9 0;
#X connect 13 1 26 0;
#X connect 14 0 8 0;
#X connect 14 0 50 1;
#X connect 16 0 3 0;
#X connect 16 1 19 0;
#X connect 19 0 18 0;
#X connect 20 0 7 0;
#X connect 21 0 2 0;
#X connect 22 0 23 0;
#X connect 23 0 36 0;
#X connect 23 1 24 0;
#X connect 24 0 21 0;
#X connect 25 0 37 0;
#X connect 26 0 25 0;
#X connect 27 0 32 0;
#X connect 28 0 30 0;
#X connect 29 0 0 0;
#X connect 29 1 50 0;
#X connect 29 2 28 0;
#X connect 30 0 22 1;
#X connect 31 0 35 1;
#X connect 32 0 35 0;
#X connect 32 1 31 0;
#X connect 33 0 15 0;
#X connect 33 1 27 0;
#X connect 35 0 15 1;
#X connect 36 0 21 0;
#X connect 37 0 10 0;
#X connect 38 0 39 0;
#X connect 39 0 15 0;
#X connect 40 0 12 0;
#X connect 41 0 20 0;
#X connect 41 0 48 0;
#X connect 41 1 42 0;
#X connect 41 2 45 0;
#X connect 42 0 34 0;
#X connect 43 0 34 0;
#X connect 44 0 5 0;
#X connect 45 0 43 0;
#X connect 47 0 46 0;
#X connect 47 0 49 0;
#X connect 48 0 47 0;
#X connect 50 0 22 0;
