#N canvas 331 1075 559 700 10;
#X obj 28 25 inlet;
#X obj 28 637 outlet;
#X text 118 334 http://www.movable-type.co.uk/scripts/latlong.html
;
#X text 115 318 implementation of the haversine formula;
#X obj 28 427 atan2;
#X obj 28 406 sqrt;
#X obj 62 405 sqrt;
#X obj 28 447 * 2;
#X obj 62 384 -;
#X msg 62 362 1 \$1;
#X obj 28 339 t f f;
#X obj 28 210 sin;
#X obj 83 207 sin;
#X obj 138 206 cos;
#X obj 193 206 cos;
#X obj 28 179 / 2;
#X obj 83 182 / 2;
#X obj 28 74 unpack f f;
#X obj 28 125 - \$1;
#X obj 83 123 - \$2;
#X obj 28 98 t f f;
#X obj 28 301 expr $f1 + ($f2 * $f3 * $f4);
#X obj 28 148 deg2rad;
#X obj 83 149 deg2rad;
#X obj 138 148 deg2rad;
#X obj 193 149 deg2rad;
#X obj 28 232 t f f;
#X obj 28 257 *;
#X obj 83 232 t f f;
#X obj 83 257 *;
#X obj 193 120 f \$1;
#X obj 83 98 t f b;
#X obj 28 542 * 6372.8;
#X obj 28 573 * 1000;
#X obj 171 26 inlet;
#X obj 210 26 inlet;
#X obj 171 55 t f f;
#X connect 0 0 17 0;
#X connect 4 0 7 0;
#X connect 5 0 4 0;
#X connect 6 0 4 1;
#X connect 7 0 32 0;
#X connect 8 0 6 0;
#X connect 9 0 8 0;
#X connect 10 0 5 0;
#X connect 10 1 9 0;
#X connect 11 0 26 0;
#X connect 12 0 28 0;
#X connect 13 0 21 2;
#X connect 14 0 21 3;
#X connect 15 0 11 0;
#X connect 16 0 12 0;
#X connect 17 0 20 0;
#X connect 17 1 31 0;
#X connect 18 0 22 0;
#X connect 19 0 23 0;
#X connect 20 0 18 0;
#X connect 20 1 24 0;
#X connect 21 0 10 0;
#X connect 22 0 15 0;
#X connect 23 0 16 0;
#X connect 24 0 13 0;
#X connect 25 0 14 0;
#X connect 26 0 27 0;
#X connect 26 1 27 1;
#X connect 27 0 21 0;
#X connect 28 0 29 0;
#X connect 28 1 29 1;
#X connect 29 0 21 1;
#X connect 30 0 25 0;
#X connect 31 0 19 0;
#X connect 31 1 30 0;
#X connect 32 0 33 0;
#X connect 33 0 1 0;
#X connect 34 0 36 0;
#X connect 35 0 19 1;
#X connect 36 0 18 1;
#X connect 36 1 30 1;
