#N canvas 1307 456 513 472 10;
#X obj 44 106 loca.precision-mode;
#X obj 45 139 unpack f f;
#X floatatom 44 178 10 0 0 0 - - -, f 10;
#X floatatom 114 178 10 0 0 0 - - -, f 10;
#X msg 43 65 37.523 126.996 284 967;
#X connect 0 0 1 0;
#X connect 1 0 2 0;
#X connect 1 1 3 0;
#X connect 4 0 0 0;
