#N canvas 167 196 718 808 10;
#X obj 24 690 outlet;
#X obj 24 21 inlet;
#X obj 290 651 outlet;
#X obj 366 70 gemhead;
#X obj 366 331 alpha;
#X text 94 6 Distance between given point and current loc;
#X obj 480 331 loca.norm2gem;
#X obj 480 352 unpack f f;
#X obj 366 399 translateXYZ 0 0 0.001;
#X obj 366 191 t a b;
#X obj 639 31 inlet;
#X obj 366 542 circle 0.3;
#X obj 93 125 list prepend;
#X obj 93 149 route 0 1;
#X obj 480 280 loca.latlon-merge;
#X obj 423 451 \$6;
#X obj 162 74 v loca.precision-mode;
#X obj 24 51 t l l b;
#X obj 162 99 change;
#X obj 449 493 v loca.scale;
#X obj 423 473 t f b;
#X obj 366 432 t a b;
#X obj 423 515 / 300;
#X obj 158 429 / \$6;
#X obj 118 317 loca.precision-distance \$1 \$2 \$3 \$4;
#X obj 93 374 loca.haversine \$1 \$2 \$3 \$4;
#X obj 158 453 clip 0 1;
#X obj 158 478 * -1;
#X obj 158 500 + 1, f 7;
#X obj 158 522 change;
#X obj 158 543 t f f;
#X obj 211 583 > 0;
#X obj 366 352 colorRGB 1 0 1 0.3;
#X obj 158 604 s loca.\$5;
#X obj 480 310 loca.latlon2norm;
#X obj 481 234 list \$1 \$2 \$3 \$4;
#X connect 1 0 17 0;
#X connect 3 0 9 0;
#X connect 4 0 32 0;
#X connect 6 0 7 0;
#X connect 7 0 8 1;
#X connect 7 1 8 2;
#X connect 8 0 21 0;
#X connect 9 0 4 0;
#X connect 9 1 35 0;
#X connect 10 0 3 0;
#X connect 12 0 13 0;
#X connect 13 0 25 0;
#X connect 13 1 24 0;
#X connect 14 0 34 0;
#X connect 15 0 20 0;
#X connect 16 0 18 0;
#X connect 17 0 0 0;
#X connect 17 1 12 0;
#X connect 17 2 16 0;
#X connect 18 0 12 1;
#X connect 19 0 22 1;
#X connect 20 0 22 0;
#X connect 20 1 19 0;
#X connect 21 0 11 0;
#X connect 21 1 15 0;
#X connect 22 0 11 1;
#X connect 23 0 26 0;
#X connect 24 0 23 0;
#X connect 25 0 23 0;
#X connect 26 0 27 0;
#X connect 27 0 28 0;
#X connect 28 0 29 0;
#X connect 29 0 30 0;
#X connect 30 0 33 0;
#X connect 30 1 31 0;
#X connect 31 0 2 0;
#X connect 32 0 8 0;
#X connect 34 0 6 0;
#X connect 35 0 14 0;
