#N canvas 247 427 513 570 10;
#X obj 11 28 inlet;
#X obj 14 540 outlet;
#X obj 222 156 int;
#X obj 213 185 -;
#X obj 82 154 int;
#X obj 70 181 -;
#X obj 70 205 * 1000;
#X obj 11 59 unpack f f f f;
#X obj 216 208 * 1000;
#X obj 213 234 int;
#X obj 213 258 * 1000;
#X obj 213 282 +;
#X obj 70 231 int;
#X obj 66 300 +;
#X obj 94 436 pack f f;
#X obj 11 183 pack f f;
#X obj 11 121 t f f f;
#X obj 74 124 t f f f;
#X msg 168 474 0;
#X msg 59 476 1;
#X msg 100 476 0, f 4;
#X msg 197 478 1;
#X obj 210 433 sel 0;
#X obj 210 411 r loca.precision-mode;
#X obj 14 504 spigot 0;
#X obj 88 505 spigot 1;
#X floatatom 307 281 10 0 0 0 - - -, f 10;
#X floatatom 303 252 10 0 0 0 - - -, f 10;
#X floatatom 307 234 10 0 0 0 - - -, f 10;
#X floatatom 307 212 10 0 0 0 - - -, f 10;
#X floatatom 306 188 10 0 0 0 - - -, f 10;
#X floatatom 304 170 10 0 0 0 - - -, f 10;
#X floatatom 111 321 10 0 0 0 - - -, f 10;
#X floatatom 114 259 10 0 0 0 - - -, f 10;
#X floatatom 118 241 10 0 0 0 - - -, f 10;
#X floatatom 118 219 10 0 0 0 - - -, f 10;
#X floatatom 117 195 10 0 0 0 - - -, f 10;
#X floatatom 115 177 10 0 0 0 - - -, f 10;
#X obj 66 255 * 1000;
#X obj 67 277 + 1000;
#X text 118 277 offset;
#X connect 0 0 7 0;
#X connect 2 0 3 1;
#X connect 2 0 31 0;
#X connect 3 0 8 0;
#X connect 3 0 30 0;
#X connect 4 0 5 1;
#X connect 4 0 37 0;
#X connect 5 0 6 0;
#X connect 5 0 36 0;
#X connect 6 0 12 0;
#X connect 6 0 35 0;
#X connect 7 0 16 0;
#X connect 7 1 17 0;
#X connect 7 2 13 1;
#X connect 7 3 11 1;
#X connect 8 0 9 0;
#X connect 8 0 29 0;
#X connect 9 0 10 0;
#X connect 9 0 28 0;
#X connect 10 0 11 0;
#X connect 10 0 27 0;
#X connect 11 0 14 1;
#X connect 11 0 26 0;
#X connect 12 0 34 0;
#X connect 12 0 38 0;
#X connect 13 0 14 0;
#X connect 13 0 32 0;
#X connect 14 0 25 0;
#X connect 15 0 24 0;
#X connect 16 0 15 0;
#X connect 16 1 5 0;
#X connect 16 2 4 0;
#X connect 17 0 15 1;
#X connect 17 1 3 0;
#X connect 17 2 2 0;
#X connect 18 0 25 1;
#X connect 19 0 24 1;
#X connect 20 0 24 1;
#X connect 21 0 25 1;
#X connect 22 0 18 0;
#X connect 22 0 19 0;
#X connect 22 1 21 0;
#X connect 22 1 20 0;
#X connect 23 0 22 0;
#X connect 24 0 1 0;
#X connect 25 0 1 0;
#X connect 38 0 33 0;
#X connect 38 0 39 0;
#X connect 39 0 13 0;
