#N canvas 884 335 416 486 10;
#X obj 88 30 inlet;
#X obj 88 55 unpack f f;
#X obj 82 304 pack f f;
#X obj 82 328 outlet;
#X obj 152 101 r loca.gem.width;
#X obj 249 126 r loca.gem.height;
#X obj 103 164 * 2;
#X obj 84 200 * 8;
#X obj 83 254 - 4;
#X obj 212 221 *;
#X obj 212 221 * 8;
#X obj 210 253 - 4;
#X obj 119 129 t f f;
#X obj 246 167 t f f;
#X obj 228 196 * 2;
#X obj 159 287 * -1;
#X connect 0 0 1 0;
#X connect 1 0 7 0;
#X connect 1 1 9 0;
#X connect 2 0 3 0;
#X connect 4 0 12 0;
#X connect 5 0 13 0;
#X connect 6 0 7 1;
#X connect 7 0 8 0;
#X connect 8 0 2 0;
#X connect 9 0 11 0;
#X connect 11 0 15 0;
#X connect 12 0 6 0;
#X connect 12 1 8 1;
#X connect 13 0 14 0;
#X connect 13 1 11 1;
#X connect 14 0 9 1;
#X connect 15 0 2 1;
