#N canvas 1180 495 907 621 10;
#X obj 30 25 inlet;
#X msg 199 48 0;
#X obj 199 100 text get loca.map;
#X obj 199 133 unpack f f f f;
#X obj 30 71 unpack f f;
#X obj 30 399 outlet;
#X obj 30 342 pack f f;
#X obj 226 209 -;
#X obj 280 209 -;
#X obj 199 175 t f f;
#X obj 253 177 t f f;
#X obj 30 286 +;
#X obj 30 234 *;
#X obj 87 236 *;
#X obj 199 16 r loca.getloc;
#X msg 30 367 \$2 \$1;
#X obj 280 234 abs;
#X obj 87 287 +;
#X obj 226 233 * -1;
#X connect 0 0 4 0;
#X connect 1 0 2 0;
#X connect 2 0 3 0;
#X connect 3 0 9 0;
#X connect 3 1 7 1;
#X connect 3 2 10 0;
#X connect 3 3 8 1;
#X connect 4 0 12 0;
#X connect 4 1 13 0;
#X connect 6 0 15 0;
#X connect 7 0 18 0;
#X connect 8 0 16 0;
#X connect 9 0 17 1;
#X connect 9 1 7 0;
#X connect 10 0 11 1;
#X connect 10 1 8 0;
#X connect 11 0 6 0;
#X connect 12 0 11 0;
#X connect 13 0 17 0;
#X connect 14 0 1 0;
#X connect 15 0 5 0;
#X connect 16 0 12 1;
#X connect 17 0 6 1;
#X connect 18 0 13 1;
