#N canvas 709 88 1041 777 10;
#X obj 48 33 inlet;
#X obj 48 59 t l l;
#X obj 48 682 outlet;
#X obj 330 123 symbol \$1;
#X msg 342 91 bang;
#X obj 330 150 sel n s w e;
#X obj 330 62 loadbang;
#X obj 127 182 unpack f f;
#X obj 127 249 > \$2;
#X obj 169 249 < \$2;
#X obj 127 211 t f f;
#X obj 199 215 t f f;
#X obj 131 301 pack f f f f;
#X msg 113 502 open \$1.wav \, 1;
#X text 142 611 sends to catch;
#N canvas 1271 403 450 300 once 0;
#X obj 50 44 inlet;
#X obj 54 133 spigot 1;
#X obj 53 164 t b b;
#X msg 133 125 0;
#X obj 52 207 outlet;
#X obj 187 56 inlet;
#X msg 187 78 1;
#X connect 0 0 1 0;
#X connect 1 0 2 0;
#X connect 2 0 4 0;
#X connect 2 1 3 0;
#X connect 3 0 1 1;
#X connect 5 0 6 0;
#X connect 6 0 1 1;
#X restore 136 425 pd once;
#X obj 113 532 readsf~ 2;
#X obj 113 589 throw~ R;
#X obj 172 588 throw~ L;
#X obj 112 562 *~;
#X obj 229 527 line~;
#X obj 172 563 *~;
#X obj 130 450 t a b;
#X msg 229 499 0 \, 1 10;
#X msg 136 336 \$3;
#X msg 330 187 1;
#X msg 360 186 2;
#X msg 400 185 3;
#X msg 432 184 4;
#X msg 328 223 set \, adddollar \$1;
#X obj 136 387 sel 1;
#X obj 136 360 change;
#X obj 113 477 symbol \$3;
#X obj 639 10 inlet;
#X obj 97 93 spigot 1;
#X obj 639 63 gemhead;
#X obj 639 146 alpha;
#X obj 639 481 curve 2;
#X obj 639 167 colorRGB 1 0 1 0.3;
#X obj 790 386 loca.norm2gem;
#X obj 646 393 loadbang;
#X msg 645 417 width 3 \, draw line;
#X obj 911 385 loca.norm2gem;
#X msg 911 419 \$1 \$2 0.001;
#X obj 790 344 list;
#X obj 911 343 list;
#X obj 790 365 loca.latlon2norm;
#X obj 793 170 text get loca.map;
#X obj 793 196 unpack f f f f f f f f;
#X obj 639 97 t a b;
#X obj 643 595 rectangle;
#X obj 757 260 loca.latlon-merge;
#X obj 887 259 loca.latlon-merge;
#X obj 766 233 pack f f f f;
#X obj 885 230 pack f f f f;
#X msg 795 128 1;
#X obj 849 601 print x;
#X obj 639 314 translateXYZ;
#X floatatom 661 275 5 0 0 0 - - -, f 5;
#X floatatom 703 274 5 0 0 0 - - -, f 5;
#X floatatom 720 291 5 0 0 0 - - -, f 5;
#X obj 889 520 print y;
#X obj 806 305 print loca.map;
#X obj 814 454 f \$2;
#X obj 768 479 pack f f 0.001;
#X obj 911 364 loca.latlon2norm;
#X obj 216 251 < \$2;
#X obj 257 251 > \$2;
#X connect 0 0 1 0;
#X connect 1 0 2 0;
#X connect 1 1 34 0;
#X connect 3 0 5 0;
#X connect 4 0 3 0;
#X connect 5 0 25 0;
#X connect 5 1 26 0;
#X connect 5 2 27 0;
#X connect 5 3 28 0;
#X connect 6 0 3 0;
#X connect 7 0 10 0;
#X connect 7 1 11 0;
#X connect 8 0 12 0;
#X connect 9 0 12 1;
#X connect 10 0 8 0;
#X connect 10 1 9 0;
#X connect 11 0 66 0;
#X connect 11 1 67 0;
#X connect 12 0 24 0;
#X connect 13 0 16 0;
#X connect 15 0 22 0;
#X connect 16 0 19 0;
#X connect 16 1 21 0;
#X connect 16 2 15 1;
#X connect 19 0 17 0;
#X connect 20 0 19 1;
#X connect 20 0 21 1;
#X connect 21 0 18 0;
#X connect 22 0 32 0;
#X connect 22 1 23 0;
#X connect 23 0 20 0;
#X connect 24 0 31 0;
#X connect 25 0 29 0;
#X connect 26 0 29 0;
#X connect 27 0 29 0;
#X connect 28 0 29 0;
#X connect 29 0 24 0;
#X connect 30 0 15 0;
#X connect 31 0 30 0;
#X connect 32 0 13 0;
#X connect 33 0 35 0;
#X connect 33 0 34 1;
#X connect 34 0 7 0;
#X connect 35 0 49 0;
#X connect 36 0 38 0;
#X connect 38 0 57 0;
#X connect 40 0 41 0;
#X connect 41 0 37 0;
#X connect 42 0 43 0;
#X connect 44 0 46 0;
#X connect 45 0 65 0;
#X connect 46 0 39 0;
#X connect 47 0 48 0;
#X connect 48 0 53 0;
#X connect 48 1 53 1;
#X connect 48 2 53 2;
#X connect 48 3 53 3;
#X connect 48 4 54 0;
#X connect 48 5 54 1;
#X connect 48 6 54 2;
#X connect 48 7 54 3;
#X connect 49 0 36 0;
#X connect 49 1 55 0;
#X connect 51 0 44 0;
#X connect 52 0 45 0;
#X connect 53 0 51 0;
#X connect 54 0 52 0;
#X connect 55 0 47 0;
#X connect 57 0 37 0;
#X connect 58 0 57 1;
#X connect 59 0 57 2;
#X connect 60 0 57 3;
#X connect 65 0 42 0;
#X connect 66 0 12 2;
#X connect 67 0 12 3;
