#N canvas 807 641 592 353 10;
#X obj 32 21 inlet;
#X obj 32 295 outlet;
#X obj 252 46 colorRGB 1 0 0;
#X obj 252 23 gemhead 30;
#X obj 252 291 circle 0.05;
#X obj 252 266 translateXYZ 0 0 0.001;
#X obj 294 72 gemmouse;
#X obj 294 134 pack f f;
#X obj 295 243 unpack f f;
#X obj 294 154 loca.pix2norm;
#X obj 295 221 loca.norm2gem;
#X obj 294 174 t l l;
#X obj 69 248 loca.norm2latlon;
#X connect 0 0 1 0;
#X connect 2 0 5 0;
#X connect 3 0 2 0;
#X connect 5 0 4 0;
#X connect 6 0 7 0;
#X connect 6 1 7 1;
#X connect 7 0 9 0;
#X connect 8 0 5 1;
#X connect 8 1 5 2;
#X connect 9 0 11 0;
#X connect 10 0 8 0;
#X connect 11 0 12 0;
#X connect 11 1 10 0;
#X connect 12 0 1 0;
