#N canvas 176 407 1015 621 10;
#X obj 102 25 inlet;
#X obj 102 105 unpack f f;
#X obj 102 452 outlet;
#X obj 102 391 pack f f;
#X obj 400 244 -;
#X obj 521 248 -;
#X obj 373 214 t f f;
#X obj 494 216 t f f;
#X obj 102 317 /;
#X obj 159 319 /;
#X obj 159 256 -;
#X obj 102 255 -;
#X msg 102 420 \$2 \$1;
#X obj 520 272 abs;
#X obj 102 283 abs;
#X obj 194 519 print;
#X msg 194 478 warning: point \$1 \$2 is out of bounds!;
#X obj 195 382 < 0;
#X obj 195 404 sel 1;
#X obj 194 453 list;
#N canvas 1195 1210 450 300 once 0;
#X obj 84 48 inlet;
#X obj 87 188 outlet;
#X obj 92 108 spigot 1;
#X obj 90 135 t a b;
#X msg 155 95 0;
#X connect 0 0 2 0;
#X connect 2 0 3 0;
#X connect 3 0 1 0;
#X connect 3 1 4 0;
#X connect 4 0 2 1;
#X restore 194 425 pd once;
#X obj 102 67 t l l;
#X obj 158 345 t f f;
#X obj 378 42 text get loca.map;
#X obj 378 -42 r loca.getloc;
#X obj 469 -44 r loadbang;
#X msg 378 16 1;
#X obj 384 146 loca.latlon-merge;
#X obj 376 74 unpack f f f f f f f f;
#X obj 499 145 loca.latlon-merge;
#X obj 384 121 pack f f f f;
#X obj 499 120 pack f f f f;
#X obj 382 178 unpack f f;
#X obj 498 176 unpack f f;
#X connect 0 0 21 0;
#X connect 1 0 11 0;
#X connect 1 1 10 0;
#X connect 3 0 12 0;
#X connect 4 0 8 1;
#X connect 5 0 13 0;
#X connect 6 0 11 1;
#X connect 6 1 4 0;
#X connect 7 0 10 1;
#X connect 7 1 5 0;
#X connect 8 0 3 0;
#X connect 9 0 22 0;
#X connect 10 0 9 0;
#X connect 11 0 14 0;
#X connect 12 0 2 0;
#X connect 13 0 9 1;
#X connect 14 0 8 0;
#X connect 16 0 15 0;
#X connect 17 0 18 0;
#X connect 18 0 20 0;
#X connect 19 0 16 0;
#X connect 20 0 19 0;
#X connect 21 0 1 0;
#X connect 21 1 19 1;
#X connect 22 0 3 1;
#X connect 22 1 17 0;
#X connect 23 0 28 0;
#X connect 24 0 26 0;
#X connect 25 0 26 0;
#X connect 26 0 23 0;
#X connect 27 0 32 0;
#X connect 28 0 30 0;
#X connect 28 1 30 1;
#X connect 28 2 30 2;
#X connect 28 3 30 3;
#X connect 28 4 31 0;
#X connect 28 5 31 1;
#X connect 28 6 31 2;
#X connect 28 7 31 3;
#X connect 29 0 33 0;
#X connect 30 0 27 0;
#X connect 31 0 29 0;
#X connect 32 0 6 0;
#X connect 32 1 4 1;
#X connect 33 0 7 0;
#X connect 33 1 5 1;
