#N canvas 827 320 995 652 10;
#X obj 120 556 gemwin;
#X msg 212 499 0 \, destroy;
#X floatatom 120 119 5 0 0 0 x: - -, f 5;
#X obj 120 246 pack f f;
#X obj 165 211 t f b;
#X msg 120 73 800;
#X obj 120 31 loadbang;
#N canvas 41 92 577 300 calmer 0;
#X obj 111 38 inlet;
#X obj 107 200 outlet;
#X obj 113 72 t l b;
#X obj 140 100 del 1500;
#X text 206 131 just avoiding unneccessary new window creations when
using the number boxes to scroll to a value;
#X obj 153 202 outlet;
#X connect 0 0 2 0;
#X connect 2 0 1 0;
#X connect 2 1 3 0;
#X connect 3 0 5 0;
#X restore 120 267 pd calmer;
#X msg 169 468 0 \, destroy \, create \, 1;
#X msg 120 311 dimen \$1 \$2;
#X obj 116 139 hsl 55 20 0 127 0 0 empty empty empty -2 -8 0 10 -262144
-262144 -262144 2000 0;
#X obj 113 139 cnv 15 60 20 empty \$0-createdestroy destroy 5 11 0
11 -261681 -33289 0;
#X obj 208 211 b;
#X obj 208 232 f 0;
#X obj 234 232 == 0;
#X obj 290 431 s \$0-createdestroy;
#X msg 307 396 label create \, color 6 12;
#X msg 245 373 label destroy \, color 4 12;
#X obj 208 253 sel 0 1;
#X obj 393 350 s loca.gem.pix.width;
#X obj 420 328 s loca.gem.pix.height;
#X obj 393 329 f;
#X obj 420 308 f;
#X obj 393 278 t b b;
#X obj 157 116 cnv 15 35 20 empty \$0-yreslabel y:661 2 11 0 10 -262144
-1 0;
#X obj 647 363 pix_texture;
#X obj 647 279 gemhead 10;
#X obj 647 604 rectangle 4 4;
#X obj 647 386 pix_info;
#X obj 684 430 /;
#X msg 731 511 4;
#X obj 647 338 pix_image Yeungnam.png;
#X obj 684 481 t f b;
#X obj 684 536 *;
#X obj 691 571 s loca.gem.width;
#X obj 741 548 s loca.gem.height;
#X obj 700 456 s \$0-aspect-ratio;
#X obj 247 57 r \$0-aspect-ratio;
#X obj 232 156 /;
#X obj 436 223 s \$0-yreslabel;
#X obj 436 181 int;
#X obj 436 158 + 0.5;
#X msg 436 201 label y:\$1;
#X obj 579 275 openpanel;
#X msg 579 300 open \$1;
#X obj 114 167 bng 15 250 50 0 empty empty load_map 17 7 0 10 -262144
-1 -1;
#X connect 1 0 0 0;
#X connect 2 0 3 0;
#X connect 2 0 21 0;
#X connect 2 0 38 0;
#X connect 3 0 7 0;
#X connect 4 0 3 1;
#X connect 4 1 3 0;
#X connect 5 0 2 0;
#X connect 6 0 5 0;
#X connect 7 0 9 0;
#X connect 7 1 8 0;
#X connect 7 1 17 0;
#X connect 8 0 0 0;
#X connect 9 0 0 0;
#X connect 10 0 12 0;
#X connect 12 0 13 0;
#X connect 13 0 14 0;
#X connect 13 0 18 0;
#X connect 14 0 13 1;
#X connect 16 0 15 0;
#X connect 17 0 15 0;
#X connect 18 0 8 0;
#X connect 18 0 17 0;
#X connect 18 0 23 0;
#X connect 18 1 1 0;
#X connect 18 1 16 0;
#X connect 21 0 19 0;
#X connect 22 0 20 0;
#X connect 23 0 21 0;
#X connect 23 1 22 0;
#X connect 25 0 28 0;
#X connect 26 0 31 0;
#X connect 28 0 27 0;
#X connect 28 1 29 0;
#X connect 28 2 29 1;
#X connect 29 0 32 0;
#X connect 29 0 36 0;
#X connect 30 0 27 2;
#X connect 30 0 33 1;
#X connect 30 0 35 0;
#X connect 31 0 25 0;
#X connect 32 0 33 0;
#X connect 32 1 30 0;
#X connect 33 0 27 1;
#X connect 33 0 34 0;
#X connect 37 0 38 1;
#X connect 38 0 4 0;
#X connect 38 0 22 0;
#X connect 38 0 41 0;
#X connect 40 0 42 0;
#X connect 41 0 40 0;
#X connect 42 0 39 0;
#X connect 43 0 44 0;
#X connect 44 0 31 0;
#X connect 45 0 43 0;
#X coords 0 -1 1 1 100 100 1 100 100;
