#N canvas 1195 56 718 742 10;
#X obj 24 690 outlet;
#X obj 24 21 inlet;
#X obj 24 51 t l l;
#X obj 158 512 change;
#X obj 48 632 *~;
#X obj 158 543 t f f;
#X obj 208 572 pipe 10;
#X obj 208 597 switch~;
#X msg 158 571 \$1 10;
#X obj 158 599 line~;
#X obj 48 506 loadbang;
#X obj 48 543 symbol \$3;
#X msg 120 516 bang;
#X obj 313 575 outlet;
#X msg 48 568 open \$1.wav \, 1;
#X obj 158 490 < \$4;
#X obj 366 70 gemhead;
#X obj 366 331 alpha;
#X text 224 665 sends to catch;
#X text 94 6 Distance between given point and current loc;
#X obj 480 331 loca.norm2gem;
#X obj 480 352 unpack f f;
#X obj 366 399 translateXYZ 0 0 0.001;
#X obj 480 289 list \$1 \$2;
#X obj 366 352 colorRGB 0 0 1 0.3;
#X obj 366 191 t a b;
#X obj 537 70 inlet;
#X obj 537 268 pack f f;
#X obj 589 70 inlet;
#X obj 589 233 t b f;
#X obj 639 31 inlet;
#X obj 480 310 loca.latlon2norm;
#X obj 423 458 \$4;
#X obj 366 512 circle 0.3;
#X obj 423 435 loadbang;
#X obj 423 485 / 90;
#X obj 158 187 loca.haversine \$1 \$2;
#X obj 48 598 readsf~ 2;
#X obj 48 655 throw~ R;
#X obj 111 656 throw~ L;
#X obj 112 634 *~;
#X connect 1 0 2 0;
#X connect 2 0 0 0;
#X connect 2 1 36 0;
#X connect 3 0 5 0;
#X connect 3 0 13 0;
#X connect 4 0 38 0;
#X connect 5 0 8 0;
#X connect 5 1 6 0;
#X connect 6 0 7 0;
#X connect 8 0 9 0;
#X connect 9 0 4 1;
#X connect 9 0 40 1;
#X connect 10 0 11 0;
#X connect 11 0 14 0;
#X connect 12 0 11 0;
#X connect 14 0 37 0;
#X connect 15 0 3 0;
#X connect 16 0 25 0;
#X connect 17 0 24 0;
#X connect 20 0 21 0;
#X connect 21 0 22 1;
#X connect 21 1 22 2;
#X connect 22 0 33 0;
#X connect 23 0 31 0;
#X connect 24 0 22 0;
#X connect 25 0 17 0;
#X connect 25 1 23 0;
#X connect 26 0 27 0;
#X connect 26 0 36 1;
#X connect 27 0 23 1;
#X connect 28 0 29 0;
#X connect 28 0 36 2;
#X connect 29 0 27 0;
#X connect 29 1 27 1;
#X connect 30 0 16 0;
#X connect 31 0 20 0;
#X connect 32 0 35 0;
#X connect 34 0 32 0;
#X connect 35 0 33 1;
#X connect 36 0 15 0;
#X connect 37 0 4 0;
#X connect 37 1 40 0;
#X connect 37 2 12 0;
#X connect 40 0 39 0;
