#N canvas 792 347 611 648 10;
#X obj 103 555 gemwin;
#X msg 197 498 0 \, destroy;
#X floatatom 103 118 5 0 0 0 - - -, f 5;
#X floatatom 152 118 5 0 0 0 - - -, f 5;
#X text 138 118 x;
#X text 187 117 y;
#X obj 103 245 pack f f;
#X obj 152 210 t f b;
#X msg 103 72 800;
#X msg 152 73 600;
#X obj 103 30 loadbang;
#X obj 103 51 t b b;
#N canvas 41 92 577 300 calmer 0;
#X obj 111 38 inlet;
#X obj 107 200 outlet;
#X obj 113 72 t l b;
#X obj 140 100 del 1500;
#X text 206 131 just avoiding unneccessary new window creations when
using the number boxes to scroll to a value;
#X obj 153 202 outlet;
#X connect 0 0 2 0;
#X connect 2 0 1 0;
#X connect 2 1 3 0;
#X connect 3 0 5 0;
#X restore 103 266 pd calmer;
#X msg 154 467 0 \, destroy \, create \, 1;
#X msg 103 310 dimen \$1 \$2;
#X obj 106 135 hsl 55 20 0 127 0 0 empty empty empty -2 -8 0 10 -262144
-262144 -262144 3200 0;
#X obj 103 135 cnv 15 60 20 empty \$0-createdestroy destroy 5 11 0
11 -261681 -33289 0;
#X obj 193 210 b;
#X obj 193 231 f 0;
#X obj 219 231 == 0;
#X obj 275 430 s \$0-createdestroy;
#X msg 292 395 label create \, color 6 12;
#X msg 230 372 label destroy \, color 4 12;
#X obj 193 252 sel 0 1;
#X obj 378 349 s loca.gem.pix.width;
#X obj 405 327 s loca.gem.pix.height;
#X obj 378 328 f;
#X obj 405 307 f;
#X obj 378 277 t b b;
#X connect 1 0 0 0;
#X connect 2 0 6 0;
#X connect 2 0 26 0;
#X connect 3 0 7 0;
#X connect 3 0 27 0;
#X connect 6 0 12 0;
#X connect 7 0 6 1;
#X connect 7 1 6 0;
#X connect 8 0 2 0;
#X connect 9 0 3 0;
#X connect 10 0 11 0;
#X connect 11 0 8 0;
#X connect 11 1 9 0;
#X connect 12 0 14 0;
#X connect 12 1 13 0;
#X connect 12 1 22 0;
#X connect 13 0 0 0;
#X connect 14 0 0 0;
#X connect 15 0 17 0;
#X connect 17 0 18 0;
#X connect 18 0 19 0;
#X connect 18 0 23 0;
#X connect 19 0 18 1;
#X connect 21 0 20 0;
#X connect 22 0 20 0;
#X connect 23 0 13 0;
#X connect 23 0 22 0;
#X connect 23 0 28 0;
#X connect 23 1 1 0;
#X connect 23 1 21 0;
#X connect 26 0 24 0;
#X connect 27 0 25 0;
#X connect 28 0 26 0;
#X connect 28 1 27 0;
#X coords 0 -1 1 1 100 60 1 100 100;
