#N canvas 555 131 487 549 10;
#X obj 28 25 inlet;
#X text 118 294 http://www.movable-type.co.uk/scripts/latlong.html
;
#X obj 28 387 atan2;
#X obj 28 366 sqrt;
#X obj 62 365 sqrt;
#X obj 28 407 * 2;
#X obj 28 467 *;
#X obj 62 344 -;
#X msg 62 322 1 \$1;
#X obj 57 446 v loca.earth-rad;
#X obj 28 426 t f b;
#X obj 28 299 t f f;
#X obj 28 510 outlet;
#X obj 28 148 deg2rad;
#X obj 28 210 sin;
#X obj 83 207 sin;
#X obj 138 206 cos;
#X obj 193 206 cos;
#X obj 28 179 / 2;
#X obj 83 149 deg2rad;
#X obj 83 182 / 2;
#X obj 138 148 deg2rad;
#X obj 193 149 deg2rad;
#X obj 28 74 unpack f f;
#X obj 28 125 - \$1;
#X obj 83 128 - \$2;
#X obj 83 98 t f f;
#X obj 28 98 t f f;
#X obj 28 234 pow 2;
#X obj 83 235 pow 2;
#X obj 28 261 expr $f1 + ($f2 * $f3 * $f4);
#X obj 118 25 inlet;
#X obj 165 25 inlet;
#X connect 0 0 23 0;
#X connect 2 0 5 0;
#X connect 3 0 2 0;
#X connect 4 0 2 1;
#X connect 5 0 10 0;
#X connect 6 0 12 0;
#X connect 7 0 4 0;
#X connect 8 0 7 0;
#X connect 9 0 6 1;
#X connect 10 0 6 0;
#X connect 10 1 9 0;
#X connect 11 0 3 0;
#X connect 11 1 8 0;
#X connect 13 0 18 0;
#X connect 14 0 28 0;
#X connect 15 0 29 0;
#X connect 16 0 30 2;
#X connect 17 0 30 3;
#X connect 18 0 14 0;
#X connect 19 0 20 0;
#X connect 20 0 15 0;
#X connect 21 0 16 0;
#X connect 22 0 17 0;
#X connect 23 0 27 0;
#X connect 23 1 26 0;
#X connect 24 0 13 0;
#X connect 25 0 19 0;
#X connect 26 0 25 0;
#X connect 26 1 22 0;
#X connect 27 0 24 0;
#X connect 27 1 21 0;
#X connect 28 0 30 0;
#X connect 29 0 30 1;
#X connect 30 0 11 0;
#X connect 31 0 24 1;
#X connect 32 0 25 1;
