#N canvas 853 271 681 409 10;
#X obj 284 55 gemwin;
#X msg 297 31 0 \, destroy;
#X obj 283 140 pix_texture;
#X obj 283 94 gemhead 10;
#X msg 284 8 dimen 600 600 \, create \, 1;
#X obj 283 115 pix_image weimar_ilmpark.png;
#X obj 284 345 rectangle 4 4;
#X obj 283 163 pix_info;
#X obj 321 202 /;
#X obj 321 222 t b f;
#X msg 321 243 4;
#X obj 432 266 /;
#X obj 46 55 gemhead 30;
#X obj 46 347 translateXYZ;
#X obj 72 132 hsl 128 15 0 1 0 0 empty empty empty -2 -8 0 10 -262144
-1 -1 12700 1;
#X obj 117 155 hsl 128 15 0 1 0 0 empty empty empty -2 -8 0 10 -262144
-1 -1 12700 1;
#X floatatom 122 187 5 0 0 0 - - -;
#X floatatom 77 174 5 0 0 0 - - -;
#X floatatom 119 268 5 0 0 0 - - -;
#X floatatom 75 266 5 0 0 0 - - -;
#X obj 46 78 colorRGB 1 1 0;
#X obj 46 372 square 0.3;
#X obj 69 245 loca.norm2gem;
#X obj 69 216 pack f f;
#X obj 69 310 unpack f f;
#X obj 328 297 s loca.gem.width;
#X obj 432 298 s loca.gem.height;
#X connect 1 0 0 0;
#X connect 2 0 7 0;
#X connect 3 0 5 0;
#X connect 4 0 0 0;
#X connect 5 0 2 0;
#X connect 7 0 6 0;
#X connect 7 1 8 0;
#X connect 7 2 8 1;
#X connect 8 0 9 0;
#X connect 9 0 10 0;
#X connect 9 1 11 1;
#X connect 10 0 6 1;
#X connect 10 0 11 0;
#X connect 10 0 25 0;
#X connect 11 0 6 2;
#X connect 11 0 26 0;
#X connect 12 0 20 0;
#X connect 13 0 21 0;
#X connect 14 0 17 0;
#X connect 14 0 23 0;
#X connect 15 0 16 0;
#X connect 15 0 23 1;
#X connect 20 0 13 0;
#X connect 22 0 19 0;
#X connect 22 0 24 0;
#X connect 23 0 22 0;
#X connect 24 0 13 1;
#X connect 24 1 13 2;
