#N canvas 220 192 941 761 10;
#X obj 24 690 outlet;
#X obj 24 21 inlet;
#X obj 24 51 t l l;
#X msg 92 456 bang;
#X obj 277 656 outlet;
#X msg 48 568 open \$1.wav \, 1;
#X obj 463 54 gemhead;
#X obj 463 315 alpha;
#X text 77 677 sends to catch;
#X text 94 6 Distance between given point and current loc;
#X obj 595 355 loca.norm2gem;
#X obj 595 313 list \$1 \$2;
#X obj 463 336 colorRGB 0 0 1 0.3;
#X obj 652 94 inlet;
#X obj 652 292 pack f f;
#X obj 690 94 inlet;
#X obj 690 257 t b f;
#X obj 790 21 inlet;
#X obj 595 334 loca.latlon2norm;
#X obj 473 360 loadbang;
#X obj 463 496 curve 2;
#X msg 472 384 width 3 \, draw line;
#X obj 706 355 loca.norm2gem;
#X obj 706 334 loca.latlon2norm;
#X obj 706 313 list \$3 \$4;
#X msg 595 385 \$1 \$2 0.001;
#X msg 706 389 \$1 \$2 0.001;
#X obj 764 92 inlet;
#X obj 764 290 pack f f;
#X obj 803 92 inlet;
#X obj 803 255 t b f;
#X obj 463 175 t a b b;
#X obj 48 543 symbol \$5;
#N canvas 1271 403 450 300 once 0;
#X obj 50 44 inlet;
#X obj 54 133 spigot 1;
#X obj 53 164 t b b;
#X msg 133 125 0;
#X obj 52 207 outlet;
#X obj 187 56 inlet;
#X msg 187 78 1;
#X connect 0 0 1 0;
#X connect 1 0 2 0;
#X connect 2 0 4 0;
#X connect 2 1 3 0;
#X connect 3 0 1 1;
#X connect 5 0 6 0;
#X connect 6 0 1 1;
#X restore 71 491 pd once;
#X obj 126 378 del 500;
#X obj 48 598 readsf~ 2;
#X obj 48 655 throw~ R;
#X obj 107 654 throw~ L;
#X obj 167 183 loca.rectangle \$1 \$2 \$3 \$4 \$5 \$6 \$7 \$8;
#X obj 167 217 loca.diagonal \$1 \$2 \$3 \$4 \$5 \$6 \$7 \$8;
#X connect 1 0 2 0;
#X connect 2 0 0 0;
#X connect 2 1 38 0;
#X connect 3 0 33 0;
#X connect 5 0 35 0;
#X connect 6 0 31 0;
#X connect 7 0 12 0;
#X connect 10 0 25 0;
#X connect 11 0 18 0;
#X connect 12 0 20 0;
#X connect 13 0 14 0;
#X connect 13 0 38 1;
#X connect 14 0 11 1;
#X connect 15 0 16 0;
#X connect 15 0 38 2;
#X connect 16 0 14 0;
#X connect 16 1 14 1;
#X connect 17 0 6 0;
#X connect 18 0 10 0;
#X connect 19 0 21 0;
#X connect 21 0 20 0;
#X connect 22 0 26 0;
#X connect 23 0 22 0;
#X connect 24 0 23 0;
#X connect 25 0 20 1;
#X connect 26 0 20 2;
#X connect 27 0 28 0;
#X connect 27 0 38 3;
#X connect 28 0 24 1;
#X connect 29 0 30 0;
#X connect 29 0 38 4;
#X connect 30 0 28 0;
#X connect 30 1 28 1;
#X connect 31 0 7 0;
#X connect 31 1 11 0;
#X connect 31 2 24 0;
#X connect 32 0 5 0;
#X connect 33 0 32 0;
#X connect 34 0 3 0;
#X connect 35 0 36 0;
#X connect 35 1 37 0;
#X connect 35 2 33 1;
#X connect 38 0 39 0;
#X connect 38 1 39 1;
#X connect 38 2 39 2;
#X connect 38 3 39 3;
#X connect 38 4 39 4;
#X connect 39 0 4 0;
#X connect 39 0 34 0;
