#N canvas 1240 503 623 502 10;
#X obj 329 26 gemmouse;
#X obj 329 59 pack f f;
#X obj 252 136 unpack f f;
#X obj 329 90 loca.pix2norm;
#X obj 341 112 loca.norm2gem;
#X obj 329 134 loca.norm2latlon;
#X obj 252 114 unpack f f;
#X obj 253 158 unpack f f;
#X obj 256 80 unpack f f;
#X obj 101 114 cnv 15 128 85 empty empty empty 20 12 0 14 -262144 -66577
0;
#X floatatom 126 117 8 0 0 0 pix - -, f 8;
#X floatatom 178 118 8 0 0 0 - - -, f 8;
#X floatatom 126 135 8 0 0 0 norm - -, f 8;
#X floatatom 178 135 8 0 0 0 - - -, f 8;
#X floatatom 126 153 8 0 0 0 gem - -, f 8;
#X floatatom 178 154 8 0 0 0 - - -, f 8;
#X floatatom 126 171 8 0 0 0 coor - -, f 8;
#X floatatom 178 171 8 0 0 0 - - -, f 8;
#X floatatom 214 186 2 0 0 0 precision-mode - -, f 2;
#X obj 341 160 r loca.precision-mode;
#X connect 0 0 1 0;
#X connect 0 1 1 1;
#X connect 1 0 3 0;
#X connect 1 0 8 0;
#X connect 2 0 14 0;
#X connect 2 1 15 0;
#X connect 3 0 6 0;
#X connect 3 0 5 0;
#X connect 3 0 4 0;
#X connect 4 0 2 0;
#X connect 5 0 7 0;
#X connect 6 0 12 0;
#X connect 6 1 13 0;
#X connect 7 0 16 0;
#X connect 7 1 17 0;
#X connect 8 0 10 0;
#X connect 8 1 11 0;
#X connect 19 0 18 0;
#X coords 0 -1 1 1 130 100 1 100 100;
