#N canvas 2259 412 1014 761 10;
#X obj 24 690 outlet;
#X obj 24 21 inlet;
#X obj 24 51 t l l;
#X msg 92 456 bang;
#X obj 277 656 outlet;
#X msg 48 568 open \$1.wav \, 1;
#X obj 463 54 gemhead;
#X obj 463 354 alpha;
#X text 77 677 sends to catch;
#X obj 617 392 loca.norm2gem;
#X obj 463 375 colorRGB 0 0 1 0.3;
#X obj 460 27 inlet;
#X obj 473 399 loadbang;
#X obj 463 496 curve 2;
#X msg 472 423 width 3 \, draw line;
#X obj 738 391 loca.norm2gem;
#X msg 617 422 \$1 \$2 0.001;
#X msg 738 425 \$1 \$2 0.001;
#X obj 463 175 t a b b;
#N canvas 1271 403 450 300 once 0;
#X obj 50 44 inlet;
#X obj 54 133 spigot 1;
#X obj 53 164 t b b;
#X msg 133 125 0;
#X obj 52 207 outlet;
#X obj 187 56 inlet;
#X msg 187 78 1;
#X connect 0 0 1 0;
#X connect 1 0 2 0;
#X connect 2 0 4 0;
#X connect 2 1 3 0;
#X connect 3 0 1 1;
#X connect 5 0 6 0;
#X connect 6 0 1 1;
#X restore 71 491 pd once;
#X obj 126 378 del 500;
#X obj 48 598 readsf~ 2;
#X obj 48 655 throw~ R;
#X obj 107 654 throw~ L;
#X obj 167 183 loca.rectangle \$1 \$2 \$3 \$4 \$5 \$6 \$7 \$8;
#X obj 167 217 loca.diagonal \$1 \$2 \$3 \$4 \$5 \$6 \$7 \$8;
#X obj 536 288 loca.latlon-merge;
#X obj 533 243 list \$1 \$2 \$3 \$4;
#X obj 730 290 loca.latlon-merge;
#X obj 727 245 list \$5 \$6 \$7 \$8;
#X obj 47 628 *~;
#X obj 164 593 line~;
#X obj 107 629 *~;
#X obj 48 543 symbol \$9;
#X obj 65 516 t a b;
#X msg 164 565 0 \, 1 10;
#X obj 617 371 loca.latlon2norm;
#X obj 738 370 loca.latlon2norm;
#X obj 339 676 s toGUI;
#X msg 339 646 list /displayLabel16 triggered file: \$1;
#X obj 428 615 print;
#X obj 324 530 t b;
#X obj 326 561 symbol \$9;
#X obj 146 112 spigot 1;
#X text 94 6 trigger on crossing the line. Bug: only works with diagonal
lines. Not horizontal or vertical ones., f 48;
#X obj 658 495 print line;
#X msg 429 587 line triggered file: \$1;
#X connect 1 0 2 0;
#X connect 2 0 0 0;
#X connect 2 1 43 0;
#X connect 3 0 19 0;
#X connect 5 0 21 0;
#X connect 6 0 18 0;
#X connect 7 0 10 0;
#X connect 9 0 16 0;
#X connect 10 0 13 0;
#X connect 11 0 6 0;
#X connect 11 0 43 1;
#X connect 12 0 14 0;
#X connect 14 0 13 0;
#X connect 15 0 17 0;
#X connect 16 0 13 1;
#X connect 17 0 13 2;
#X connect 18 0 7 0;
#X connect 18 1 27 0;
#X connect 18 2 29 0;
#X connect 19 0 34 0;
#X connect 20 0 3 0;
#X connect 21 0 30 0;
#X connect 21 1 32 0;
#X connect 21 2 19 1;
#X connect 24 0 25 0;
#X connect 25 0 4 0;
#X connect 25 0 20 0;
#X connect 25 0 41 0;
#X connect 26 0 36 0;
#X connect 27 0 26 0;
#X connect 28 0 37 0;
#X connect 29 0 28 0;
#X connect 30 0 22 0;
#X connect 31 0 30 1;
#X connect 31 0 32 1;
#X connect 32 0 23 0;
#X connect 33 0 5 0;
#X connect 34 0 33 0;
#X connect 34 1 35 0;
#X connect 35 0 31 0;
#X connect 36 0 9 0;
#X connect 37 0 15 0;
#X connect 39 0 38 0;
#X connect 41 0 42 0;
#X connect 42 0 39 0;
#X connect 42 0 46 0;
#X connect 43 0 24 0;
#X connect 46 0 40 0;
