#N canvas 1943 1054 851 836 10;
#X obj 178 162 deg2rad;
#X obj 178 224 sin;
#X obj 233 221 sin;
#X obj 288 220 cos;
#X obj 343 220 cos;
#X obj 178 193 / 2;
#X obj 233 163 deg2rad;
#X obj 233 196 / 2;
#X obj 288 162 deg2rad;
#X obj 343 163 deg2rad;
#X obj 178 384 atan2;
#X obj 178 363 sqrt;
#X obj 212 362 sqrt;
#X obj 178 404 * 2;
#X obj 44 688 outlet;
#X obj 178 464 *;
#X obj 178 88 unpack f f;
#X obj 44 19 inlet;
#X obj 44 49 t l l;
#X obj 178 139 - \$1;
#X obj 233 142 - \$2;
#X obj 233 112 t f f;
#X obj 178 112 t f f;
#X obj 178 510 change;
#X obj 68 596 readsf~;
#X obj 68 630 *~;
#X obj 178 541 t f f;
#X obj 228 570 pipe 10;
#X obj 228 595 switch~;
#X msg 178 569 \$1 10;
#X obj 178 597 line~;
#X obj 68 653 throw~;
#X obj 68 504 loadbang;
#X obj 68 541 symbol \$3;
#X msg 140 514 bang;
#X obj 302 560 outlet;
#X msg 68 566 open \$1.wav \, 1;
#X obj 178 488 < \$4;
#X obj 178 248 pow 2;
#X obj 233 249 pow 2;
#X obj 178 275 expr $f1 + ($f2 * $f3 * $f4);
#X obj 212 341 -;
#X msg 212 319 1 \$1;
#X obj 510 54 gemhead;
#X obj 510 322 circle 0.3;
#X obj 510 198 alpha;
#X text 115 657 sends to catch;
#X text 182 67 Distance between given point and current loc;
#X obj 624 175 loca.latlon2norm;
#X obj 624 202 loca.norm2gem;
#X obj 624 230 unpack f f;
#X obj 510 293 translateXYZ 0 0 0.001;
#X obj 624 150 list \$1 \$2;
#X obj 510 261 colorRGB 0 0 1 0.3;
#X obj 510 81 t a b;
#X obj 643 54 inlet;
#X obj 643 105 pack f f;
#X obj 695 54 inlet;
#X obj 695 78 t b f;
#X obj 752 25 inlet;
#X obj 207 443 v loca.earth-rad;
#X obj 178 423 t f b;
#X floatatom 240 496 20 0 0 0 - - -, f 20;
#X obj 178 296 t f f;
#X floatatom 373 500 20 0 0 0 - - -, f 20;
#X obj 382 404 loca.haversine \$1 \$2;
#X connect 0 0 5 0;
#X connect 1 0 38 0;
#X connect 2 0 39 0;
#X connect 3 0 40 2;
#X connect 4 0 40 3;
#X connect 5 0 1 0;
#X connect 6 0 7 0;
#X connect 7 0 2 0;
#X connect 8 0 3 0;
#X connect 9 0 4 0;
#X connect 10 0 13 0;
#X connect 11 0 10 0;
#X connect 12 0 10 1;
#X connect 13 0 61 0;
#X connect 15 0 37 0;
#X connect 15 0 62 0;
#X connect 16 0 22 0;
#X connect 16 1 21 0;
#X connect 17 0 18 0;
#X connect 18 0 14 0;
#X connect 18 1 16 0;
#X connect 18 1 65 0;
#X connect 19 0 0 0;
#X connect 20 0 6 0;
#X connect 21 0 20 0;
#X connect 21 1 9 0;
#X connect 22 0 19 0;
#X connect 22 1 8 0;
#X connect 23 0 26 0;
#X connect 23 0 35 0;
#X connect 24 0 25 0;
#X connect 24 1 34 0;
#X connect 25 0 31 0;
#X connect 26 0 29 0;
#X connect 26 1 27 0;
#X connect 27 0 28 0;
#X connect 29 0 30 0;
#X connect 30 0 25 1;
#X connect 32 0 33 0;
#X connect 33 0 36 0;
#X connect 34 0 33 0;
#X connect 36 0 24 0;
#X connect 37 0 23 0;
#X connect 38 0 40 0;
#X connect 39 0 40 1;
#X connect 40 0 63 0;
#X connect 41 0 12 0;
#X connect 42 0 41 0;
#X connect 43 0 54 0;
#X connect 45 0 53 0;
#X connect 48 0 49 0;
#X connect 49 0 50 0;
#X connect 50 0 51 1;
#X connect 50 1 51 2;
#X connect 51 0 44 0;
#X connect 52 0 48 0;
#X connect 53 0 51 0;
#X connect 54 0 45 0;
#X connect 54 1 52 0;
#X connect 55 0 56 0;
#X connect 56 0 52 1;
#X connect 57 0 58 0;
#X connect 58 0 56 0;
#X connect 58 1 56 1;
#X connect 59 0 43 0;
#X connect 60 0 15 1;
#X connect 61 0 15 0;
#X connect 61 1 60 0;
#X connect 63 0 11 0;
#X connect 63 1 42 0;
#X connect 65 0 64 0;
