#N canvas 944 106 901 820 10;
#X declare -lib Gem;
#X obj 390 630 dac~;
#N canvas 15 201 327 131 init 0;
#X msg 95 42 6.371e+06;
#X obj 95 20 loadbang;
#X obj 24 20 loadbang;
#X msg 24 43 \; pd dsp 1;
#X obj 186 21 declare -lib Gem;
#X obj 95 66 v loca.earth-rad;
#X connect 0 0 5 0;
#X connect 1 0 0 0;
#X restore 31 11 pd init;
#X obj 394 441 catch~;
#X obj 386 243 tgl 15 0 empty empty empty 17 7 0 10 -233412 -1 -1 0
1;
#X obj 382 281 tgl 15 0 empty empty empty 17 7 0 10 -4034 -1 -1 0 1
;
#X obj 382 321 tgl 15 0 empty empty empty 17 7 0 10 -4032 -1 -1 0 1
;
#X obj 384 363 tgl 15 0 empty empty empty 17 7 0 10 -42868 -1 -1 0
1;
#X text 416 244 Pssst! Der Feind hört mit!;
#X text 425 280 Chello;
#X text 426 322 Voice;
#X text 426 364 Rhodes Piano;
#X text 440 440 catches throw~;
#X obj 33 51 loca.gemwin;
#X obj 44 200 loca.mouse.simulate;
#X obj 31 459 unpack f f;
#X floatatom 31 517 10 0 0 0 - - -, f 10;
#X floatatom 103 518 10 0 0 0 - - -, f 10;
#X obj 376 209 tgl 15 0 empty empty empty 17 7 0 10 -262144 -1 -1 0
1;
#X obj 176 51 loca.variables;
#X obj 390 261 tgl 15 0 empty empty empty 17 7 0 10 -262144 -1 -1 0
1;
#X obj 380 299 tgl 15 0 empty empty empty 17 7 0 10 -262144 -1 -1 0
1;
#X obj 382 342 tgl 15 0 empty empty empty 17 7 0 10 -262144 -1 -1 0
1;
#X obj 31 276 loca.point 35.8351 128.755 sound2 50;
#X obj 31 317 loca.point 35.8331 128.754 sound3 40;
#X obj 31 359 loca.point 35.8354 128.757 sound4 10;
#X obj 31 175 loca.coordinates.sensor;
#X obj 31 400 loca.line 35.8339 128.757 35.8343 128.758 sound4;
#X obj 31 239 loca.point 35.8333 128.753 sound1 40;
#N canvas 938 721 802 300 test 1;
#X obj 66 23 gemmouse;
#X obj 64 53 pack f f;
#X obj 106 151 unpack f f;
#X floatatom 30 108 5 0 0 0 - - -, f 5;
#X floatatom 65 111 5 0 0 0 - - -, f 5;
#X obj 235 131 loca.diagonal 100 100 400 200;
#X obj 491 39 gemhead;
#X obj 546 93 loca.pix2norm;
#X obj 546 119 loca.norm2gem;
#X obj 485 214 curve 2;
#X obj 639 91 loca.pix2norm;
#X obj 639 117 loca.norm2gem;
#X obj 589 29 loadbang;
#X msg 543 59 100 100;
#X msg 652 55 400 200;
#X obj 488 145 translateXYZ 0 0 0.001;
#X obj 628 180 print;
#X msg 374 186 draw line \, with 4;
#X floatatom 100 208 5 0 0 0 - - -, f 5;
#X floatatom 135 211 5 0 0 0 - - -, f 5;
#X obj 235 97 loca.rectangle 100 100 400 200;
#X connect 0 0 1 0;
#X connect 0 0 3 0;
#X connect 0 1 1 1;
#X connect 0 1 4 0;
#X connect 1 0 20 0;
#X connect 2 0 18 0;
#X connect 2 1 19 0;
#X connect 6 0 15 0;
#X connect 7 0 8 0;
#X connect 8 0 9 1;
#X connect 8 0 16 0;
#X connect 10 0 11 0;
#X connect 11 0 9 2;
#X connect 12 0 13 0;
#X connect 12 0 14 0;
#X connect 13 0 7 0;
#X connect 14 0 10 0;
#X connect 15 0 9 0;
#X connect 17 0 9 0;
#X connect 20 0 5 0;
#X connect 20 0 2 0;
#X connect 20 1 5 1;
#X connect 20 2 5 2;
#X connect 20 3 5 3;
#X connect 20 4 5 4;
#X restore 612 529 pd test;
#X connect 2 0 0 0;
#X connect 2 0 0 1;
#X connect 13 0 27 0;
#X connect 14 0 15 0;
#X connect 14 1 16 0;
#X connect 17 0 27 3;
#X connect 19 0 22 3;
#X connect 20 0 23 3;
#X connect 21 0 24 3;
#X connect 22 0 23 0;
#X connect 22 1 4 0;
#X connect 23 0 24 0;
#X connect 23 1 5 0;
#X connect 24 0 26 0;
#X connect 24 1 6 0;
#X connect 25 0 27 0;
#X connect 26 0 14 0;
#X connect 27 0 22 0;
#X connect 27 1 3 0;
