#N canvas 617 101 897 631 10;
#X declare -lib Gem;
#X obj 31 140 textfile;
#X obj 48 165 unpack f f;
#X floatatom 48 204 10 0 0 0 - - -;
#X floatatom 120 204 10 0 0 0 - - -;
#X obj 384 499 dac~;
#X msg 45 107 read gps-coordinates_Ilmpark.txt cr \, rewind;
#N canvas 188 157 315 122 init 0;
#X msg -269 32 6.371e+06;
#X obj -269 56 s erdradius;
#X obj -269 10 loadbang;
#X obj -340 10 loadbang;
#X msg -340 33 \; pd dsp 1;
#X obj -178 11 declare -lib Gem;
#X connect 0 0 1 0;
#X connect 2 0 0 0;
#X connect 3 0 4 0;
#X restore 30 27 pd init;
#X text 59 188 Lat1;
#X text 132 185 Long1;
#X obj 31 56 tgl 15 0 empty empty empty 17 7 0 10 -262144 -1 -1 1 1
;
#X obj 394 441 catch~;
#X obj 253 241 tgl 15 0 empty empty empty 17 7 0 10 -233412 -1 -1 1
1;
#X text 440 440 empfängt throw;
#X obj 249 278 tgl 15 0 empty empty empty 17 7 0 10 -4034 -1 -1 0 1
;
#X obj 249 318 tgl 15 0 empty empty empty 17 7 0 10 -4032 -1 -1 0 1
;
#X obj 249 360 tgl 15 0 empty empty empty 17 7 0 10 -42868 -1 -1 0
1;
#X text 291 241 Pssst! Der Feind hört mit!;
#X text 292 277 Chello;
#X text 293 319 Voice;
#X text 293 361 Rhodes Piano;
#X obj 598 142 gemwin;
#X msg 611 118 0 \, destroy;
#X obj 597 227 pix_texture;
#X obj 597 181 gemhead 10;
#X msg 598 95 dimen 600 600 \, create \, 1;
#N canvas 541 296 529 524 display 0;
#X obj 27 12 inlet;
#X obj 42 177 colorRGB 1 0 0;
#X obj 42 154 gemhead 30;
#X obj 42 400 circle 0.05;
#X obj 42 375 translateXYZ;
#X obj 27 36 t l l;
#X obj 143 137 unpack f f;
#X obj 27 427 outlet;
#X text 191 235 Lat \, Long = Y \, X !!;
#X obj 97 348 line;
#X msg 124 305 \$1 500;
#X obj 65 349 line;
#X msg 71 305 \$1 500;
#X obj 144 181 normalize 50.9724 50.976;
#X obj 296 181 normalize 11.3292 11.3364;
#X obj 129 254 gemscale;
#X connect 0 0 5 0;
#X connect 1 0 4 0;
#X connect 2 0 1 0;
#X connect 4 0 3 0;
#X connect 5 0 7 0;
#X connect 5 1 6 0;
#X connect 6 0 13 0;
#X connect 6 1 14 0;
#X connect 9 0 4 2;
#X connect 10 0 9 0;
#X connect 11 0 4 1;
#X connect 12 0 11 0;
#X connect 13 0 15 1;
#X connect 14 0 15 0;
#X connect 15 0 12 0;
#X connect 15 1 10 0;
#X restore 31 422 pd display;
#X text 597 452 Koordinaten des kartenausschnitts:;
#X text 600 477 folglich:;
#X obj 597 202 pix_image weimar_ilmpark.png;
#X text 600 494 X dimen: 0.0072;
#X text 600 509 Y dimen: 0.0036;
#X obj 31 80 metro 3000;
#X obj 598 432 rectangle 4 4;
#X obj 597 250 pix_info;
#X obj 635 289 /;
#X obj 635 309 t b f;
#X msg 635 330 4;
#X obj 746 353 /;
#X obj 642 384 s gemwidth;
#X obj 746 385 s gemheight;
#X obj 31 239 GPSpoint 50.9763 11.3334 sound1 40;
#X obj 31 276 GPSpoint 50.9751 11.3337 sound2 50;
#X obj 31 317 GPSpoint 50.9737 11.3337 sound3 40;
#X obj 31 360 GPSpoint 50.9733 11.3346 sound4 40;
#X connect 0 0 1 0;
#X connect 0 0 40 0;
#X connect 1 0 2 0;
#X connect 1 1 3 0;
#X connect 5 0 0 0;
#X connect 9 0 31 0;
#X connect 10 0 4 0;
#X connect 10 0 4 1;
#X connect 21 0 20 0;
#X connect 22 0 33 0;
#X connect 23 0 28 0;
#X connect 24 0 20 0;
#X connect 28 0 22 0;
#X connect 31 0 0 0;
#X connect 33 0 32 0;
#X connect 33 1 34 0;
#X connect 33 2 34 1;
#X connect 34 0 35 0;
#X connect 35 0 36 0;
#X connect 35 1 37 1;
#X connect 36 0 32 1;
#X connect 36 0 37 0;
#X connect 36 0 38 0;
#X connect 37 0 32 2;
#X connect 37 0 39 0;
#X connect 40 0 41 0;
#X connect 40 1 11 0;
#X connect 41 0 42 0;
#X connect 41 1 13 0;
#X connect 42 0 43 0;
#X connect 42 1 14 0;
#X connect 43 0 25 0;
#X connect 43 1 15 0;
