#N canvas 875 94 948 778 10;
#X declare -lib Gem;
#X obj 384 499 dac~;
#N canvas 240 174 327 131 init 0;
#X msg 95 42 6.371e+06;
#X obj 95 66 s erdradius;
#X obj 95 20 loadbang;
#X obj 24 20 loadbang;
#X msg 24 43 \; pd dsp 1;
#X obj 186 21 declare -lib Gem;
#X connect 0 0 1 0;
#X connect 2 0 0 0;
#X connect 3 0 4 0;
#X restore 30 27 pd init;
#X obj 394 441 catch~;
#X obj 261 240 tgl 15 0 empty empty empty 17 7 0 10 -233412 -1 -1 0
1;
#X obj 257 278 tgl 15 0 empty empty empty 17 7 0 10 -4034 -1 -1 0 1
;
#X obj 257 318 tgl 15 0 empty empty empty 17 7 0 10 -4032 -1 -1 0 1
;
#X obj 257 360 tgl 15 0 empty empty empty 17 7 0 10 -42868 -1 -1 0
1;
#X text 291 241 Pssst! Der Feind hört mit!;
#X text 300 277 Chello;
#X text 301 319 Voice;
#X text 301 361 Rhodes Piano;
#X obj 599 147 pix_texture;
#X obj 599 101 gemhead 10;
#N canvas 538 301 529 524 display 0;
#X obj 27 12 inlet;
#X obj 42 177 colorRGB 1 0 0;
#X obj 42 154 gemhead 30;
#X obj 42 400 circle 0.05;
#X obj 42 375 translateXYZ;
#X obj 27 36 t l l;
#X obj 143 137 unpack f f;
#X obj 27 427 outlet;
#X text 191 235 Lat \, Long = Y \, X !!;
#X obj 97 348 line;
#X msg 124 305 \$1 500;
#X obj 65 349 line;
#X msg 71 305 \$1 500;
#X obj 144 181 normalize 50.9724 50.976;
#X obj 296 181 normalize 11.3292 11.3364;
#X obj 129 254 gemscale;
#X connect 0 0 5 0;
#X connect 1 0 4 0;
#X connect 2 0 1 0;
#X connect 4 0 3 0;
#X connect 5 0 7 0;
#X connect 5 1 6 0;
#X connect 6 0 13 0;
#X connect 6 1 14 0;
#X connect 9 0 4 2;
#X connect 10 0 9 0;
#X connect 11 0 4 1;
#X connect 12 0 11 0;
#X connect 13 0 15 1;
#X connect 14 0 15 0;
#X connect 15 0 12 0;
#X connect 15 1 10 0;
#X restore 31 422 pd display;
#X obj 600 352 rectangle 4 4;
#X obj 599 170 pix_info;
#X obj 637 209 /;
#X msg 684 259 4;
#X text 440 440 catches throw~;
#X obj 599 122 pix_image Yeungnam.png;
#X obj 599 501 print;
#X msg 605 447 0;
#X obj 600 477 text get Yeungnam.txt;
#X obj 34 515 gemmouse;
#X floatatom 38 629 5 0 0 0 - - -, f 5;
#X floatatom 49 609 5 0 0 0 - - -, f 5;
#X floatatom 62 589 5 0 0 0 - - -, f 5;
#X floatatom 72 572 5 0 0 0 - - -, f 5;
#X floatatom 82 552 5 0 0 0 - - -, f 5;
#X obj 174 468 gemhead;
#X obj 174 540 translateXYZ;
#X obj 174 562 rectangle 0.007 4;
#X floatatom 192 497 5 0 0 0 - - -, f 5;
#X obj 176 597 gemhead;
#X obj 176 669 translateXYZ;
#X floatatom 194 626 5 0 0 0 - - -, f 5;
#X obj 176 691 rectangle 4 0.007;
#X obj 637 229 t f b;
#X obj 638 284 *;
#X obj 596 19 loca.gemwin;
#X obj 644 319 s loca.gem.width;
#X obj 694 296 s loca.gem.height;
#X obj 31 239 loca.point 50.9763 11.3334 sound1 40;
#X obj 31 276 loca.point 50.9751 11.3337 sound2 50;
#X obj 31 317 loca.point 50.9737 11.3337 sound3 40;
#X obj 31 360 loca.point 50.9733 11.3346 sound4 40;
#X obj 173 117 loca.gem.pix2latlon;
#X connect 2 0 0 0;
#X connect 2 0 0 1;
#X connect 11 0 15 0;
#X connect 12 0 19 0;
#X connect 15 0 14 0;
#X connect 15 1 16 0;
#X connect 15 2 16 1;
#X connect 16 0 37 0;
#X connect 17 0 14 2;
#X connect 17 0 38 1;
#X connect 17 0 41 0;
#X connect 19 0 11 0;
#X connect 21 0 22 0;
#X connect 22 0 20 0;
#X connect 23 0 24 0;
#X connect 23 1 25 0;
#X connect 23 2 26 0;
#X connect 23 3 27 0;
#X connect 23 4 28 0;
#X connect 29 0 30 0;
#X connect 30 0 31 0;
#X connect 32 0 30 1;
#X connect 33 0 34 0;
#X connect 34 0 36 0;
#X connect 35 0 34 2;
#X connect 37 0 38 0;
#X connect 37 1 17 0;
#X connect 38 0 14 1;
#X connect 38 0 40 0;
#X connect 42 0 43 0;
#X connect 42 1 3 0;
#X connect 43 0 44 0;
#X connect 43 1 4 0;
#X connect 44 0 45 0;
#X connect 44 1 5 0;
#X connect 45 0 13 0;
#X connect 45 1 6 0;
