#N canvas 1158 61 657 961 10;
#X declare -lib Gem;
#X obj 441 739 dac~;
#N canvas 15 204 327 131 init 0;
#X msg 95 42 6.371e+06;
#X obj 95 20 loadbang;
#X obj 24 20 loadbang;
#X msg 24 43 \; pd dsp 1;
#X obj 186 21 declare -lib Gem;
#X obj 95 66 v loca.earth-rad;
#X connect 0 0 5 0;
#X connect 1 0 0 0;
#X connect 2 0 3 0;
#X restore 34 20 pd init;
#X obj 339 273 tgl 15 0 empty empty empty 17 7 0 10 -233412 -1 -1 0
1;
#X obj 317 325 tgl 15 0 empty empty empty 17 7 0 10 -4034 -1 -1 0 1
;
#X obj 322 413 tgl 15 0 empty empty empty 17 7 0 10 -4032 -1 -1 0 1
;
#X obj 352 523 tgl 15 0 empty empty empty 17 7 0 10 -42868 -1 -1 0
1;
#X obj 44 230 loca.mouse.simulate;
#X obj 305 211 tgl 15 0 empty empty empty 17 7 0 10 -262144 -1 -1 0
1;
#X obj 139 51 loca.variables;
#X obj 312 291 tgl 15 0 empty empty empty 17 7 0 10 -262144 -1 -1 0
1;
#X obj 329 375 tgl 15 0 empty empty empty 17 7 0 10 -262144 -1 -1 0
1;
#X obj 364 490 tgl 15 0 empty empty empty 17 7 0 10 -262144 -1 -1 0
1;
#X obj 345 592 bng 15 250 50 0 empty empty empty 17 7 0 10 -262144
-1 -1;
#X obj 483 601 catch~ L;
#X obj 426 602 catch~ R;
#X obj 342 551 tgl 15 0 empty empty empty 17 7 0 10 -262144 -1 -1 0
1;
#X obj 33 51 loca.gemwin;
#X obj 373 240 hsl 200 15 20 1500 0 0 empty empty empty -2 -8 0 10
-262144 -1 -1 10488 1;
#X floatatom 383 267 5 0 0 0 - - -, f 5;
#X obj 370 287 v loca.scale;
#X obj 370 193 loadbang;
#X obj 31 205 loca.coordinates.sensor;
#X obj 275 51 loca.world.latlon;
#X msg 31 737 552725;
#X msg 104 738 925014;
#X text 262 819 5.49989e+06 9.25522e+06;
#X text 259 803 549427 926570;
#X text 416 804 difference: 562 -1048;
#X obj 401 927 s loca.lon.offset;
#X obj 279 930 s loca.lat.offset;
#X obj 274 850 loadbang;
#X msg 279 903 562;
#X obj 278 870 t b b;
#X msg 312 902 -1048;
#X obj 350 472 tgl 15 0 empty empty empty 17 7 0 10 -42868 -1 -1 0
1;
#X obj 356 427 tgl 15 0 empty empty empty 17 7 0 10 -262144 -1 -1 0
1;
#X msg 370 218 800;
#X obj 31 665 loca.position;
#X obj 31 568 loca.line 37 551282 126 925267 37 551444 126 926725 turnstile
;
#X obj 31 627 loca.circle 37 549916 126 925459 streetnoise 450;
#X obj 31 307 loca.ambience 37 552754 126 924267 scooter 300;
#X obj 31 449 loca.point 37 550651 126 925519 conversations 550;
#X obj 31 500 loca.point 37 552176 126 925258 thetrainboundfor 450
;
#X obj 31 394 loca.ambience 37 551247 126 925670 streetnoise 450;
#X obj 355 378 bng 15 250 50 0 empty empty empty 17 7 0 10 -262144
-1 -1;
#X obj 374 326 tgl 15 0 empty empty empty 17 7 0 10 -262144 -1 -1 0
1;
#X obj 31 345 loca.line 37 551805 126 925426 37 552055 126 926271 jogio
;
#X obj 252 707 loca.effect;
#X obj 31 253 loca.point 37 551690 126 925816 protest 350;
#X connect 6 0 48 0;
#X connect 7 0 48 1;
#X connect 9 0 40 1;
#X connect 10 0 43 1;
#X connect 11 0 42 1;
#X connect 13 0 0 1;
#X connect 14 0 0 0;
#X connect 15 0 38 1;
#X connect 17 0 18 0;
#X connect 17 0 19 0;
#X connect 20 0 36 0;
#X connect 21 0 48 0;
#X connect 30 0 32 0;
#X connect 32 0 31 0;
#X connect 32 1 33 0;
#X connect 35 0 41 1;
#X connect 36 0 17 0;
#X connect 37 0 23 0;
#X connect 37 1 24 0;
#X connect 38 0 39 0;
#X connect 38 1 12 0;
#X connect 39 0 37 0;
#X connect 40 0 46 0;
#X connect 40 1 3 0;
#X connect 41 0 42 0;
#X connect 41 1 34 0;
#X connect 42 0 38 0;
#X connect 42 1 5 0;
#X connect 43 0 41 0;
#X connect 43 1 4 0;
#X connect 45 0 46 1;
#X connect 46 0 43 0;
#X connect 46 1 44 0;
#X connect 48 0 40 0;
#X connect 48 1 2 0;
