#N canvas 1085 77 657 961 10;
#X declare -lib Gem;
#X obj 441 739 dac~;
#N canvas 15 204 327 131 init 0;
#X msg 95 42 6.371e+06;
#X obj 95 20 loadbang;
#X obj 24 20 loadbang;
#X msg 24 43 \; pd dsp 1;
#X obj 186 21 declare -lib Gem;
#X obj 95 66 v loca.earth-rad;
#X connect 0 0 5 0;
#X connect 1 0 0 0;
#X connect 2 0 3 0;
#X restore 34 20 pd init;
#X obj 316 273 tgl 15 0 empty empty empty 17 7 0 10 -233412 -1 -1 0
1;
#X obj 319 347 tgl 15 0 empty empty empty 17 7 0 10 -4034 -1 -1 0 1
;
#X obj 323 434 tgl 15 0 empty empty empty 17 7 0 10 -4032 -1 -1 0 1
;
#X obj 352 523 tgl 15 0 empty empty empty 17 7 0 10 -42868 -1 -1 0
1;
#X obj 44 230 loca.mouse.simulate;
#X obj 31 769 unpack f f;
#X floatatom 31 799 6 0 0 0 - - -, f 6;
#X floatatom 88 800 6 0 0 0 - - -, f 6;
#X obj 317 229 tgl 15 0 empty empty empty 17 7 0 10 -262144 -1 -1 0
1;
#X obj 139 51 loca.variables;
#X obj 320 306 tgl 15 0 empty empty empty 17 7 0 10 -262144 -1 -1 0
1;
#X obj 330 396 tgl 15 0 empty empty empty 17 7 0 10 -262144 -1 -1 0
1;
#X obj 358 478 tgl 15 0 empty empty empty 17 7 0 10 -262144 -1 -1 0
1;
#X obj 345 592 bng 15 250 50 0 empty empty empty 17 7 0 10 -262144
-1 -1;
#X obj 483 601 catch~ L;
#X obj 426 602 catch~ R;
#X obj 342 551 tgl 15 0 empty empty empty 17 7 0 10 -262144 -1 -1 0
1;
#X obj 33 51 loca.gemwin;
#X obj 373 240 hsl 200 15 20 1500 0 0 empty empty empty -2 -8 0 10
-262144 -1 -1 10784 1;
#X floatatom 383 267 5 0 0 0 - - -, f 5;
#X obj 370 287 v loca.scale;
#X obj 370 193 loadbang;
#X obj 31 205 loca.coordinates.sensor;
#X obj 275 51 loca.world.latlon;
#X msg 34 878 550276;
#X msg 83 879 927069;
#X obj 123 775 gemmouse;
#X msg 83 854 set \$1;
#X obj 83 834 f;
#X obj 145 800 sel 1;
#X msg 34 854 set \$1;
#X obj 34 834 f;
#X obj 31 323 loca.ambience 37 550131 126 926600 scooter 300;
#N canvas 195 489 450 300 reverb 0;
#X obj 73 47 inlet~;
#X obj 191 39 inlet~;
#X obj 73 215 outlet~;
#X obj 266 212 outlet~;
#X obj 72 79 moorerstereo~;
#X obj 282 0 r loca.reverb;
#X obj 276 39 * 100;
#X connect 0 0 4 0;
#X connect 1 0 4 1;
#X connect 4 0 2 0;
#X connect 4 1 3 0;
#X connect 5 0 6 0;
#X connect 6 0 4 2;
#X restore 509 634 pd reverb;
#N canvas 204 259 450 300 bitcrush 0;
#X obj 73 47 inlet~;
#X obj 191 39 inlet~;
#X obj 73 215 outlet~;
#X obj 190 217 outlet~;
#X obj 281 49 r loca.bitcrush;
#X obj 180 172 *~;
#X obj 243 171 *~;
#X obj 308 131 line~;
#X obj 306 164 *~ -1;
#X obj 309 186 +~ 1;
#X msg 298 90 \$1 20;
#X obj 68 177 *~;
#X obj 131 176 *~;
#X obj 364 128 line;
#X floatatom 355 179 5 0 0 0 - - -, f 5;
#X obj 401 174 * -1;
#X obj 404 196 + 1;
#X floatatom 385 225 5 0 0 0 - - -, f 5;
#X obj 93 135 bitcrusher~ 4;
#X obj 205 130 bitcrusher~ 4;
#X connect 0 0 11 0;
#X connect 0 0 18 0;
#X connect 1 0 5 0;
#X connect 1 0 19 0;
#X connect 4 0 10 0;
#X connect 5 0 3 0;
#X connect 6 0 3 0;
#X connect 7 0 8 0;
#X connect 7 0 6 1;
#X connect 7 0 12 1;
#X connect 8 0 9 0;
#X connect 9 0 5 1;
#X connect 9 0 11 1;
#X connect 10 0 7 0;
#X connect 10 0 13 0;
#X connect 11 0 2 0;
#X connect 12 0 2 0;
#X connect 13 0 14 0;
#X connect 13 0 15 0;
#X connect 15 0 16 0;
#X connect 16 0 17 0;
#X connect 18 0 12 0;
#X connect 19 0 6 0;
#X restore 509 672 pd bitcrush;
#X msg 370 218 822;
#X obj 31 568 loca.line 37 551156 126 925525 37 551449 126 927718 turnstile
;
#X text 262 819 5.49989e+06 9.25522e+06;
#X text 259 803 549427 926570;
#X text 416 804 difference: 562 -1048;
#X obj 401 927 s loca.lon.offset;
#X obj 281 924 s loca.lat.offset;
#X obj 274 850 loadbang;
#X msg 279 903 562;
#X obj 278 870 t b b;
#X msg 312 902 -1048;
#X obj 31 500 loca.point 37 550943 126 926621 thetrainboundfor 450
;
#X obj 31 708 loca.effect 37 551722 126 925992 bitcrush 500;
#X obj 31 667 loca.effect 37 550847 126 926870 reverb 1000;
#X obj 31 253 loca.point 37 551655 126 926274 protest 350;
#X obj 31 415 loca.ambience 37 549731 126 926491 streetnoise 450;
#X connect 6 0 51 0;
#X connect 7 0 8 0;
#X connect 7 1 9 0;
#X connect 8 0 33 1;
#X connect 9 0 30 1;
#X connect 10 0 51 1;
#X connect 12 0 34 1;
#X connect 13 0 52 1;
#X connect 14 0 48 1;
#X connect 16 0 0 1;
#X connect 17 0 0 0;
#X connect 18 0 38 1;
#X connect 20 0 21 0;
#X connect 20 0 22 0;
#X connect 23 0 37 0;
#X connect 24 0 51 0;
#X connect 28 2 31 0;
#X connect 29 0 27 0;
#X connect 30 0 29 0;
#X connect 31 0 30 0;
#X connect 31 0 33 0;
#X connect 32 0 26 0;
#X connect 33 0 32 0;
#X connect 34 0 52 0;
#X connect 34 1 3 0;
#X connect 35 0 36 0;
#X connect 35 1 36 1;
#X connect 37 0 20 0;
#X connect 38 0 50 0;
#X connect 38 1 15 0;
#X connect 44 0 46 0;
#X connect 45 0 43 0;
#X connect 46 0 45 0;
#X connect 46 1 47 0;
#X connect 47 0 42 0;
#X connect 48 0 38 0;
#X connect 48 1 5 0;
#X connect 49 0 7 0;
#X connect 50 0 49 0;
#X connect 51 0 34 0;
#X connect 51 1 2 0;
#X connect 52 0 48 0;
#X connect 52 1 4 0;
