#N canvas 869 182 901 820 10;
#X declare -lib Gem;
#X obj 419 113 dac~;
#N canvas 15 201 327 131 init 0;
#X msg 95 42 6.371e+06;
#X obj 95 20 loadbang;
#X obj 24 20 loadbang;
#X msg 24 43 \; pd dsp 1;
#X obj 186 21 declare -lib Gem;
#X obj 95 66 v loca.earth-rad;
#X connect 0 0 5 0;
#X connect 1 0 0 0;
#X restore 31 11 pd init;
#X obj 316 273 tgl 15 0 empty empty empty 17 7 0 10 -233412 -1 -1 0
1;
#X obj 319 347 tgl 15 0 empty empty empty 17 7 0 10 -4034 -1 -1 0 1
;
#X obj 323 434 tgl 15 0 empty empty empty 17 7 0 10 -4032 -1 -1 0 1
;
#X obj 328 518 tgl 15 0 empty empty empty 17 7 0 10 -42868 -1 -1 0
1;
#X obj 33 51 loca.gemwin;
#X obj 44 200 loca.mouse.simulate;
#X obj 31 628 unpack f f;
#X floatatom 31 658 10 0 0 0 - - -, f 10;
#X floatatom 103 659 10 0 0 0 - - -, f 10;
#X obj 317 229 tgl 15 0 empty empty empty 17 7 0 10 -262144 -1 -1 0
1;
#X obj 176 51 loca.variables;
#X obj 320 306 tgl 15 0 empty empty empty 17 7 0 10 -262144 -1 -1 0
1;
#X obj 321 397 tgl 15 0 empty empty empty 17 7 0 10 -262144 -1 -1 0
1;
#X obj 323 482 tgl 15 0 empty empty empty 17 7 0 10 -262144 -1 -1 0
1;
#X obj 31 175 loca.coordinates.sensor;
#X obj 345 587 bng 15 250 50 0 empty empty empty 17 7 0 10 -262144
-1 -1;
#X obj 31 253 loca.point 35.8333 128.753 protest 40;
#X obj 31 563 loca.line 35.8339 128.757 35.8343 128.758 turnstile;
#X obj 450 57 catch~ L;
#X obj 393 58 catch~ R;
#X obj 31 326 loca.point 35.8351 128.755 scooter 50;
#X obj 31 415 loca.point 35.8331 128.754 streetnoise 40;
#X obj 31 500 loca.point 35.8354 128.757 thetrainboundfor 10;
#X obj 342 546 tgl 15 0 empty empty empty 17 7 0 10 -262144 -1 -1 0
1;
#X connect 7 0 18 0;
#X connect 8 0 9 0;
#X connect 8 1 10 0;
#X connect 11 0 18 3;
#X connect 13 0 22 3;
#X connect 14 0 23 3;
#X connect 15 0 24 3;
#X connect 16 0 18 0;
#X connect 18 0 22 0;
#X connect 18 1 2 0;
#X connect 19 0 8 0;
#X connect 19 1 17 0;
#X connect 20 0 0 1;
#X connect 21 0 0 0;
#X connect 22 0 23 0;
#X connect 22 1 3 0;
#X connect 23 0 24 0;
#X connect 23 1 4 0;
#X connect 24 0 19 0;
#X connect 24 1 5 0;
#X connect 25 0 19 5;
