#N canvas 890 214 948 778 10;
#X declare -lib Gem;
#X obj 384 499 dac~;
#N canvas 240 174 327 131 init 0;
#X msg 95 42 6.371e+06;
#X obj 95 66 s erdradius;
#X obj 95 20 loadbang;
#X obj 24 20 loadbang;
#X msg 24 43 \; pd dsp 1;
#X obj 186 21 declare -lib Gem;
#X connect 0 0 1 0;
#X connect 2 0 0 0;
#X connect 3 0 4 0;
#X restore 30 27 pd init;
#X obj 394 441 catch~;
#X obj 261 240 tgl 15 0 empty empty empty 17 7 0 10 -233412 -1 -1 1
1;
#X obj 257 278 tgl 15 0 empty empty empty 17 7 0 10 -4034 -1 -1 1 1
;
#X obj 257 318 tgl 15 0 empty empty empty 17 7 0 10 -4032 -1 -1 1 1
;
#X obj 257 360 tgl 15 0 empty empty empty 17 7 0 10 -42868 -1 -1 1
1;
#X text 291 241 Pssst! Der Feind hört mit!;
#X text 300 277 Chello;
#X text 301 319 Voice;
#X text 301 361 Rhodes Piano;
#X text 440 440 catches throw~;
#X obj 174 468 gemhead;
#X obj 174 540 translateXYZ;
#X obj 174 562 rectangle 0.007 4;
#X floatatom 192 497 5 0 0 0 - - -, f 5;
#X obj 176 597 gemhead;
#X obj 176 669 translateXYZ;
#X floatatom 194 626 5 0 0 0 - - -, f 5;
#X obj 176 691 rectangle 4 0.007;
#X obj 485 18 loca.gemwin;
#X obj 602 100 text define loca.map;
#X msg 602 77 read Yeungnam.world;
#X obj 31 209 loca.mouse.simulate;
#X obj 31 239 loca.point 35.8382 128.758 sound1 40;
#X obj 31 317 loca.point 50.9737 11.3337 sound3 40;
#X obj 31 360 loca.point 50.9733 11.3346 sound4 40;
#X obj 31 276 loca.point 35.8309 128.762 sound2 50;
#X connect 2 0 0 0;
#X connect 2 0 0 1;
#X connect 12 0 13 0;
#X connect 13 0 14 0;
#X connect 15 0 13 1;
#X connect 16 0 17 0;
#X connect 17 0 19 0;
#X connect 18 0 17 2;
#X connect 22 0 21 0;
#X connect 23 0 24 0;
#X connect 24 0 27 0;
#X connect 24 1 3 0;
#X connect 25 0 26 0;
#X connect 25 1 5 0;
#X connect 26 1 6 0;
#X connect 27 0 25 0;
#X connect 27 1 4 0;
