#N canvas 173 388 827 542 10;
#X obj 31 -1 inlet~;
#X floatatom 134 78 5 -100 0 0 apgain - -, f 5;
#X floatatom 86 132 5 0 0 0 ap2delay - -, f 5;
#X obj 40 508 outlet~;
#X obj 134 122 dbtorms;
#X text 283 244 -60*looptime/reverbtime=gain;
#X floatatom 273 124 5 0 0 0 reverbtime-ms - -, f 5;
#X obj 82 458 dbtorms;
#X obj 81 318 * -60;
#X floatatom 83 339 5 0 0 0 - - -, f 5;
#X obj 83 388 /;
#X obj 74 365 t b f;
#X obj 82 412 + 100;
#X floatatom 82 436 5 0 0 0 - - -, f 5;
#X obj 134 100 + 100;
#X obj 115 0 loadbang;
#X obj 182 -1 inlet;
#X obj 250 -1 inlet;
#X msg 278 91 500;
#X msg 86 110 6;
#X obj 171 507 outlet~;
#X obj 213 457 dbtorms;
#X obj 212 317 * -60;
#X floatatom 214 338 5 0 0 0 - - -, f 5;
#X obj 214 387 /;
#X obj 205 364 t b f;
#X obj 213 411 + 100;
#X floatatom 213 435 5 0 0 0 - - -, f 5;
#X obj 301 507 outlet~;
#X obj 343 457 dbtorms;
#X obj 342 317 * -60;
#X floatatom 344 338 5 0 0 0 - - -, f 5;
#X obj 344 387 /;
#X obj 335 364 t b f;
#X obj 343 411 + 100;
#X floatatom 343 435 5 0 0 0 - - -, f 5;
#X obj 433 506 outlet~;
#X obj 475 456 dbtorms;
#X obj 474 316 * -60;
#X floatatom 476 337 5 0 0 0 - - -, f 5;
#X obj 476 386 /;
#X obj 467 363 t b f;
#X obj 475 410 + 100;
#X floatatom 475 434 5 0 0 0 - - -, f 5;
#X obj 566 507 outlet~;
#X obj 608 457 dbtorms;
#X obj 607 317 * -60;
#X floatatom 609 338 5 0 0 0 - - -, f 5;
#X obj 609 387 /;
#X obj 600 364 t b f;
#X obj 608 411 + 100;
#X floatatom 608 435 5 0 0 0 - - -, f 5;
#X obj 700 506 outlet~;
#X obj 742 456 dbtorms;
#X obj 741 316 * -60;
#X floatatom 743 337 5 0 0 0 - - -, f 5;
#X obj 743 386 /;
#X obj 734 363 t b f;
#X obj 742 410 + 100;
#X floatatom 742 434 5 0 0 0 - - -, f 5;
#X floatatom 140 157 5 0 0 0 - - -, f 5;
#X msg 133 55 -3;
#X floatatom 126 482 5 0 0 0 - - -, f 5;
#X floatatom 252 483 5 0 0 0 - - -, f 5;
#X floatatom 379 481 5 0 0 0 - - -, f 5;
#X floatatom 513 481 5 0 0 0 - - -, f 5;
#X floatatom 647 482 5 0 0 0 - - -, f 5;
#X floatatom 781 480 5 0 0 0 - - -, f 5;
#X obj 367 158 t b b b b b b;
#X obj 722 293 f \$6;
#X obj 586 293 f \$5;
#X obj 453 292 f \$4;
#X obj 61 294 f \$1;
#X obj 195 292 f \$2;
#X obj 326 291 f \$3;
#X obj 289 56 t b b;
#X obj 307 28 bng 15 250 50 0 empty empty empty 17 7 0 10 -262144 -1
-1;
#X obj 53 156 allpass100ms~;
#X obj 433 480 lpcomb100ms~;
#X obj 566 481 lpcomb100ms~;
#X obj 700 480 lpcomb100ms~;
#X obj 171 482 lpcomb100ms~;
#X obj 301 481 lpcomb100ms~;
#X obj 40 482 lpcomb100ms~;
#X connect 0 0 77 0;
#X connect 1 0 14 0;
#X connect 2 0 77 1;
#X connect 4 0 60 0;
#X connect 4 0 77 2;
#X connect 6 0 11 0;
#X connect 6 0 25 0;
#X connect 6 0 33 0;
#X connect 6 0 41 0;
#X connect 6 0 49 0;
#X connect 6 0 57 0;
#X connect 7 0 62 0;
#X connect 7 0 83 2;
#X connect 8 0 9 0;
#X connect 9 0 10 0;
#X connect 10 0 12 0;
#X connect 11 0 10 0;
#X connect 11 1 10 1;
#X connect 12 0 13 0;
#X connect 13 0 7 0;
#X connect 14 0 4 0;
#X connect 15 0 19 0;
#X connect 15 0 61 0;
#X connect 15 0 75 0;
#X connect 16 0 6 0;
#X connect 17 0 1 0;
#X connect 18 0 6 0;
#X connect 19 0 2 0;
#X connect 21 0 63 0;
#X connect 21 0 81 2;
#X connect 22 0 23 0;
#X connect 23 0 24 0;
#X connect 24 0 26 0;
#X connect 25 0 24 0;
#X connect 25 1 24 1;
#X connect 26 0 27 0;
#X connect 27 0 21 0;
#X connect 29 0 64 0;
#X connect 29 0 82 2;
#X connect 30 0 31 0;
#X connect 31 0 32 0;
#X connect 32 0 34 0;
#X connect 33 0 32 0;
#X connect 33 1 32 1;
#X connect 34 0 35 0;
#X connect 35 0 29 0;
#X connect 37 0 65 0;
#X connect 37 0 78 2;
#X connect 38 0 39 0;
#X connect 39 0 40 0;
#X connect 40 0 42 0;
#X connect 41 0 40 0;
#X connect 41 1 40 1;
#X connect 42 0 43 0;
#X connect 43 0 37 0;
#X connect 45 0 66 0;
#X connect 45 0 79 2;
#X connect 46 0 47 0;
#X connect 47 0 48 0;
#X connect 48 0 50 0;
#X connect 49 0 48 0;
#X connect 49 1 48 1;
#X connect 50 0 51 0;
#X connect 51 0 45 0;
#X connect 53 0 67 0;
#X connect 53 0 80 2;
#X connect 54 0 55 0;
#X connect 55 0 56 0;
#X connect 56 0 58 0;
#X connect 57 0 56 0;
#X connect 57 1 56 1;
#X connect 58 0 59 0;
#X connect 59 0 53 0;
#X connect 61 0 1 0;
#X connect 68 0 72 0;
#X connect 68 1 73 0;
#X connect 68 2 74 0;
#X connect 68 3 71 0;
#X connect 68 4 70 0;
#X connect 68 5 69 0;
#X connect 69 0 54 0;
#X connect 69 0 80 1;
#X connect 70 0 46 0;
#X connect 70 0 79 1;
#X connect 71 0 38 0;
#X connect 71 0 78 1;
#X connect 72 0 8 0;
#X connect 72 0 83 1;
#X connect 73 0 22 0;
#X connect 73 0 81 1;
#X connect 74 0 30 0;
#X connect 74 0 82 1;
#X connect 75 0 18 0;
#X connect 75 1 68 0;
#X connect 76 0 75 0;
#X connect 77 0 78 0;
#X connect 77 0 79 0;
#X connect 77 0 80 0;
#X connect 77 0 81 0;
#X connect 77 0 82 0;
#X connect 77 0 83 0;
#X connect 78 0 36 0;
#X connect 79 0 44 0;
#X connect 80 0 52 0;
#X connect 81 0 20 0;
#X connect 82 0 28 0;
#X connect 83 0 3 0;
#X coords 0 0 1 1 140 100 0;
