#N canvas 670 324 524 593 10;
#X obj 321 236 +~;
#X obj 46 315 +~;
#X obj 322 319 +~;
#X obj 402 236 -~;
#X obj 430 235 -~;
#X obj 401 286 +~;
#X obj 345 236 +~;
#X obj 322 287 +~;
#X obj 45 233 +~;
#X obj 133 233 -~;
#X obj 161 234 -~;
#X obj 132 283 +~;
#X obj 74 232 +~;
#X obj 45 289 +~;
#X obj 30 434 *~;
#X obj 309 436 *~;
#X obj 4 434 *~;
#X obj 282 436 *~;
#X floatatom 207 303 5 0 1 0 drywet - -, f 5;
#X obj 281 460 +~;
#X obj 3 462 +~;
#X obj 207 365 - 1;
#X obj 207 386 * -1;
#X obj 103 232 +~;
#X obj 191 234 -~;
#X obj 371 236 +~;
#X obj 455 236 -~;
#X obj 5 146 inlet~;
#X obj 283 149 inlet~;
#X obj 2 489 outlet~;
#X obj 280 485 outlet~;
#X obj 1 1 cnv 15 198 117 empty empty moorer_reverb 20 12 0 14 -233017
-66577 0;
#X obj 10 31 hsl 128 15 100 5000 1 0 empty empty time_ms -2 -8 0 10
-262144 -1 -1 12700 1;
#X obj 10 61 hsl 128 15 0 100 0 0 empty empty mix -2 -8 0 10 -262144
-1 -1 12700 1;
#X obj 11 91 hsl 128 15 -24 -2 0 0 empty empty ap_gain -2 -8 0 10 -262144
-1 -1 7291 1;
#X floatatom 153 30 5 0 0 0 - - -, f 5;
#X floatatom 152 60 5 0 0 0 - - -, f 5;
#X floatatom 151 90 5 0 0 0 - - -, f 5;
#X obj -11 -59 loadbang;
#X msg -10 -32 1000;
#X msg 33 -31 50;
#X msg 69 -29 -6;
#X obj 239 188 * 0.01;
#X obj 323 344 *~ 0.16;
#X obj 46 340 *~ 0.16;
#X obj 222 -22 t f f;
#X obj 221 6 * 15;
#X obj 429 263 +~;
#X obj 346 264 +~;
#X obj 162 257 +~;
#X obj 74 260 +~;
#X obj 44 188 moorerreverb~ 49 55 58 64 70 77;
#X obj 321 188 moorerreverb~ 50 56 61 68 74 82;
#X obj 284 -15 inlet;
#X connect 0 0 7 0;
#X connect 1 0 44 0;
#X connect 2 0 43 0;
#X connect 3 0 5 0;
#X connect 4 0 47 0;
#X connect 5 0 2 1;
#X connect 6 0 48 0;
#X connect 7 0 2 0;
#X connect 8 0 13 0;
#X connect 9 0 11 0;
#X connect 10 0 49 0;
#X connect 11 0 1 1;
#X connect 12 0 50 0;
#X connect 13 0 1 0;
#X connect 14 0 20 1;
#X connect 15 0 19 1;
#X connect 16 0 20 0;
#X connect 17 0 19 0;
#X connect 18 0 15 0;
#X connect 18 0 14 0;
#X connect 18 0 21 0;
#X connect 19 0 30 0;
#X connect 20 0 29 0;
#X connect 21 0 22 0;
#X connect 22 0 16 1;
#X connect 22 0 17 1;
#X connect 23 0 50 1;
#X connect 24 0 49 1;
#X connect 25 0 48 1;
#X connect 26 0 47 1;
#X connect 27 0 16 0;
#X connect 27 0 51 0;
#X connect 28 0 17 0;
#X connect 28 0 52 0;
#X connect 32 0 35 0;
#X connect 33 0 36 0;
#X connect 34 0 37 0;
#X connect 35 0 51 1;
#X connect 35 0 52 1;
#X connect 36 0 42 0;
#X connect 37 0 51 2;
#X connect 37 0 52 2;
#X connect 38 0 39 0;
#X connect 38 0 40 0;
#X connect 38 0 41 0;
#X connect 39 0 32 0;
#X connect 40 0 33 0;
#X connect 41 0 34 0;
#X connect 42 0 18 0;
#X connect 43 0 15 1;
#X connect 44 0 14 1;
#X connect 45 0 46 0;
#X connect 45 1 33 0;
#X connect 46 0 32 0;
#X connect 47 0 5 1;
#X connect 48 0 7 1;
#X connect 49 0 11 1;
#X connect 50 0 13 1;
#X connect 51 0 8 0;
#X connect 51 0 9 0;
#X connect 51 1 9 1;
#X connect 51 1 8 1;
#X connect 51 2 10 0;
#X connect 51 2 12 0;
#X connect 51 3 10 1;
#X connect 51 3 12 1;
#X connect 51 4 23 0;
#X connect 51 4 24 0;
#X connect 51 5 23 1;
#X connect 51 5 24 1;
#X connect 52 0 0 0;
#X connect 52 0 3 0;
#X connect 52 1 3 1;
#X connect 52 1 0 1;
#X connect 52 2 4 0;
#X connect 52 2 6 0;
#X connect 52 3 4 1;
#X connect 52 3 6 1;
#X connect 52 4 25 0;
#X connect 52 4 26 0;
#X connect 52 5 25 1;
#X connect 52 5 26 1;
#X connect 53 0 45 0;
#X coords 0 -1 1 1 200 120 1 0 0;
