#N canvas 613 585 701 372 10;
#X obj 63 17 inlet;
#X obj 63 214 outlet;
#X obj 63 136 - \$1;
#X obj 63 166 *;
#X obj 116 18 loadbang;
#X msg 116 118 1;
#X obj 116 141 /;
#X obj 116 68 - \$1;
#X obj 116 41 f \$2;
#X obj 116 94 t b f;
#X text 178 54 subtract max with min to get the range;
#X connect 0 0 2 0;
#X connect 2 0 3 0;
#X connect 3 0 1 0;
#X connect 4 0 8 0;
#X connect 5 0 6 0;
#X connect 6 0 3 1;
#X connect 7 0 9 0;
#X connect 8 0 7 0;
#X connect 9 0 5 0;
#X connect 9 1 6 1;
